<svg width="320" height="235" viewBox="0 0 320 235" fill="none" xmlns="http://www.w3.org/2000/svg">
<rect x="31.3892" y="50.3994" width="254.844" height="138.475" rx="12" transform="rotate(-1 31.3892 50.3994)" fill="#282828"/>
<path d="M59.0019 122.884L50.0664 123.957L51.1169 132.276L60.0524 131.203L59.0019 122.884Z" fill="#F68997"/>
<path fill-rule="evenodd" clip-rule="evenodd" d="M93.3625 146.711C92.3861 146.172 91.4985 145.667 90.507 145.006L90.5153 144.978C90.5153 144.978 87.2576 138.428 82.9447 135.264C78.6319 132.1 72.1801 131.69 69.5601 131.214L60.1279 129.5L59.4954 126.673L50.5346 127.573L50.8864 130.216L40.7472 132.577C36.8586 133.482 29.7377 134.417 25.3548 140.642C20.9718 146.867 15.7137 160.299 15.7137 160.299C15.8588 160.066 15.5378 160.593 15.7137 160.299C15.2698 161.251 14.7612 162.377 14.3499 163.782C13.9387 165.172 13.7278 166.983 14.0758 168.809C14.4079 170.64 15.262 172.253 16.1478 173.404C17.0389 174.566 17.9615 175.382 18.7998 176.021C20.487 177.279 21.9686 178.015 23.3605 178.649C26.1443 179.881 28.6487 180.662 31.132 181.403C33.6048 182.128 36.0195 182.762 38.4185 183.366C43.2058 184.573 60.3096 185.775 61.3588 182.296C61.5776 181.569 61.6642 180.835 61.6322 180.12H86.9684C87.3745 177.384 81.8208 166.139 78.92 164.241C79.578 163.757 80.2214 163.195 80.8474 162.571C82.5563 163.714 84.3727 164.838 86.4991 165.913C87.9015 166.6 89.4561 167.297 91.5413 167.819C92.5865 168.072 93.8365 168.278 95.3387 168.247C96.8251 168.221 98.6687 167.886 100.37 167.018C102.083 166.166 103.427 164.88 104.304 163.708C105.197 162.52 105.733 161.409 106.122 160.433C106.878 158.471 107.172 156.854 107.398 155.357C107.818 152.371 107.865 149.779 107.881 147.222C107.886 144.681 107.813 142.218 107.724 139.78C107.598 136.455 107.438 133.176 107.279 129.914L107.279 129.91C107.205 128.401 107.132 126.896 107.062 125.392C106.894 121.756 103.816 118.874 100.087 118.915C96.2789 118.962 93.222 122.035 93.2693 125.784V125.789C93.2889 127.415 93.3126 129.038 93.3363 130.657L93.3365 130.667L93.3365 130.668C93.3828 133.829 93.4287 136.971 93.4426 140.069C93.4477 142.321 93.4382 144.553 93.3625 146.711ZM33.1277 161.476C33.2428 161.447 33.3597 161.427 33.4785 161.418L33.1171 161.403L33.1771 161.417C33.1771 161.417 33.1597 161.438 33.1277 161.476ZM33.6408 161.374C33.6514 161.36 33.6632 161.345 33.6758 161.328L33.8524 161.423C33.7715 161.415 33.6912 161.411 33.6117 161.412C33.6202 161.401 33.6299 161.388 33.6408 161.374ZM92.3412 154.893C92.2126 155.082 92.2437 155.11 92.2976 154.99C92.3112 154.963 92.3258 154.93 92.3412 154.893Z" fill="#FCBFC8"/>
<path d="M43.1636 121.874L40.4089 122.228C39.5132 122.342 38.7004 121.678 38.5875 120.742L37.8574 114.56C37.7483 113.624 38.3843 112.775 39.2799 112.657L42.0346 112.303L43.1636 121.874Z" fill="#FCBFC8"/>
<path d="M63.5378 119.647L66.7517 119.293C67.7966 119.179 68.5386 118.326 68.4112 117.39L67.5595 111.208C67.4322 110.272 66.4794 109.608 65.4345 109.722L62.2207 110.076L63.5378 119.647Z" fill="#FCBFC8"/>
<path fill-rule="evenodd" clip-rule="evenodd" d="M65.5508 118.047L62.337 118.401L61.459 111.671L64.6728 111.317C65.7177 111.203 66.6705 111.868 66.7978 112.804L67.2104 116.144C67.3377 117.079 66.5957 117.933 65.5508 118.047ZM65.6991 112.941C65.6592 112.671 65.3267 112.333 64.7964 112.391C64.7963 112.391 64.7966 112.391 64.7964 112.391L62.6996 112.622L63.298 117.208L65.4276 116.974C65.9421 116.917 66.147 116.541 66.1123 116.286L66.1114 116.279L65.6991 112.941Z" fill="#F68997"/>
<path fill-rule="evenodd" clip-rule="evenodd" d="M40.8061 113.914L44.02 113.56L44.8979 120.29L41.6841 120.644C40.6392 120.758 39.6865 120.093 39.5592 119.157L39.1466 115.817C39.0192 114.881 39.7612 114.028 40.8061 113.914ZM40.6579 119.019C40.6978 119.29 41.0303 119.628 41.5605 119.57C41.5606 119.57 41.5604 119.57 41.5605 119.57L43.6574 119.339L43.0589 114.753L40.9294 114.987C40.4148 115.044 40.2099 115.42 40.2446 115.675L40.2455 115.682L40.6579 119.019Z" fill="#F68997"/>
<path d="M64.8656 115.26C64.9812 120.528 64.3617 123.916 58.8972 124.129C56.1331 126.688 53.3789 126.251 51.1413 124.833C47.9543 126.543 46.3582 127.09 44.4317 124.129C43.0675 122.032 42.1781 119.667 41.7234 117.211L41.1251 113.989C40.1 108.477 43.618 103.099 49.1383 101.851C49.1901 101.839 49.242 101.827 49.2898 101.816C49.3577 101.8 49.4294 101.784 49.4973 101.772C56.6808 100.26 63.6171 105.219 64.5146 112.433L64.8656 115.26Z" fill="#FCBFC8"/>
<path fill-rule="evenodd" clip-rule="evenodd" d="M44.6254 111.848C46.1767 110.312 48.2127 110.148 50.4405 110.859C50.7312 110.952 50.8898 111.257 50.7946 111.54C50.6995 111.824 50.3868 111.978 50.096 111.885C48.1123 111.253 46.5715 111.46 45.4148 112.606C45.2002 112.818 44.8496 112.821 44.6316 112.612C44.4136 112.402 44.4108 112.06 44.6254 111.848Z" fill="#E5ECFF"/>
<path fill-rule="evenodd" clip-rule="evenodd" d="M60.2687 110.493C58.9108 110.04 57.614 110.263 56.3053 111.045C56.0445 111.201 55.7035 111.121 55.5437 110.867C55.3838 110.613 55.4656 110.28 55.7264 110.125C57.2583 109.209 58.8975 108.895 60.6269 109.471C60.9164 109.567 61.0708 109.874 60.9719 110.157C60.873 110.439 60.5581 110.589 60.2687 110.493Z" fill="#E5ECFF"/>
<path d="M55.5561 118.271C55.7095 120.092 52.6149 120.288 52.4708 118.579C52.2015 115.386 52.7342 112.902 53.5648 112.753C54.3955 112.603 55.2868 115.072 55.5561 118.271Z" fill="#F68997"/>
<path fill-rule="evenodd" clip-rule="evenodd" d="M50.9888 115.847C51.1902 116.071 51.1668 116.412 50.9365 116.609C49.9981 117.409 48.8713 118.025 47.565 118.459C47.2755 118.556 46.9608 118.405 46.862 118.123C46.7632 117.84 46.9178 117.534 47.2073 117.437C48.3936 117.043 49.3901 116.492 50.2073 115.796C50.4376 115.599 50.7875 115.622 50.9888 115.847ZM55.9624 115.373C56.1638 115.148 56.5137 115.125 56.7439 115.322C57.5612 116.018 58.5577 116.569 59.744 116.963C60.0335 117.059 60.1881 117.366 60.0893 117.649C59.9905 117.931 59.6758 118.082 59.3863 117.985C58.08 117.551 56.9531 116.935 56.0147 116.135C55.7845 115.938 55.7611 115.597 55.9624 115.373Z" fill="#F68997"/>
<path d="M29.1133 167.319C29.1356 167.334 29.1523 167.339 29.1802 167.353C29.4198 167.49 29.9046 167.889 30.2501 168.463C30.6012 169.032 30.707 169.607 30.7126 169.865C30.7293 170.132 30.6959 170.166 30.746 170.045C30.8408 169.796 31.1361 169.164 31.5875 168.468C31.7101 168.278 31.8383 168.079 31.9776 167.879C31.6544 167.84 31.3367 167.796 31.0414 167.752C30.1832 167.631 29.4476 167.446 29.1133 167.319Z" fill="#FCBFC8"/>
<path fill-rule="evenodd" clip-rule="evenodd" d="M93.0859 146.542C93.389 146.502 93.668 146.709 93.7089 147.005C93.7635 147.399 93.6292 147.781 93.4443 148.126C93.2565 148.476 92.9783 148.857 92.6503 149.27C92.4628 149.505 92.1149 149.548 91.8732 149.366C91.6315 149.183 91.5874 148.844 91.7749 148.608C92.0952 148.205 92.3227 147.887 92.4626 147.626C92.6055 147.359 92.6207 147.218 92.6112 147.149C92.5702 146.854 92.7828 146.582 93.0859 146.542Z" fill="#F68997"/>
<path d="M111.931 116.365C111.859 115.6 111.582 114.91 111.135 114.325C111.118 111.695 109.96 110.462 108.96 109.889C108.487 108.409 107.538 107.673 106.775 107.318L110.109 103.15C110.807 102.281 110.782 101.018 109.998 100.174C109.126 99.2287 107.64 99.1619 106.678 100.019L97.6857 108.05C97.6559 108.079 97.6218 108.112 97.592 108.142C96.7405 108.133 95.6889 108.376 94.4542 109.137C92.4958 110.345 92.2129 111.333 92.2129 112.792C92.2129 114.494 92.3615 115.466 92.4745 116.578C93.2105 123.819 93.2105 123.977 93.4599 131.758L101.956 123.819C101.93 123.844 101.901 123.869 101.875 123.894C100.93 124.759 100.879 126.214 101.76 127.142C102.22 127.627 102.846 127.874 103.476 127.874C104.046 127.874 104.621 127.669 105.072 127.255C106.78 125.7 112.314 120.303 111.931 116.365Z" fill="#FCBFC8"/>
<path d="M109.749 114.049C108.065 113.003 106.698 113.165 105.866 113.454C104.875 113.799 104.165 114.478 103.677 115.149C103.189 115.818 102.944 116.451 102.874 116.649C102.553 117.568 103.045 118.574 103.954 118.888C104.867 119.203 105.86 118.74 106.18 117.829L106.182 117.824L106.184 117.82C106.252 117.636 106.358 117.444 106.464 117.285C106.561 117.14 106.699 116.959 106.854 116.846L107.066 116.69L107.323 116.753C107.365 116.764 107.399 116.777 107.402 116.779L107.403 116.779C107.414 116.783 107.423 116.788 107.43 116.791C107.444 116.797 107.458 116.803 107.472 116.81C107.5 116.823 107.535 116.84 107.574 116.859C107.653 116.898 107.754 116.948 107.855 116.998L108.036 117.089L108.137 117.139L108.237 117.189L108.276 117.208L108.277 117.209C108.553 117.336 108.671 117.658 108.54 117.928C108.409 118.197 108.079 118.312 107.802 118.185C107.772 118.171 107.648 118.108 107.509 118.039L107.509 118.039L107.35 117.96L107.341 117.955C107.292 118.038 107.251 118.12 107.226 118.185C106.705 119.657 105.079 120.422 103.584 119.906C102.082 119.388 101.315 117.759 101.825 116.3L101.826 116.299C101.916 116.044 102.203 115.307 102.774 114.523C103.345 113.74 104.221 112.881 105.493 112.437L105.494 112.436C106.602 112.052 108.333 111.889 110.344 113.138C110.85 113.451 111.279 113.842 111.618 114.292C111.8 114.532 111.747 114.87 111.501 115.047C111.254 115.224 110.907 115.172 110.726 114.932L109.749 114.049Z" fill="#F68997"/>
<path fill-rule="evenodd" clip-rule="evenodd" d="M99.0885 108.982C98.2603 108.617 96.8012 108.362 94.7301 109.617C94.4704 109.775 94.1288 109.697 93.9673 109.444C93.8059 109.19 93.8855 108.857 94.1453 108.7C96.5294 107.255 98.3788 107.485 99.5446 107.998L99.5455 107.998C101.801 108.995 102.248 111.268 102.316 111.701C102.465 112.572 102.372 113.341 102.051 113.941C101.725 114.553 101.178 114.959 100.512 115.089C99.1992 115.345 97.6698 114.517 96.5062 112.781C96.3389 112.531 96.4109 112.196 96.667 112.033C96.9231 111.87 97.2663 111.94 97.4336 112.19C98.4845 113.759 99.6262 114.16 100.295 114.03C100.62 113.966 100.891 113.775 101.069 113.443C101.251 113.102 101.345 112.582 101.223 111.876L101.223 111.872L101.222 111.868C101.164 111.499 100.796 109.737 99.0885 108.982Z" fill="#F68997"/>
<path fill-rule="evenodd" clip-rule="evenodd" d="M105.335 110.435C104.259 110.859 103.224 111.623 102.429 112.541C102.232 112.769 101.883 112.798 101.649 112.606C101.415 112.413 101.385 112.073 101.583 111.845C102.478 110.81 103.657 109.931 104.92 109.434C106.183 108.937 107.575 108.806 108.844 109.349C109.124 109.469 109.252 109.787 109.129 110.06C109.006 110.333 108.679 110.458 108.399 110.338C107.48 109.944 106.41 110.012 105.335 110.435Z" fill="#F68997"/>
<path fill-rule="evenodd" clip-rule="evenodd" d="M106.876 107.665C104.997 106.861 102.536 107.756 100.937 109.605C100.739 109.832 100.39 109.861 100.156 109.669C99.9224 109.477 99.8928 109.136 100.09 108.908C101.87 106.851 104.826 105.608 107.322 106.676C107.602 106.796 107.729 107.115 107.606 107.388C107.483 107.661 107.156 107.785 106.876 107.665Z" fill="#F68997"/>
<path fill-rule="evenodd" clip-rule="evenodd" d="M100.797 114.31C101.102 114.288 101.368 114.511 101.391 114.808C101.417 115.156 101.515 115.407 101.656 115.564C101.781 115.703 101.991 115.826 102.395 115.826C102.701 115.826 102.949 116.068 102.949 116.366C102.949 116.664 102.701 116.906 102.395 116.906C101.727 116.906 101.191 116.686 100.822 116.274C100.468 115.88 100.323 115.372 100.286 114.889C100.263 114.591 100.492 114.332 100.797 114.31Z" fill="#F68997"/>
<path fill-rule="evenodd" clip-rule="evenodd" d="M97.9493 113.822C98.1718 113.617 98.5223 113.627 98.7322 113.844C99.4565 114.593 99.9142 115.39 100.025 116.233C100.136 117.086 99.8832 117.913 99.3306 118.695C99.157 118.94 98.8121 119.002 98.5602 118.833C98.3084 118.664 98.245 118.327 98.4186 118.082C98.8496 117.472 98.9964 116.908 98.9259 116.37C98.8542 115.822 98.5475 115.228 97.9263 114.585C97.7164 114.368 97.7267 114.027 97.9493 113.822Z" fill="#F68997"/>
<path d="M66.4314 89.6166C65.342 93.9314 63.4031 101.931 64.4372 112.734C63.7985 106.062 58.2489 102.25 53.9074 104.709C52.8713 105.296 51.5327 105.371 50.4033 104.98C45.863 103.409 40.2541 108.136 41.6125 116.839C39.3965 107.333 35.1126 99.383 32.3053 95.8822C22.7766 83.9996 36.2943 75.5736 41.1695 80.9749C40.9322 77.4851 51.5067 74.2605 53.3571 78.3823C58.2323 72.9811 69.9771 75.5734 66.4314 89.6166Z" fill="#E5ECFF"/>
<path fill-rule="evenodd" clip-rule="evenodd" d="M53.5219 77.8665C53.8139 77.9555 53.9766 78.2583 53.8854 78.543C52.8421 81.7977 54.1147 83.9831 55.7402 84.7869C56.5667 85.1957 57.5072 85.2669 58.3677 84.9548C59.2235 84.6444 60.0483 83.9367 60.6057 82.7015C60.7289 82.4285 61.0557 82.3046 61.3357 82.4247C61.6157 82.5448 61.7428 82.8635 61.6196 83.1364C60.9583 84.6018 59.9271 85.5415 58.7539 85.967C57.5855 86.3908 56.3237 86.2865 55.2391 85.75C53.0419 84.6635 51.6553 81.8797 52.8281 78.2209C52.9193 77.9362 53.23 77.7776 53.5219 77.8665ZM41.3341 80.2431C41.626 80.332 41.7888 80.6349 41.6975 80.9195C40.6543 84.1743 41.9269 86.3596 43.5523 87.1635C44.3789 87.5722 45.3193 87.6435 46.1799 87.3313C47.0357 87.0209 47.8604 86.3133 48.4179 85.078C48.5411 84.8051 48.8679 84.6811 49.1479 84.8012C49.4279 84.9213 49.555 85.24 49.4318 85.513C48.7705 86.9783 47.7393 87.918 46.5661 88.3435C45.3976 88.7673 44.1359 88.663 43.0512 88.1266C40.8541 87.04 39.4675 84.2562 40.6403 80.5974C40.7315 80.3127 41.0421 80.1541 41.3341 80.2431ZM29.8108 84.7801C30.1027 84.869 30.2655 85.1719 30.1742 85.4565C29.131 88.7113 30.4036 90.8966 32.029 91.7005C32.8556 92.1093 33.796 92.1805 34.6566 91.8684C35.5124 91.558 36.3371 90.8503 36.8946 89.615C37.0178 89.3421 37.3446 89.2182 37.6246 89.3383C37.9046 89.4584 38.0317 89.777 37.9085 90.05C37.2472 91.5153 36.216 92.455 35.0428 92.8806C33.8743 93.3044 32.6126 93.2 31.5279 92.6636C29.3308 91.577 27.9442 88.7932 29.117 85.1344C29.2082 84.8498 29.5188 84.6911 29.8108 84.7801ZM59.7529 89.5389C59.7941 89.48 59.9444 89.2925 60.2262 89.2925C60.532 89.2925 60.78 89.5343 60.78 89.8325C60.78 89.9205 60.7584 90.0035 60.7202 90.0769C60.7101 90.1584 60.7011 90.2883 60.6945 90.4664C60.6809 90.8337 60.6794 91.3501 60.6858 91.9332C60.6986 93.0966 60.7428 94.4955 60.7796 95.429C60.7914 95.727 60.5531 95.9779 60.2474 95.9894C59.9418 96.0008 59.6845 95.7685 59.6727 95.4705C59.6357 94.5316 59.5912 93.1219 59.5782 91.9448C59.5717 91.3576 59.5729 90.8208 59.5875 90.4274C59.5947 90.2334 59.6056 90.0597 59.6229 89.9282C59.631 89.8668 59.6438 89.7878 59.6676 89.7136C59.6784 89.6801 59.7026 89.6107 59.7529 89.5389ZM60.2262 90.3725C60.2844 90.3725 60.3406 90.3637 60.3934 90.3474C60.3445 90.3628 60.2888 90.3725 60.2262 90.3725ZM64.805 90.3921C65.0999 90.4712 65.2733 90.7684 65.1922 91.0559L62.7546 99.6979C62.6735 99.9854 62.3686 100.154 62.0737 100.075C61.7788 99.9963 61.6054 99.6991 61.6865 99.4115L64.1241 90.7696C64.2052 90.482 64.5101 90.313 64.805 90.3921Z" fill="#BACBF7"/>
<mask id="mask0_2037_90650" style="mask-type:alpha" maskUnits="userSpaceOnUse" x="55" y="111" width="7" height="4">
<path fill-rule="evenodd" clip-rule="evenodd" d="M60.5428 114.168C59.2336 113.796 58.2461 113.948 56.9653 114.575C56.4559 114.824 55.8692 114.546 55.6548 113.954C55.4404 113.362 55.6795 112.68 56.1889 112.431C57.7961 111.645 59.2238 111.399 61.0172 111.908C61.5541 112.06 61.8832 112.689 61.7522 113.313C61.6212 113.937 61.0797 114.32 60.5428 114.168Z" fill="black"/>
</mask>
<g mask="url(#mask0_2037_90650)">
<path fill-rule="evenodd" clip-rule="evenodd" d="M60.5428 114.168C59.2336 113.796 58.2461 113.948 56.9653 114.575C56.4559 114.824 55.8692 114.546 55.6548 113.954C55.4404 113.362 55.6795 112.68 56.1889 112.431C57.7961 111.645 59.2238 111.399 61.0172 111.908C61.5541 112.06 61.8832 112.689 61.7522 113.313C61.6212 113.937 61.0797 114.32 60.5428 114.168Z" fill="white"/>
<path d="M60.2878 112.947C60.432 113.907 59.751 114.799 58.7668 114.939C57.7825 115.08 56.8677 114.416 56.7235 113.456C56.5793 112.497 57.2603 111.605 58.2445 111.464C59.2288 111.324 60.1435 111.987 60.2878 112.947Z" fill="#102156"/>
</g>
<mask id="mask1_2037_90650" style="mask-type:alpha" maskUnits="userSpaceOnUse" x="44" y="113" width="7" height="4">
<path fill-rule="evenodd" clip-rule="evenodd" d="M49.6224 115.519C48.2897 115.242 47.3114 115.46 46.0694 116.168C45.5755 116.449 44.9712 116.215 44.7197 115.644C44.4683 115.074 44.6649 114.383 45.1588 114.102C46.7173 113.215 48.13 112.874 49.9557 113.253C50.5023 113.366 50.8707 113.966 50.7787 114.592C50.6867 115.217 50.169 115.633 49.6224 115.519Z" fill="black"/>
</mask>
<g mask="url(#mask1_2037_90650)">
<path fill-rule="evenodd" clip-rule="evenodd" d="M49.6224 115.519C48.2897 115.242 47.3114 115.46 46.0694 116.168C45.5755 116.449 44.9712 116.215 44.7197 115.644C44.4683 115.074 44.6649 114.383 45.1588 114.102C46.7173 113.215 48.13 112.874 49.9557 113.253C50.5023 113.366 50.8707 113.966 50.7787 114.592C50.6867 115.217 50.169 115.633 49.6224 115.519Z" fill="white"/>
<path d="M49.7362 114.3C49.9407 115.244 49.3145 116.178 48.3377 116.385C47.3609 116.593 46.4033 115.997 46.1988 115.053C45.9944 114.109 46.6205 113.175 47.5973 112.967C48.5741 112.76 49.5317 113.356 49.7362 114.3Z" fill="#102156"/>
</g>
<mask id="mask2_2037_90650" style="mask-type:alpha" maskUnits="userSpaceOnUse" x="30" y="130" width="61" height="51">
<path d="M36.5369 151.463C34.0275 158.692 26.8693 176.742 34.0899 180.12L90.1509 179.342C90.557 176.606 84.4327 167.363 84.4327 167.363C84.4327 167.363 93.1028 157.075 70.6347 131.432L64.5076 130.209C57.5329 138.036 53.5064 139.29 45.9472 131.327L38.8784 133.078C40.9669 140.566 40.2492 144.57 36.5369 151.463Z" fill="#24BC85"/>
</mask>
<g mask="url(#mask2_2037_90650)">
<path d="M21.9858 126.107H92.4076V184.223H21.9858V126.107Z" fill="#24BC85"/>
<path d="M49.6945 132.487C49.6945 134.012 48.4267 135.248 46.8629 135.248C45.299 135.248 44.0312 134.012 44.0312 132.487C44.0312 130.963 45.299 129.727 46.8629 129.727C48.4267 129.727 49.6945 130.963 49.6945 132.487Z" fill="#318C6E"/>
<path d="M42.0148 134.74C42.0148 136.265 40.747 137.501 39.1832 137.501C37.6193 137.501 36.3516 136.265 36.3516 134.74C36.3516 133.216 37.6193 131.979 39.1832 131.979C40.747 131.979 42.0148 133.216 42.0148 134.74Z" fill="#318C6E"/>
<path d="M74.299 133.359C74.299 134.884 73.0312 136.12 71.4674 136.12C69.9035 136.12 68.6357 134.884 68.6357 133.359C68.6357 131.835 69.9035 130.599 71.4674 130.599C73.0312 130.599 74.299 131.835 74.299 133.359Z" fill="#318C6E"/>
<path d="M77.6085 137.393C77.6085 138.917 76.3408 140.153 74.7769 140.153C73.2131 140.153 71.9453 138.917 71.9453 137.393C71.9453 135.868 73.2131 134.632 74.7769 134.632C76.3408 134.632 77.6085 135.868 77.6085 137.393Z" fill="#318C6E"/>
<path d="M80.8249 141.204C80.8249 142.729 79.5571 143.965 77.9932 143.965C76.4294 143.965 75.1616 142.729 75.1616 141.204C75.1616 139.679 76.4294 138.443 77.9932 138.443C79.5571 138.443 80.8249 139.679 80.8249 141.204Z" fill="#318C6E"/>
<path d="M83.9626 145.165C83.9626 146.69 82.6948 147.926 81.1309 147.926C79.5671 147.926 78.2993 146.69 78.2993 145.165C78.2993 143.64 79.5671 142.404 81.1309 142.404C82.6948 142.404 83.9626 143.64 83.9626 145.165Z" fill="#318C6E"/>
<path d="M86.8053 147.84C86.8053 149.365 85.5376 150.601 83.9737 150.601C82.4098 150.601 81.1421 149.365 81.1421 147.84C81.1421 146.315 82.4098 145.079 83.9737 145.079C85.5376 145.079 86.8053 146.315 86.8053 147.84Z" fill="#318C6E"/>
<path d="M42.7604 139.465C42.7604 140.99 41.4926 142.226 39.9288 142.226C38.3649 142.226 37.0972 140.99 37.0972 139.465C37.0972 137.94 38.3649 136.704 39.9288 136.704C41.4926 136.704 42.7604 137.94 42.7604 139.465Z" fill="#318C6E"/>
<path d="M42.4621 144.48C42.4621 146.005 41.1943 147.241 39.6304 147.241C38.0666 147.241 36.7988 146.005 36.7988 144.48C36.7988 142.956 38.0666 141.72 39.6304 141.72C41.1943 141.72 42.4621 142.956 42.4621 144.48Z" fill="#318C6E"/>
<path d="M40.5983 149.497C40.5983 151.022 39.3305 152.258 37.7667 152.258C36.2028 152.258 34.9351 151.022 34.9351 149.497C34.9351 147.972 36.2028 146.736 37.7667 146.736C39.3305 146.736 40.5983 147.972 40.5983 149.497Z" fill="#318C6E"/>
<path d="M36.6466 152.841C36.6466 154.365 35.3789 155.601 33.815 155.601C32.2512 155.601 30.9834 154.365 30.9834 152.841C30.9834 151.316 32.2512 150.08 33.815 150.08C35.3789 150.08 36.6466 151.316 36.6466 152.841Z" fill="#318C6E"/>
<path d="M53.7121 135.416C53.7121 136.941 52.4443 138.177 50.8804 138.177C49.3166 138.177 48.0488 136.941 48.0488 135.416C48.0488 133.891 49.3166 132.655 50.8804 132.655C52.4443 132.655 53.7121 133.891 53.7121 135.416Z" fill="#318C6E"/>
<path d="M58.7785 136.058C58.7785 137.582 57.5107 138.818 55.9469 138.818C54.383 138.818 53.1152 137.582 53.1152 136.058C53.1152 134.533 54.383 133.297 55.9469 133.297C57.5107 133.297 58.7785 134.533 58.7785 136.058Z" fill="#318C6E"/>
<path d="M63.5885 134.016C63.5885 135.54 62.3208 136.776 60.7569 136.776C59.1931 136.776 57.9253 135.54 57.9253 134.016C57.9253 132.491 59.1931 131.255 60.7569 131.255C62.3208 131.255 63.5885 132.491 63.5885 134.016Z" fill="#318C6E"/>
<path d="M67.2912 130.519C67.2912 132.043 66.0234 133.279 64.4595 133.279C62.8957 133.279 61.6279 132.043 61.6279 130.519C61.6279 128.994 62.8957 127.758 64.4595 127.758C66.0234 127.758 67.2912 128.994 67.2912 130.519Z" fill="#318C6E"/>
</g>
<path d="M39.6171 121.462C39.7147 120.933 40.1868 120.548 40.7381 120.548C41.3355 120.548 41.8474 120.964 41.9543 121.537L42.7436 125.768C42.9712 126.988 42.0099 128.111 40.7381 128.111C39.5148 128.111 38.5894 127.032 38.806 125.858L39.6171 121.462Z" fill="#CCCCCC"/>
<path d="M65.4701 118.883C65.5677 118.354 66.0399 117.969 66.5911 117.969C67.1885 117.969 67.7004 118.385 67.8073 118.958L68.5966 123.189C68.8242 124.409 67.8629 125.532 66.5911 125.532C65.3678 125.532 64.4424 124.453 64.659 123.279L65.4701 118.883Z" fill="#CCCCCC"/>
<path d="M56.6768 174.013C51.9844 172.704 46.8913 171.319 42.3201 170.006C40.0424 169.346 37.7911 168.677 35.6399 167.966C33.8473 167.373 30.6153 166.085 30.6153 166.085C30.2041 164.898 33.1771 161.417 33.1771 161.417L17.6399 157.594C17.139 158.213 16.3798 159.572 15.8789 160.373C15.3253 161.276 14.7612 162.377 14.3499 163.782C13.9387 165.172 13.7278 166.982 14.0758 168.808C14.4079 170.64 15.262 172.253 16.1478 173.404C17.0389 174.565 17.9615 175.382 18.7998 176.021C20.487 177.279 21.9686 178.015 23.3605 178.649C26.1443 179.881 28.6487 180.662 31.132 181.403C33.6048 182.128 36.0195 182.762 38.4185 183.366C43.2058 184.573 60.3095 185.775 61.3588 182.296C62.4291 178.74 60.3359 175.032 56.6768 174.013Z" fill="#FCBFC8"/>
<path fill-rule="evenodd" clip-rule="evenodd" d="M25.9216 164.193C26.1382 163.982 26.4889 163.983 26.7049 164.194C27.5508 165.021 28.8863 165.526 31.0578 165.417C31.3633 165.401 31.6237 165.63 31.6396 165.928C31.6554 166.226 31.4206 166.48 31.1151 166.495C28.744 166.615 27.058 166.069 25.9204 164.956C25.7045 164.745 25.705 164.403 25.9216 164.193Z" fill="#F68997"/>
<path d="M147.622 174.008H11.9053V188.414H147.622V174.008Z" fill="#CF693F"/>
<path d="M48.9386 174.008H11.9053V188.414H48.9386V174.008Z" fill="#B25735"/>
<path d="M74.0493 170.258H137.124V173.98H74.0493V170.258Z" fill="#102156"/>
<path d="M101.378 147.889H145.903L137.126 173.976H92.6011L101.378 147.889Z" fill="#102156"/>
<path d="M103.496 147.889H148.021L139.244 173.976H94.7188L103.496 147.889Z" fill="#BACBF7"/>
<path d="M90.7621 172.138C90.7621 172.363 90.575 172.545 90.3442 172.545C90.1134 172.545 89.9263 172.363 89.9263 172.138C89.9263 171.913 90.1134 171.73 90.3442 171.73C90.575 171.73 90.7621 171.913 90.7621 172.138Z" fill="#BACBF7"/>
<path d="M89.0907 172.138C89.0907 172.363 88.9036 172.545 88.6728 172.545C88.442 172.545 88.2549 172.363 88.2549 172.138C88.2549 171.913 88.442 171.73 88.6728 171.73C88.9036 171.73 89.0907 171.913 89.0907 172.138Z" fill="#BACBF7"/>
<path d="M125.695 163.17C124.965 165.713 122.408 167.237 119.984 166.576C117.56 165.914 116.188 163.316 116.918 160.774C117.648 158.231 120.205 156.706 122.629 157.368C125.053 158.03 126.425 160.628 125.695 163.17Z" fill="#E5ECFF"/>
<path fill-rule="evenodd" clip-rule="evenodd" d="M70.2578 131.138C70.4999 130.956 70.8477 130.999 71.0347 131.235C77.2178 139.036 81.7495 145.113 84.275 150.631C86.8165 156.184 87.337 161.192 85.4989 166.829C85.281 167.497 84.6396 167.935 83.9352 167.935H81.059C80.7532 167.935 80.5052 167.693 80.5052 167.395C80.5052 167.097 80.7532 166.855 81.059 166.855H83.9352C84.1721 166.855 84.376 166.708 84.4433 166.501C86.1879 161.151 85.7103 156.417 83.2635 151.071C80.8006 145.69 76.3537 139.712 70.1583 131.896C69.9712 131.66 70.0158 131.32 70.2578 131.138ZM57.3954 168.296C57.4172 168.593 57.1875 168.851 56.8824 168.873L49.0533 169.418C48.7482 169.439 48.4832 169.215 48.4614 168.918C48.4396 168.62 48.6693 168.362 48.9744 168.341L56.8035 167.795C57.1086 167.774 57.3736 167.998 57.3954 168.296Z" fill="#318C6E"/>
<path fill-rule="evenodd" clip-rule="evenodd" d="M163.603 69.4429L164.969 70.232C165.25 69.7448 165.594 69.2986 165.998 68.895C166.591 68.3012 167.282 67.8353 168.051 67.5105C168.847 67.1742 169.692 67.0036 170.564 67.0036C171.437 67.0036 172.284 67.1742 173.078 67.5105C173.847 67.8353 174.538 68.3012 175.131 68.895C175.725 69.4888 176.191 70.1795 176.516 70.9488C176.854 71.7428 177.024 72.5892 177.024 73.4619C177.024 74.3346 176.854 75.1811 176.518 75.9751C176.193 76.7444 175.727 77.435 175.133 78.0289C174.539 78.6227 173.849 79.0886 173.079 79.4134C172.284 79.7497 171.439 79.9203 170.566 79.9203C170.003 79.9203 169.447 79.8481 168.909 79.707C168.389 79.5692 167.886 79.3658 167.415 79.1017C166.486 78.5817 165.691 77.832 165.118 76.9331C165.067 76.8527 165.018 76.7723 164.971 76.6903L163.603 77.481C163.662 77.5843 163.724 77.6844 163.786 77.7844C165.215 80.0187 167.717 81.5 170.564 81.5C175.003 81.5 178.603 77.9009 178.603 73.4619C178.603 69.023 175.003 65.4239 170.564 65.4239C167.59 65.4239 164.992 67.0397 163.603 69.4429Z" fill="#EFF2FF"/>
<path d="M175.927 97.317L170.436 102.809L167.444 99.8253L166.269 101L170.436 105.167L177.102 98.5003L175.927 97.317ZM172.102 92.667C167.502 92.667 163.769 96.4003 163.769 101C163.769 105.6 167.502 109.334 172.102 109.334C176.702 109.334 180.436 105.6 180.436 101C180.436 96.4003 176.702 92.667 172.102 92.667ZM172.102 107.667C168.419 107.667 165.436 104.684 165.436 101C165.436 97.317 168.419 94.3337 172.102 94.3337C175.786 94.3337 178.769 97.317 178.769 101C178.769 104.684 175.786 107.667 172.102 107.667Z" fill="#1DB954"/>
<g clip-path="url(#clip0_2037_90650)">
<path d="M172.102 124.834C171.881 124.834 171.669 124.921 171.513 125.078C171.357 125.234 171.269 125.446 171.269 125.667V129C171.269 129.221 171.357 129.433 171.513 129.59C171.669 129.746 171.881 129.834 172.102 129.834C172.323 129.834 172.535 129.746 172.692 129.59C172.848 129.433 172.936 129.221 172.936 129V125.667C172.936 125.446 172.848 125.234 172.692 125.078C172.535 124.921 172.323 124.834 172.102 124.834ZM172.869 132.017C172.851 131.964 172.826 131.913 172.794 131.867L172.694 131.742C172.577 131.626 172.428 131.548 172.266 131.517C172.105 131.486 171.937 131.503 171.786 131.567C171.685 131.609 171.592 131.668 171.511 131.742C171.433 131.82 171.372 131.912 171.331 132.014C171.289 132.115 171.268 132.224 171.269 132.334C171.27 132.443 171.293 132.55 171.336 132.65C171.373 132.754 171.433 132.848 171.511 132.925C171.588 133.003 171.682 133.063 171.786 133.1C171.885 133.144 171.993 133.167 172.102 133.167C172.211 133.167 172.319 133.144 172.419 133.1C172.522 133.063 172.616 133.003 172.694 132.925C172.772 132.848 172.832 132.754 172.869 132.65C172.912 132.55 172.934 132.443 172.936 132.334C172.94 132.278 172.94 132.222 172.936 132.167C172.921 132.114 172.899 132.063 172.869 132.017ZM172.102 120.667C170.454 120.667 168.843 121.156 167.473 122.071C166.102 122.987 165.034 124.289 164.403 125.811C163.773 127.334 163.608 129.01 163.929 130.626C164.251 132.243 165.044 133.727 166.21 134.893C167.375 136.058 168.86 136.852 170.477 137.174C172.093 137.495 173.769 137.33 175.291 136.699C176.814 136.069 178.116 135 179.031 133.63C179.947 132.26 180.436 130.649 180.436 129C180.436 127.906 180.22 126.822 179.801 125.811C179.383 124.8 178.769 123.882 177.995 123.108C177.221 122.334 176.302 121.72 175.291 121.301C174.28 120.883 173.197 120.667 172.102 120.667ZM172.102 135.667C170.784 135.667 169.495 135.276 168.399 134.543C167.302 133.811 166.448 132.77 165.943 131.552C165.439 130.333 165.307 128.993 165.564 127.7C165.821 126.407 166.456 125.219 167.388 124.286C168.321 123.354 169.509 122.719 170.802 122.462C172.095 122.205 173.435 122.337 174.654 122.841C175.872 123.346 176.913 124.2 177.646 125.297C178.378 126.393 178.769 127.682 178.769 129C178.769 130.768 178.067 132.464 176.816 133.714C175.566 134.965 173.87 135.667 172.102 135.667Z" fill="#FA2724"/>
</g>
<path fill-rule="evenodd" clip-rule="evenodd" d="M173.948 155.175C172.848 153.227 170.346 152.707 168.192 154.04C166.929 154.822 166.053 156.076 165.7 157.413L166.608 157.756C166.858 156.548 167.535 155.464 168.552 154.835C170.19 153.821 172.172 154.317 173.321 155.906L171.586 157.925H175.451V153.425L173.948 155.175Z" fill="#F7B228"/>
<path d="M178.603 156C178.603 160.722 174.994 164.5 170.603 164.5C166.211 164.5 162.603 160.722 162.603 156C162.603 151.278 166.211 147.5 170.603 147.5C174.994 147.5 178.603 151.278 178.603 156Z" stroke="#F7B228"/>
<path d="M198.931 69.432V78H205.435V76.416H200.815V74.316H204.967V72.852H200.815V71.016H205.339V69.432H198.931ZM208.116 74.736L205.884 78H207.792L209.088 76.044L210.384 78H212.328L210.036 74.7L212.076 71.796H210.192L209.112 73.416L208.02 71.796H206.076L208.116 74.736ZM217.153 74.232H214.381C214.389 74.112 214.413 73.976 214.453 73.824C214.501 73.672 214.577 73.528 214.681 73.392C214.793 73.256 214.937 73.144 215.113 73.056C215.297 72.96 215.525 72.912 215.797 72.912C216.213 72.912 216.521 73.024 216.721 73.248C216.929 73.472 217.073 73.8 217.153 74.232ZM214.381 75.312H218.857C218.889 74.832 218.849 74.372 218.737 73.932C218.625 73.492 218.441 73.1 218.185 72.756C217.937 72.412 217.617 72.14 217.225 71.94C216.833 71.732 216.373 71.628 215.845 71.628C215.373 71.628 214.941 71.712 214.549 71.88C214.165 72.048 213.833 72.28 213.553 72.576C213.273 72.864 213.057 73.208 212.905 73.608C212.753 74.008 212.677 74.44 212.677 74.904C212.677 75.384 212.749 75.824 212.893 76.224C213.045 76.624 213.257 76.968 213.529 77.256C213.801 77.544 214.133 77.768 214.525 77.928C214.917 78.08 215.357 78.156 215.845 78.156C216.549 78.156 217.149 77.996 217.645 77.676C218.141 77.356 218.509 76.824 218.749 76.08H217.249C217.193 76.272 217.041 76.456 216.793 76.632C216.545 76.8 216.249 76.884 215.905 76.884C215.425 76.884 215.057 76.76 214.801 76.512C214.545 76.264 214.405 75.864 214.381 75.312ZM224.092 73.98H225.76C225.736 73.58 225.64 73.236 225.472 72.948C225.304 72.652 225.084 72.408 224.812 72.216C224.548 72.016 224.244 71.868 223.9 71.772C223.564 71.676 223.212 71.628 222.844 71.628C222.34 71.628 221.892 71.712 221.5 71.88C221.108 72.048 220.776 72.284 220.504 72.588C220.232 72.884 220.024 73.24 219.88 73.656C219.744 74.064 219.676 74.508 219.676 74.988C219.676 75.452 219.752 75.88 219.904 76.272C220.056 76.656 220.268 76.988 220.54 77.268C220.812 77.548 221.14 77.768 221.524 77.928C221.916 78.08 222.344 78.156 222.808 78.156C223.632 78.156 224.308 77.94 224.836 77.508C225.364 77.076 225.684 76.448 225.796 75.624H224.152C224.096 76.008 223.956 76.316 223.732 76.548C223.516 76.772 223.204 76.884 222.796 76.884C222.532 76.884 222.308 76.824 222.124 76.704C221.94 76.584 221.792 76.432 221.68 76.248C221.576 76.056 221.5 75.844 221.452 75.612C221.404 75.38 221.38 75.152 221.38 74.928C221.38 74.696 221.404 74.464 221.452 74.232C221.5 73.992 221.58 73.776 221.692 73.584C221.812 73.384 221.964 73.224 222.148 73.104C222.332 72.976 222.56 72.912 222.832 72.912C223.56 72.912 223.98 73.268 224.092 73.98ZM232.578 78V71.796H230.874V75.048C230.874 75.68 230.77 76.136 230.562 76.416C230.354 76.688 230.018 76.824 229.554 76.824C229.146 76.824 228.862 76.7 228.702 76.452C228.542 76.196 228.462 75.812 228.462 75.3V71.796H226.758V75.612C226.758 75.996 226.79 76.348 226.854 76.668C226.926 76.98 227.046 77.248 227.214 77.472C227.382 77.688 227.61 77.856 227.898 77.976C228.194 78.096 228.57 78.156 229.026 78.156C229.386 78.156 229.738 78.076 230.082 77.916C230.426 77.756 230.706 77.496 230.922 77.136H230.958V78H232.578ZM236.032 71.796V69.936H234.328V71.796H233.296V72.936H234.328V76.596C234.328 76.908 234.38 77.16 234.484 77.352C234.588 77.544 234.728 77.692 234.904 77.796C235.088 77.9 235.296 77.968 235.528 78C235.768 78.04 236.02 78.06 236.284 78.06C236.452 78.06 236.624 78.056 236.8 78.048C236.976 78.04 237.136 78.024 237.28 78V76.68C237.2 76.696 237.116 76.708 237.028 76.716C236.94 76.724 236.848 76.728 236.752 76.728C236.464 76.728 236.272 76.68 236.176 76.584C236.08 76.488 236.032 76.296 236.032 76.008V72.936H237.28V71.796H236.032ZM238.018 73.704C238.042 73.304 238.142 72.972 238.318 72.708C238.494 72.444 238.718 72.232 238.99 72.072C239.262 71.912 239.566 71.8 239.902 71.736C240.246 71.664 240.59 71.628 240.934 71.628C241.246 71.628 241.562 71.652 241.882 71.7C242.202 71.74 242.494 71.824 242.758 71.952C243.022 72.08 243.238 72.26 243.406 72.492C243.574 72.716 243.658 73.016 243.658 73.392V76.62C243.658 76.9 243.674 77.168 243.706 77.424C243.738 77.68 243.794 77.872 243.874 78H242.146C242.114 77.904 242.086 77.808 242.062 77.712C242.046 77.608 242.034 77.504 242.026 77.4C241.754 77.68 241.434 77.876 241.066 77.988C240.698 78.1 240.322 78.156 239.938 78.156C239.642 78.156 239.366 78.12 239.11 78.048C238.854 77.976 238.63 77.864 238.438 77.712C238.246 77.56 238.094 77.368 237.982 77.136C237.878 76.904 237.826 76.628 237.826 76.308C237.826 75.956 237.886 75.668 238.006 75.444C238.134 75.212 238.294 75.028 238.486 74.892C238.686 74.756 238.91 74.656 239.158 74.592C239.414 74.52 239.67 74.464 239.926 74.424C240.182 74.384 240.434 74.352 240.682 74.328C240.93 74.304 241.15 74.268 241.342 74.22C241.534 74.172 241.686 74.104 241.798 74.016C241.91 73.92 241.962 73.784 241.954 73.608C241.954 73.424 241.922 73.28 241.858 73.176C241.802 73.064 241.722 72.98 241.618 72.924C241.522 72.86 241.406 72.82 241.27 72.804C241.142 72.78 241.002 72.768 240.85 72.768C240.514 72.768 240.25 72.84 240.058 72.984C239.866 73.128 239.754 73.368 239.722 73.704H238.018ZM241.954 74.964C241.882 75.028 241.79 75.08 241.678 75.12C241.574 75.152 241.458 75.18 241.33 75.204C241.21 75.228 241.082 75.248 240.946 75.264C240.81 75.28 240.674 75.3 240.538 75.324C240.41 75.348 240.282 75.38 240.154 75.42C240.034 75.46 239.926 75.516 239.83 75.588C239.742 75.652 239.67 75.736 239.614 75.84C239.558 75.944 239.53 76.076 239.53 76.236C239.53 76.388 239.558 76.516 239.614 76.62C239.67 76.724 239.746 76.808 239.842 76.872C239.938 76.928 240.05 76.968 240.178 76.992C240.306 77.016 240.438 77.028 240.574 77.028C240.91 77.028 241.17 76.972 241.354 76.86C241.538 76.748 241.674 76.616 241.762 76.464C241.85 76.304 241.902 76.144 241.918 75.984C241.942 75.824 241.954 75.696 241.954 75.6V74.964ZM244.981 71.796V78H246.685V74.748C246.685 74.116 246.789 73.664 246.997 73.392C247.205 73.112 247.541 72.972 248.005 72.972C248.413 72.972 248.697 73.1 248.857 73.356C249.017 73.604 249.097 73.984 249.097 74.496V78H250.801V74.184C250.801 73.8 250.765 73.452 250.693 73.14C250.629 72.82 250.513 72.552 250.345 72.336C250.177 72.112 249.945 71.94 249.649 71.82C249.361 71.692 248.989 71.628 248.533 71.628C248.173 71.628 247.821 71.712 247.477 71.88C247.133 72.04 246.853 72.3 246.637 72.66H246.601V71.796H244.981ZM256.498 74.88C256.498 75.136 256.474 75.384 256.426 75.624C256.378 75.864 256.298 76.08 256.186 76.272C256.074 76.456 255.922 76.604 255.73 76.716C255.546 76.828 255.314 76.884 255.034 76.884C254.77 76.884 254.542 76.828 254.35 76.716C254.166 76.596 254.01 76.444 253.882 76.26C253.762 76.068 253.674 75.852 253.618 75.612C253.562 75.372 253.534 75.132 253.534 74.892C253.534 74.636 253.558 74.392 253.606 74.16C253.662 73.92 253.746 73.708 253.858 73.524C253.978 73.34 254.134 73.192 254.326 73.08C254.518 72.968 254.754 72.912 255.034 72.912C255.314 72.912 255.546 72.968 255.73 73.08C255.914 73.192 256.062 73.34 256.174 73.524C256.294 73.7 256.378 73.908 256.426 74.148C256.474 74.38 256.498 74.624 256.498 74.88ZM256.522 77.208V78H258.142V69.432H256.438V72.552H256.414C256.222 72.248 255.958 72.02 255.622 71.868C255.294 71.708 254.946 71.628 254.578 71.628C254.122 71.628 253.722 71.72 253.378 71.904C253.034 72.08 252.746 72.316 252.514 72.612C252.29 72.908 252.118 73.252 251.998 73.644C251.886 74.028 251.83 74.428 251.83 74.844C251.83 75.276 251.886 75.692 251.998 76.092C252.118 76.492 252.29 76.848 252.514 77.16C252.746 77.464 253.038 77.708 253.39 77.892C253.742 78.068 254.15 78.156 254.614 78.156C255.022 78.156 255.386 78.084 255.706 77.94C256.034 77.788 256.298 77.544 256.498 77.208H256.522ZM260.942 74.904C260.942 74.656 260.966 74.412 261.014 74.172C261.062 73.932 261.142 73.72 261.254 73.536C261.374 73.352 261.53 73.204 261.722 73.092C261.914 72.972 262.154 72.912 262.442 72.912C262.73 72.912 262.97 72.972 263.162 73.092C263.362 73.204 263.518 73.352 263.63 73.536C263.75 73.72 263.834 73.932 263.882 74.172C263.93 74.412 263.954 74.656 263.954 74.904C263.954 75.152 263.93 75.396 263.882 75.636C263.834 75.868 263.75 76.08 263.63 76.272C263.518 76.456 263.362 76.604 263.162 76.716C262.97 76.828 262.73 76.884 262.442 76.884C262.154 76.884 261.914 76.828 261.722 76.716C261.53 76.604 261.374 76.456 261.254 76.272C261.142 76.08 261.062 75.868 261.014 75.636C260.966 75.396 260.942 75.152 260.942 74.904ZM259.238 74.904C259.238 75.4 259.314 75.848 259.466 76.248C259.618 76.648 259.834 76.992 260.114 77.28C260.394 77.56 260.73 77.776 261.122 77.928C261.514 78.08 261.954 78.156 262.442 78.156C262.93 78.156 263.37 78.08 263.762 77.928C264.162 77.776 264.502 77.56 264.782 77.28C265.062 76.992 265.278 76.648 265.43 76.248C265.582 75.848 265.658 75.4 265.658 74.904C265.658 74.408 265.582 73.96 265.43 73.56C265.278 73.152 265.062 72.808 264.782 72.528C264.502 72.24 264.162 72.02 263.762 71.868C263.37 71.708 262.93 71.628 262.442 71.628C261.954 71.628 261.514 71.708 261.122 71.868C260.73 72.02 260.394 72.24 260.114 72.528C259.834 72.808 259.618 73.152 259.466 73.56C259.314 73.96 259.238 74.408 259.238 74.904Z" fill="white"/>
<path d="M200.215 103.156H198.391C198.383 103.684 198.479 104.14 198.679 104.524C198.879 104.908 199.147 105.224 199.483 105.472C199.827 105.72 200.219 105.9 200.659 106.012C201.107 106.132 201.567 106.192 202.039 106.192C202.623 106.192 203.135 106.124 203.575 105.988C204.023 105.852 204.395 105.664 204.691 105.424C204.995 105.176 205.223 104.884 205.375 104.548C205.527 104.212 205.603 103.848 205.603 103.456C205.603 102.976 205.499 102.584 205.291 102.28C205.091 101.968 204.851 101.72 204.571 101.536C204.291 101.352 204.007 101.22 203.719 101.14C203.439 101.052 203.219 100.992 203.059 100.96C202.523 100.824 202.087 100.712 201.751 100.624C201.423 100.536 201.163 100.448 200.971 100.36C200.787 100.272 200.663 100.176 200.599 100.072C200.535 99.968 200.503 99.832 200.503 99.664C200.503 99.48 200.543 99.328 200.623 99.208C200.703 99.088 200.803 98.988 200.923 98.908C201.051 98.828 201.191 98.772 201.343 98.74C201.495 98.708 201.647 98.692 201.799 98.692C202.031 98.692 202.243 98.712 202.435 98.752C202.635 98.792 202.811 98.86 202.963 98.956C203.115 99.052 203.235 99.184 203.323 99.352C203.419 99.52 203.475 99.732 203.491 99.988H205.315C205.315 99.492 205.219 99.072 205.027 98.728C204.843 98.376 204.591 98.088 204.271 97.864C203.951 97.64 203.583 97.48 203.167 97.384C202.759 97.28 202.331 97.228 201.883 97.228C201.499 97.228 201.115 97.28 200.731 97.384C200.347 97.488 200.003 97.648 199.699 97.864C199.395 98.08 199.147 98.352 198.955 98.68C198.771 99 198.679 99.38 198.679 99.82C198.679 100.212 198.751 100.548 198.895 100.828C199.047 101.1 199.243 101.328 199.483 101.512C199.723 101.696 199.995 101.848 200.299 101.968C200.603 102.08 200.915 102.176 201.235 102.256C201.547 102.344 201.855 102.424 202.159 102.496C202.463 102.568 202.735 102.652 202.975 102.748C203.215 102.844 203.407 102.964 203.551 103.108C203.703 103.252 203.779 103.44 203.779 103.672C203.779 103.888 203.723 104.068 203.611 104.212C203.499 104.348 203.359 104.456 203.191 104.536C203.023 104.616 202.843 104.672 202.651 104.704C202.459 104.728 202.279 104.74 202.111 104.74C201.863 104.74 201.623 104.712 201.391 104.656C201.159 104.592 200.955 104.5 200.779 104.38C200.611 104.252 200.475 104.088 200.371 103.888C200.267 103.688 200.215 103.444 200.215 103.156ZM212.364 106V99.796H210.66V103.048C210.66 103.68 210.556 104.136 210.348 104.416C210.14 104.688 209.804 104.824 209.34 104.824C208.932 104.824 208.648 104.7 208.488 104.452C208.328 104.196 208.248 103.812 208.248 103.3V99.796H206.544V103.612C206.544 103.996 206.576 104.348 206.64 104.668C206.712 104.98 206.832 105.248 207 105.472C207.168 105.688 207.396 105.856 207.684 105.976C207.98 106.096 208.356 106.156 208.812 106.156C209.172 106.156 209.524 106.076 209.868 105.916C210.212 105.756 210.492 105.496 210.708 105.136H210.744V106H212.364ZM217.881 101.98H219.549C219.525 101.58 219.429 101.236 219.261 100.948C219.093 100.652 218.873 100.408 218.601 100.216C218.337 100.016 218.033 99.868 217.689 99.772C217.353 99.676 217.001 99.628 216.633 99.628C216.129 99.628 215.681 99.712 215.289 99.88C214.897 100.048 214.565 100.284 214.293 100.588C214.021 100.884 213.813 101.24 213.669 101.656C213.533 102.064 213.465 102.508 213.465 102.988C213.465 103.452 213.541 103.88 213.693 104.272C213.845 104.656 214.057 104.988 214.329 105.268C214.601 105.548 214.929 105.768 215.313 105.928C215.705 106.08 216.133 106.156 216.597 106.156C217.421 106.156 218.097 105.94 218.625 105.508C219.153 105.076 219.473 104.448 219.585 103.624H217.941C217.885 104.008 217.745 104.316 217.521 104.548C217.305 104.772 216.993 104.884 216.585 104.884C216.321 104.884 216.097 104.824 215.913 104.704C215.729 104.584 215.581 104.432 215.469 104.248C215.365 104.056 215.289 103.844 215.241 103.612C215.193 103.38 215.169 103.152 215.169 102.928C215.169 102.696 215.193 102.464 215.241 102.232C215.289 101.992 215.369 101.776 215.481 101.584C215.601 101.384 215.753 101.224 215.937 101.104C216.121 100.976 216.349 100.912 216.621 100.912C217.349 100.912 217.769 101.268 217.881 101.98ZM224.723 102.232H221.951C221.959 102.112 221.983 101.976 222.023 101.824C222.071 101.672 222.147 101.528 222.251 101.392C222.363 101.256 222.507 101.144 222.683 101.056C222.867 100.96 223.095 100.912 223.367 100.912C223.783 100.912 224.091 101.024 224.291 101.248C224.499 101.472 224.643 101.8 224.723 102.232ZM221.951 103.312H226.427C226.459 102.832 226.419 102.372 226.307 101.932C226.195 101.492 226.011 101.1 225.755 100.756C225.507 100.412 225.187 100.14 224.795 99.94C224.403 99.732 223.943 99.628 223.415 99.628C222.943 99.628 222.511 99.712 222.119 99.88C221.735 100.048 221.403 100.28 221.123 100.576C220.843 100.864 220.627 101.208 220.475 101.608C220.323 102.008 220.247 102.44 220.247 102.904C220.247 103.384 220.319 103.824 220.463 104.224C220.615 104.624 220.827 104.968 221.099 105.256C221.371 105.544 221.703 105.768 222.095 105.928C222.487 106.08 222.927 106.156 223.415 106.156C224.119 106.156 224.719 105.996 225.215 105.676C225.711 105.356 226.079 104.824 226.319 104.08H224.819C224.763 104.272 224.611 104.456 224.363 104.632C224.115 104.8 223.819 104.884 223.475 104.884C222.995 104.884 222.627 104.76 222.371 104.512C222.115 104.264 221.975 103.864 221.951 103.312ZM228.758 103.984H227.138C227.154 104.4 227.246 104.748 227.414 105.028C227.59 105.3 227.81 105.52 228.074 105.688C228.346 105.856 228.654 105.976 228.998 106.048C229.342 106.12 229.694 106.156 230.054 106.156C230.406 106.156 230.75 106.12 231.086 106.048C231.43 105.984 231.734 105.868 231.998 105.7C232.262 105.532 232.474 105.312 232.634 105.04C232.802 104.76 232.886 104.416 232.886 104.008C232.886 103.72 232.83 103.48 232.718 103.288C232.606 103.088 232.458 102.924 232.274 102.796C232.09 102.66 231.878 102.552 231.638 102.472C231.406 102.392 231.166 102.324 230.918 102.268C230.678 102.212 230.442 102.16 230.21 102.112C229.978 102.064 229.77 102.012 229.586 101.956C229.41 101.892 229.266 101.812 229.154 101.716C229.042 101.62 228.986 101.496 228.986 101.344C228.986 101.216 229.018 101.116 229.082 101.044C229.146 100.964 229.222 100.904 229.31 100.864C229.406 100.824 229.51 100.8 229.622 100.792C229.734 100.776 229.838 100.768 229.934 100.768C230.238 100.768 230.502 100.828 230.726 100.948C230.95 101.06 231.074 101.28 231.098 101.608H232.718C232.686 101.224 232.586 100.908 232.418 100.66C232.258 100.404 232.054 100.2 231.806 100.048C231.558 99.896 231.274 99.788 230.954 99.724C230.642 99.66 230.318 99.628 229.982 99.628C229.646 99.628 229.318 99.66 228.998 99.724C228.678 99.78 228.39 99.884 228.134 100.036C227.878 100.18 227.67 100.38 227.51 100.636C227.358 100.892 227.282 101.22 227.282 101.62C227.282 101.892 227.338 102.124 227.45 102.316C227.562 102.5 227.71 102.656 227.894 102.784C228.078 102.904 228.286 103.004 228.518 103.084C228.758 103.156 229.002 103.22 229.25 103.276C229.858 103.404 230.33 103.532 230.666 103.66C231.01 103.788 231.182 103.98 231.182 104.236C231.182 104.388 231.146 104.516 231.074 104.62C231.002 104.716 230.91 104.796 230.798 104.86C230.694 104.916 230.574 104.96 230.438 104.992C230.31 105.016 230.186 105.028 230.066 105.028C229.898 105.028 229.734 105.008 229.574 104.968C229.422 104.928 229.286 104.868 229.166 104.788C229.046 104.7 228.946 104.592 228.866 104.464C228.794 104.328 228.758 104.168 228.758 103.984ZM235.203 103.984H233.583C233.599 104.4 233.691 104.748 233.859 105.028C234.035 105.3 234.255 105.52 234.519 105.688C234.791 105.856 235.099 105.976 235.443 106.048C235.787 106.12 236.139 106.156 236.499 106.156C236.851 106.156 237.195 106.12 237.531 106.048C237.875 105.984 238.179 105.868 238.443 105.7C238.707 105.532 238.919 105.312 239.079 105.04C239.247 104.76 239.331 104.416 239.331 104.008C239.331 103.72 239.275 103.48 239.163 103.288C239.051 103.088 238.903 102.924 238.719 102.796C238.535 102.66 238.323 102.552 238.083 102.472C237.851 102.392 237.611 102.324 237.363 102.268C237.123 102.212 236.887 102.16 236.655 102.112C236.423 102.064 236.215 102.012 236.031 101.956C235.855 101.892 235.711 101.812 235.599 101.716C235.487 101.62 235.431 101.496 235.431 101.344C235.431 101.216 235.463 101.116 235.527 101.044C235.591 100.964 235.667 100.904 235.755 100.864C235.851 100.824 235.955 100.8 236.067 100.792C236.179 100.776 236.283 100.768 236.379 100.768C236.683 100.768 236.947 100.828 237.171 100.948C237.395 101.06 237.519 101.28 237.543 101.608H239.163C239.131 101.224 239.031 100.908 238.863 100.66C238.703 100.404 238.499 100.2 238.251 100.048C238.003 99.896 237.719 99.788 237.399 99.724C237.087 99.66 236.763 99.628 236.427 99.628C236.091 99.628 235.763 99.66 235.443 99.724C235.123 99.78 234.835 99.884 234.579 100.036C234.323 100.18 234.115 100.38 233.955 100.636C233.803 100.892 233.727 101.22 233.727 101.62C233.727 101.892 233.783 102.124 233.895 102.316C234.007 102.5 234.155 102.656 234.339 102.784C234.523 102.904 234.731 103.004 234.963 103.084C235.203 103.156 235.447 103.22 235.695 103.276C236.303 103.404 236.775 103.532 237.111 103.66C237.455 103.788 237.627 103.98 237.627 104.236C237.627 104.388 237.591 104.516 237.519 104.62C237.447 104.716 237.355 104.796 237.243 104.86C237.139 104.916 237.019 104.96 236.883 104.992C236.755 105.016 236.631 105.028 236.511 105.028C236.343 105.028 236.179 105.008 236.019 104.968C235.867 104.928 235.731 104.868 235.611 104.788C235.491 104.7 235.391 104.592 235.311 104.464C235.239 104.328 235.203 104.168 235.203 103.984ZM241.841 102.904C241.841 102.656 241.865 102.412 241.913 102.172C241.961 101.932 242.041 101.72 242.153 101.536C242.273 101.352 242.429 101.204 242.621 101.092C242.813 100.972 243.053 100.912 243.341 100.912C243.629 100.912 243.869 100.972 244.061 101.092C244.261 101.204 244.417 101.352 244.529 101.536C244.649 101.72 244.733 101.932 244.781 102.172C244.829 102.412 244.853 102.656 244.853 102.904C244.853 103.152 244.829 103.396 244.781 103.636C244.733 103.868 244.649 104.08 244.529 104.272C244.417 104.456 244.261 104.604 244.061 104.716C243.869 104.828 243.629 104.884 243.341 104.884C243.053 104.884 242.813 104.828 242.621 104.716C242.429 104.604 242.273 104.456 242.153 104.272C242.041 104.08 241.961 103.868 241.913 103.636C241.865 103.396 241.841 103.152 241.841 102.904ZM240.137 102.904C240.137 103.4 240.213 103.848 240.365 104.248C240.517 104.648 240.733 104.992 241.013 105.28C241.293 105.56 241.629 105.776 242.021 105.928C242.413 106.08 242.853 106.156 243.341 106.156C243.829 106.156 244.269 106.08 244.661 105.928C245.061 105.776 245.401 105.56 245.681 105.28C245.961 104.992 246.177 104.648 246.329 104.248C246.481 103.848 246.557 103.4 246.557 102.904C246.557 102.408 246.481 101.96 246.329 101.56C246.177 101.152 245.961 100.808 245.681 100.528C245.401 100.24 245.061 100.02 244.661 99.868C244.269 99.708 243.829 99.628 243.341 99.628C242.853 99.628 242.413 99.708 242.021 99.868C241.629 100.02 241.293 100.24 241.013 100.528C240.733 100.808 240.517 101.152 240.365 101.56C240.213 101.96 240.137 102.408 240.137 102.904Z" fill="white"/>
<path d="M198.931 125.432V134H205.435V132.416H200.815V130.316H204.967V128.852H200.815V127.016H205.339V125.432H198.931ZM206.532 127.796V134H208.236V131.204C208.236 130.924 208.264 130.664 208.32 130.424C208.376 130.184 208.468 129.976 208.596 129.8C208.732 129.616 208.908 129.472 209.124 129.368C209.34 129.264 209.604 129.212 209.916 129.212C210.02 129.212 210.128 129.22 210.24 129.236C210.352 129.244 210.448 129.256 210.528 129.272V127.688C210.392 127.648 210.268 127.628 210.156 127.628C209.94 127.628 209.732 127.66 209.532 127.724C209.332 127.788 209.144 127.88 208.968 128C208.792 128.112 208.636 128.252 208.5 128.42C208.364 128.58 208.256 128.756 208.176 128.948H208.152V127.796H206.532ZM211.196 127.796V134H212.9V131.204C212.9 130.924 212.928 130.664 212.984 130.424C213.04 130.184 213.132 129.976 213.26 129.8C213.396 129.616 213.572 129.472 213.788 129.368C214.004 129.264 214.268 129.212 214.58 129.212C214.684 129.212 214.792 129.22 214.904 129.236C215.016 129.244 215.112 129.256 215.192 129.272V127.688C215.056 127.648 214.932 127.628 214.82 127.628C214.604 127.628 214.396 127.66 214.196 127.724C213.996 127.788 213.808 127.88 213.632 128C213.456 128.112 213.3 128.252 213.164 128.42C213.028 128.58 212.92 128.756 212.84 128.948H212.816V127.796H211.196ZM217.161 130.904C217.161 130.656 217.185 130.412 217.233 130.172C217.281 129.932 217.361 129.72 217.473 129.536C217.593 129.352 217.749 129.204 217.941 129.092C218.133 128.972 218.373 128.912 218.661 128.912C218.949 128.912 219.189 128.972 219.381 129.092C219.581 129.204 219.737 129.352 219.849 129.536C219.969 129.72 220.053 129.932 220.101 130.172C220.149 130.412 220.173 130.656 220.173 130.904C220.173 131.152 220.149 131.396 220.101 131.636C220.053 131.868 219.969 132.08 219.849 132.272C219.737 132.456 219.581 132.604 219.381 132.716C219.189 132.828 218.949 132.884 218.661 132.884C218.373 132.884 218.133 132.828 217.941 132.716C217.749 132.604 217.593 132.456 217.473 132.272C217.361 132.08 217.281 131.868 217.233 131.636C217.185 131.396 217.161 131.152 217.161 130.904ZM215.457 130.904C215.457 131.4 215.533 131.848 215.685 132.248C215.837 132.648 216.053 132.992 216.333 133.28C216.613 133.56 216.949 133.776 217.341 133.928C217.733 134.08 218.173 134.156 218.661 134.156C219.149 134.156 219.589 134.08 219.981 133.928C220.381 133.776 220.721 133.56 221.001 133.28C221.281 132.992 221.497 132.648 221.649 132.248C221.801 131.848 221.877 131.4 221.877 130.904C221.877 130.408 221.801 129.96 221.649 129.56C221.497 129.152 221.281 128.808 221.001 128.528C220.721 128.24 220.381 128.02 219.981 127.868C219.589 127.708 219.149 127.628 218.661 127.628C218.173 127.628 217.733 127.708 217.341 127.868C216.949 128.02 216.613 128.24 216.333 128.528C216.053 128.808 215.837 129.152 215.685 129.56C215.533 129.96 215.457 130.408 215.457 130.904Z" fill="white"/>
<path d="M200.815 157.464V154.896H202.279C202.495 154.896 202.703 154.912 202.903 154.944C203.103 154.976 203.279 155.04 203.431 155.136C203.583 155.224 203.703 155.352 203.791 155.52C203.887 155.688 203.935 155.908 203.935 156.18C203.935 156.452 203.887 156.672 203.791 156.84C203.703 157.008 203.583 157.14 203.431 157.236C203.279 157.324 203.103 157.384 202.903 157.416C202.703 157.448 202.495 157.464 202.279 157.464H200.815ZM198.931 153.432V162H200.815V158.928H202.795C203.331 158.928 203.787 158.852 204.163 158.7C204.539 158.54 204.843 158.332 205.075 158.076C205.315 157.82 205.487 157.528 205.591 157.2C205.703 156.864 205.759 156.524 205.759 156.18C205.759 155.828 205.703 155.488 205.591 155.16C205.487 154.832 205.315 154.54 205.075 154.284C204.843 154.028 204.539 153.824 204.163 153.672C203.787 153.512 203.331 153.432 202.795 153.432H198.931ZM212.574 162V155.796H210.87V159.048C210.87 159.68 210.766 160.136 210.558 160.416C210.35 160.688 210.014 160.824 209.55 160.824C209.142 160.824 208.858 160.7 208.698 160.452C208.538 160.196 208.458 159.812 208.458 159.3V155.796H206.754V159.612C206.754 159.996 206.786 160.348 206.85 160.668C206.922 160.98 207.042 161.248 207.21 161.472C207.378 161.688 207.606 161.856 207.894 161.976C208.19 162.096 208.566 162.156 209.022 162.156C209.382 162.156 209.734 162.076 210.078 161.916C210.422 161.756 210.702 161.496 210.918 161.136H210.954V162H212.574ZM213.916 153.432V162H215.62V153.432H213.916ZM218.473 158.904C218.473 158.656 218.497 158.412 218.545 158.172C218.593 157.932 218.673 157.72 218.785 157.536C218.905 157.352 219.061 157.204 219.253 157.092C219.445 156.972 219.685 156.912 219.973 156.912C220.261 156.912 220.501 156.972 220.693 157.092C220.893 157.204 221.049 157.352 221.161 157.536C221.281 157.72 221.365 157.932 221.413 158.172C221.461 158.412 221.485 158.656 221.485 158.904C221.485 159.152 221.461 159.396 221.413 159.636C221.365 159.868 221.281 160.08 221.161 160.272C221.049 160.456 220.893 160.604 220.693 160.716C220.501 160.828 220.261 160.884 219.973 160.884C219.685 160.884 219.445 160.828 219.253 160.716C219.061 160.604 218.905 160.456 218.785 160.272C218.673 160.08 218.593 159.868 218.545 159.636C218.497 159.396 218.473 159.152 218.473 158.904ZM216.769 158.904C216.769 159.4 216.845 159.848 216.997 160.248C217.149 160.648 217.365 160.992 217.645 161.28C217.925 161.56 218.261 161.776 218.653 161.928C219.045 162.08 219.485 162.156 219.973 162.156C220.461 162.156 220.901 162.08 221.293 161.928C221.693 161.776 222.033 161.56 222.313 161.28C222.593 160.992 222.809 160.648 222.961 160.248C223.113 159.848 223.189 159.4 223.189 158.904C223.189 158.408 223.113 157.96 222.961 157.56C222.809 157.152 222.593 156.808 222.313 156.528C222.033 156.24 221.693 156.02 221.293 155.868C220.901 155.708 220.461 155.628 219.973 155.628C219.485 155.628 219.045 155.708 218.653 155.868C218.261 156.02 217.925 156.24 217.645 156.528C217.365 156.808 217.149 157.152 216.997 157.56C216.845 157.96 216.769 158.408 216.769 158.904ZM230.117 162V155.796H228.413V159.048C228.413 159.68 228.309 160.136 228.101 160.416C227.893 160.688 227.557 160.824 227.093 160.824C226.685 160.824 226.401 160.7 226.241 160.452C226.081 160.196 226.001 159.812 226.001 159.3V155.796H224.297V159.612C224.297 159.996 224.329 160.348 224.393 160.668C224.465 160.98 224.585 161.248 224.753 161.472C224.921 161.688 225.149 161.856 225.437 161.976C225.733 162.096 226.109 162.156 226.565 162.156C226.925 162.156 227.277 162.076 227.621 161.916C227.965 161.756 228.245 161.496 228.461 161.136H228.497V162H230.117Z" fill="white"/>
<defs>
<clipPath id="clip0_2037_90650">
<rect width="20" height="20" fill="white" transform="translate(162.103 119)"/>
</clipPath>
</defs>
</svg>
