<svg width="144" height="144" viewBox="0 0 144 144" fill="none" xmlns="http://www.w3.org/2000/svg">
<path fill-rule="evenodd" clip-rule="evenodd" d="M22.4432 60.5943C21.769 56.9572 24.1708 53.4622 27.8079 52.788L61.5585 46.5315C65.1955 45.8572 68.6905 48.2591 69.3647 51.8962C70.039 55.5332 67.6371 59.0282 64 59.7024L30.2495 65.959C26.6124 66.6332 23.1174 64.2313 22.4432 60.5943Z" fill="#FFC0A5"/>
<path fill-rule="evenodd" clip-rule="evenodd" d="M21.6202 60.7475C20.8617 56.6558 23.5638 52.724 27.6555 51.9655L54.5255 46.9844L57.2723 61.8018L30.4023 66.7828C26.3106 67.5413 22.3787 64.8392 21.6202 60.7475Z" fill="#318C6E"/>
<path fill-rule="evenodd" clip-rule="evenodd" d="M36.7206 58.4297C41.3602 55.8988 47.1464 57.6574 49.6446 62.3575C51.3909 65.6429 54.1571 72.0914 56.4454 78.2373C57.6099 81.365 58.7239 84.6088 59.5615 87.5159C60.3001 90.0796 61.1557 93.4594 61.1557 96.357C61.1557 99.0078 60.4923 102.179 59.8866 104.698C59.2129 107.501 58.3211 110.624 57.4116 113.605C55.5889 119.579 53.5639 125.408 52.6996 127.816C50.8988 132.833 45.4245 135.421 40.4724 133.597C35.5203 131.773 32.9656 126.227 34.7664 121.21C35.5614 118.995 37.4772 113.479 39.1806 107.896C40.0341 105.099 40.8016 102.391 41.3464 100.124C41.6188 98.991 41.8156 98.0501 41.9399 97.3147C42.0328 96.7648 42.0612 96.467 42.0699 96.3689C42.0668 96.3567 42.0614 96.3257 42.0526 96.2749C41.9987 95.9656 41.8173 94.9229 41.2438 92.9322C40.5906 90.6651 39.6564 87.9204 38.5912 85.0597C36.4201 79.2286 34.0009 73.7001 32.8434 71.5224C30.3452 66.8223 32.0811 60.9605 36.7206 58.4297Z" fill="#4D4D4D"/>
<path fill-rule="evenodd" clip-rule="evenodd" d="M32.2659 144C32.2659 144 32.2659 135.209 32.8154 127.864C33.0058 125.319 34.4857 125.525 36.4902 125.526L53.1938 126.194C54.9461 126.528 54.9461 128.532 54.9461 130.203C54.9461 130.871 54.9461 132.207 54.9461 133.479C54.9461 133.479 62.4054 133.535 61.1496 144L32.2659 144Z" fill="#D43E51"/>
<path fill-rule="evenodd" clip-rule="evenodd" d="M40.1152 125.581C40.1152 125.119 40.4901 124.744 40.9524 124.744H45.1385C45.6009 124.744 45.9757 125.119 45.9757 125.581C45.9757 126.044 45.6009 126.419 45.1385 126.419H40.9524C40.4901 126.419 40.1152 126.044 40.1152 125.581Z" fill="white"/>
<path d="M32.2659 141.365L32.266 144L61.1497 144C61.1497 144 61.3263 142.281 61.3263 141.365L32.2659 141.365Z" fill="#E6E6E6"/>
<path fill-rule="evenodd" clip-rule="evenodd" d="M51.2275 126.693C51.6894 126.714 52.0468 127.106 52.0258 127.568L51.7143 134.421C52.2831 134.758 53.0715 135.201 53.9552 135.698C54.5859 136.053 55.2651 136.435 55.9478 136.825C56.9836 137.417 57.5778 138.048 57.8536 138.788C58.0665 139.359 58.0527 139.951 58.0433 140.355C58.0416 140.43 58.04 140.498 58.04 140.558C58.04 141.021 57.6652 141.396 57.2028 141.396C56.7404 141.396 56.3656 141.021 56.3656 140.558C56.3656 140.432 56.367 140.32 56.3684 140.22C56.3734 139.835 56.3763 139.618 56.2847 139.373C56.193 139.127 55.952 138.756 55.117 138.279C54.4738 137.911 53.8164 137.541 53.1946 137.192C52.0372 136.54 51.0029 135.959 50.4117 135.589C50.1554 135.429 50.0053 135.143 50.0191 134.841L50.3531 127.492C50.3741 127.03 50.7656 126.672 51.2275 126.693Z" fill="#FF6363"/>
<path fill-rule="evenodd" clip-rule="evenodd" d="M56.4438 133.191C56.7118 133.308 56.8495 133.621 56.7513 133.888L55.205 138.109C55.1069 138.377 54.81 138.5 54.542 138.382L53.5715 137.958C53.3035 137.84 53.1658 137.528 53.264 137.26L54.8103 133.039C54.9084 132.771 55.2053 132.649 55.4733 132.766L56.4438 133.191Z" fill="#CCCCCC"/>
<path fill-rule="evenodd" clip-rule="evenodd" d="M58.908 134.087C59.176 134.205 59.3137 134.517 59.2155 134.785L57.6693 139.006C57.5711 139.274 57.2743 139.396 57.0063 139.279L56.0358 138.854C55.7678 138.737 55.6301 138.424 55.7282 138.157L57.2745 133.936C57.3727 133.668 57.6695 133.545 57.9375 133.663L58.908 134.087Z" fill="#CCCCCC"/>
<path fill-rule="evenodd" clip-rule="evenodd" d="M26.7173 54.0357C32.0197 53.5858 36.6325 57.4415 37.0202 62.6478L42.3268 129.786C42.4566 131.502 41.4119 133.108 39.724 133.591C37.8879 134.116 35.3933 134.711 32.9765 134.911C30.5809 135.109 28.0921 134.944 26.2445 134.737C24.5158 134.544 23.2555 133.141 23.1264 131.435L17.8183 64.2771C17.4306 59.0708 21.4148 54.4856 26.7173 54.0357Z" fill="#4D4D4D"/>
<path fill-rule="evenodd" clip-rule="evenodd" d="M42.3267 128.151C41.8763 128.186 41.4822 127.85 41.4466 127.399L39.5949 103.972C39.5593 103.521 39.8956 103.127 40.346 103.091C40.7965 103.056 41.1905 103.392 41.2261 103.843L43.0779 127.271C43.1135 127.721 42.7772 128.115 42.3267 128.151Z" fill="#808080"/>
<path fill-rule="evenodd" clip-rule="evenodd" d="M22.5873 66.275C23.0078 66.2392 23.3752 66.5828 23.408 67.0427L27.608 125.918C27.6408 126.378 27.3265 126.779 26.9061 126.815C26.4856 126.851 26.1182 126.508 26.0854 126.048L21.8854 67.1726C21.8526 66.7127 22.1669 66.3109 22.5873 66.275Z" fill="#808080"/>
<path fill-rule="evenodd" clip-rule="evenodd" d="M20.8594 144C20.8594 144 20.8594 135.209 21.4089 127.864C21.5993 125.319 23.0792 125.525 25.0837 125.526L41.7873 126.194C43.5396 126.528 43.5396 128.532 43.5396 130.203C43.5396 130.871 43.5396 132.207 43.5396 133.479C43.5396 133.479 50.9989 133.535 49.7431 144L20.8594 144Z" fill="#FF6363"/>
<path fill-rule="evenodd" clip-rule="evenodd" d="M25.0457 125.581C25.0457 125.119 25.4205 124.744 25.8829 124.744H30.0689C30.5313 124.744 30.9061 125.119 30.9061 125.581C30.9061 126.044 30.5313 126.419 30.0689 126.419H25.8829C25.4205 126.419 25.0457 126.044 25.0457 125.581Z" fill="white"/>
<path d="M20.8594 141.365L20.8595 144L49.7432 144C49.7432 144 49.9198 142.281 49.9198 141.365L20.8594 141.365Z" fill="#E6E6E6"/>
<path fill-rule="evenodd" clip-rule="evenodd" d="M39.8209 126.693C40.2828 126.714 40.6402 127.106 40.6192 127.568L40.3077 134.421C40.8765 134.758 41.6648 135.201 42.5486 135.698C43.1793 136.053 43.8585 136.435 44.5412 136.825C45.577 137.417 46.1712 138.048 46.447 138.788C46.6599 139.359 46.6461 139.951 46.6367 140.355C46.635 140.43 46.6334 140.498 46.6334 140.558C46.6334 141.021 46.2585 141.396 45.7962 141.396C45.3338 141.396 44.959 141.021 44.959 140.558C44.959 140.432 44.9604 140.32 44.9617 140.22C44.9668 139.835 44.9697 139.618 44.8781 139.373C44.7864 139.127 44.5454 138.756 43.7104 138.279C43.0672 137.911 42.4098 137.541 41.7879 137.192C40.6306 136.54 39.5962 135.959 39.0051 135.589C38.7488 135.429 38.5987 135.143 38.6124 134.841L38.9465 127.492C38.9675 127.03 39.359 126.672 39.8209 126.693Z" fill="#D43E51"/>
<path fill-rule="evenodd" clip-rule="evenodd" d="M45.0373 133.191C45.3053 133.308 45.443 133.621 45.3448 133.888L43.7985 138.109C43.7004 138.377 43.4035 138.5 43.1355 138.382L42.165 137.958C41.897 137.84 41.7593 137.528 41.8575 137.26L43.4038 133.039C43.5019 132.771 43.7988 132.649 44.0668 132.766L45.0373 133.191Z" fill="#E6E6E6"/>
<path fill-rule="evenodd" clip-rule="evenodd" d="M47.5016 134.087C47.7696 134.205 47.9073 134.517 47.8092 134.785L46.2629 139.006C46.1647 139.274 45.8679 139.396 45.5999 139.279L44.6294 138.854C44.3614 138.737 44.2237 138.424 44.3219 138.157L45.8681 133.936C45.9663 133.668 46.2631 133.545 46.5311 133.663L47.5016 134.087Z" fill="#E6E6E6"/>
<path d="M39.2668 70.3635C33.8771 70.3635 26.2136 66.599 17.7922 61.1615L29.3871 29.4874C30.3983 26.725 33.572 25.4131 36.2575 26.6474L49.4052 32.6902C55.064 35.2911 57.7058 41.8191 55.4337 47.587L48.1092 66.1807C47.2671 68.2721 44.6565 70.3635 39.2668 70.3635Z" fill="#318C6E"/>
<path fill-rule="evenodd" clip-rule="evenodd" d="M54.9287 49.1499C55.333 49.3221 55.5325 49.8185 55.3743 50.2586L50.4014 64.0922C50.2432 64.5323 49.7872 64.7494 49.3829 64.5772C48.9786 64.405 48.7791 63.9086 48.9373 63.4685L53.9102 49.6349C54.0684 49.1948 54.5244 48.9777 54.9287 49.1499Z" fill="#15513C"/>
<path fill-rule="evenodd" clip-rule="evenodd" d="M15.7746 60.3233C16.9647 59.9832 18.3126 60.6795 18.7852 61.8786C19.0849 62.6393 19.8615 64.0694 20.8316 65.076C21.6321 65.9066 22.2559 66.231 22.6739 66.3733C23.1012 66.5186 23.4921 66.535 23.9166 66.5019C25.1763 66.4035 26.3839 67.331 26.6139 68.5735C26.8439 69.8159 26.0091 70.9029 24.7493 71.0012C23.9641 71.0625 22.8521 71.0616 21.5514 70.6191C20.2415 70.1733 18.9124 69.339 17.6035 67.9809C16.0423 66.361 14.9467 64.3064 14.4752 63.1101C14.0026 61.9111 14.5844 60.6634 15.7746 60.3233Z" fill="#FFC0A5"/>
<path d="M16.1838 57.2781C17.04 60.607 17.7994 63.4688 17.9893 64.885C18.4835 68.5696 21.8734 71.1731 25.5607 70.7001C29.2481 70.2272 31.3744 66.8897 31.3424 63.1722C31.3247 61.1163 30.4875 57.2781 29.2317 54L16.1838 57.2781Z" fill="#FFD0BC"/>
<path fill-rule="evenodd" clip-rule="evenodd" d="M15.7033 57.1241C16.0105 57.0687 16.3411 57.2723 16.4418 57.579C17.5114 60.8388 18.3787 63.8312 18.6673 65.2426C18.8071 65.9264 19.0592 66.575 19.4005 67.1717C19.565 67.4592 19.4727 67.7898 19.1944 67.91C18.9161 68.0302 18.5571 67.8946 18.3927 67.6071C17.9855 66.8952 17.6855 66.1225 17.5195 65.3106C17.2458 63.972 16.3981 61.0371 15.3293 57.7798C15.2287 57.4731 15.3961 57.1796 15.7033 57.1241Z" fill="#F49B87"/>
<path fill-rule="evenodd" clip-rule="evenodd" d="M39.7528 32.3333C40.5249 36.4202 37.7866 40.3498 33.6367 41.1101L24.7904 42.731L30.3398 55.4007L16.3042 61.3635L6.96276 40.0368C6.04205 37.9348 6.1427 35.5344 7.23625 33.5143C8.3298 31.4942 10.2974 30.074 12.5827 29.6553L30.8408 26.31C34.9907 25.5496 38.9807 28.2463 39.7528 32.3333Z" fill="#318C6E"/>
<path fill-rule="evenodd" clip-rule="evenodd" d="M34.9584 41.5748C35.0515 42.017 34.721 42.4422 34.2202 42.5245L25.7467 43.9163L31.3172 55.3174C31.519 55.7304 31.3034 56.2097 30.8356 56.3878C30.3678 56.566 29.825 56.3756 29.6232 55.9626L23.595 43.6248C23.4839 43.3973 23.496 43.1376 23.628 42.919C23.76 42.7005 23.9975 42.5468 24.2733 42.5015L33.8827 40.9231C34.3836 40.8408 34.8652 41.1326 34.9584 41.5748Z" fill="#15513C"/>
<path fill-rule="evenodd" clip-rule="evenodd" d="M42.3377 72C42.7896 72 43.1559 72.3781 43.1559 72.8446V75.8006C43.1559 77.8436 41.7505 79.5477 39.8832 79.939V84.2463C39.8832 84.7128 39.5169 85.0909 39.065 85.0909C38.6131 85.0909 38.2468 84.7128 38.2468 84.2463V79.1789C38.2468 78.7124 38.6131 78.3343 39.065 78.3343C40.4206 78.3343 41.5196 77.1999 41.5196 75.8006V72.8446C41.5196 72.3781 41.8859 72 42.3377 72Z" fill="#808080"/>
<path fill-rule="evenodd" clip-rule="evenodd" d="M41.5195 96.5457C41.5195 96.0939 41.8858 95.7275 42.3377 95.7275H46.4286C46.8805 95.7275 47.2468 96.0939 47.2468 96.5457C47.2468 96.9976 46.8805 97.3639 46.4286 97.3639H42.3377C41.8858 97.3639 41.5195 96.9976 41.5195 96.5457Z" fill="#808080"/>
<path fill-rule="evenodd" clip-rule="evenodd" d="M61.1149 4.31109L58.0038 16.4678L44.3556 12.6542C42.5466 12.1487 41.4926 10.1271 42.0014 8.13887L42.9628 4.38233C43.6412 1.73131 46.1466 0.128611 48.5586 0.802591L61.1149 4.31109Z" fill="#E2652F"/>
<path fill-rule="evenodd" clip-rule="evenodd" d="M58.1618 2.97387C60.6769 3.15922 62.5814 5.27357 62.4156 7.69642L61.7001 18.1532C61.6586 18.7589 61.1153 19.2124 60.4865 19.1661L45.1167 18.0335C44.4879 17.9871 44.0118 17.4585 44.0532 16.8528L44.7688 6.39602C44.9346 3.97316 47.1079 2.1593 49.623 2.34464L58.1618 2.97387Z" fill="#FEA768"/>
<path fill-rule="evenodd" clip-rule="evenodd" d="M61.8745 15.153L61.6651 18.4027C61.6305 18.9391 61.1264 19.3372 60.539 19.2918L46.182 18.1833C45.5946 18.138 45.1465 17.6664 45.1811 17.13L45.3866 13.9403C47.2308 11.1591 50.7853 9.53359 54.5805 10.0678C57.8953 10.5344 60.5788 12.5339 61.8745 15.153Z" fill="#E2652F"/>
<path d="M60.1479 23.1762C60.5397 22.2634 61.6015 21.8362 62.5194 22.2221L63.9412 22.8197C64.8592 23.2056 65.2858 24.2584 64.894 25.1711L64.3084 26.5355C63.9166 27.4483 62.8549 27.8755 61.9369 27.4896L60.5151 26.892C59.5972 26.5061 59.1706 25.4533 59.5623 24.5406L60.1479 23.1762Z" fill="#FFC0A5"/>
<path fill-rule="evenodd" clip-rule="evenodd" d="M62.1203 24.5692L60.3206 23.8127L60.1872 24.1236L61.9869 24.8801L62.1203 24.5692ZM60.7935 22.7109C60.1815 22.4537 59.4737 22.7384 59.2125 23.3469L59.0791 23.6578C58.8179 24.2664 59.1023 24.9682 59.7143 25.2254L61.514 25.9819C62.126 26.2392 62.8338 25.9544 63.095 25.3459L63.2284 25.035C63.4896 24.4265 63.2052 23.7246 62.5932 23.4674L60.7935 22.7109Z" fill="#F49B87"/>
<path d="M46.1949 17.7445C46.5867 16.8317 46.1601 15.779 45.2422 15.3931L43.8204 14.7955C42.9024 14.4096 41.8407 14.8368 41.4489 15.7496L40.8633 17.114C40.4715 18.0267 40.8981 19.0795 41.8161 19.4654L43.2379 20.063C44.1558 20.4488 45.2176 20.0217 45.6093 19.1089L46.1949 17.7445Z" fill="#FFC0A5"/>
<path fill-rule="evenodd" clip-rule="evenodd" d="M43.8118 17.3063L45.6115 18.0628L45.4781 18.3737L43.6784 17.6172L43.8118 17.3063ZM46.0844 16.961C46.6964 17.2182 46.9808 17.9201 46.7196 18.5286L46.5862 18.8395C46.325 19.448 45.6172 19.7328 45.0052 19.4755L43.2055 18.719C42.5935 18.4618 42.3091 17.7599 42.5703 17.1514L42.7037 16.8405C42.9649 16.232 43.6727 15.9472 44.2847 16.2045L46.0844 16.961Z" fill="#F49B87"/>
<path d="M46.6106 25.7034L43.3505 31.1618C43.6297 31.6026 44.5433 32.6792 45.9636 33.4587C47.3839 34.2382 48.7258 34.2845 49.2192 34.2101L52.4174 29.0198C52.1588 28.4896 51.2865 27.2344 49.8662 26.4549C48.4459 25.6754 47.104 25.6291 46.6106 25.7034Z" fill="#FFD0BC"/>
<path fill-rule="evenodd" clip-rule="evenodd" d="M43.5861 30.2715C43.9261 30.2643 44.2075 30.5341 44.2147 30.8741C44.2231 31.2728 44.4519 31.8042 44.9186 32.3024C45.3764 32.7911 46.0127 33.1911 46.7287 33.3563C48.1107 33.6753 48.9655 33.5729 49.491 33.0829C49.7398 32.851 50.1294 32.8647 50.3613 33.1135C50.5932 33.3622 50.5795 33.7518 50.3308 33.9837C49.3223 34.9239 47.9016 34.8909 46.4517 34.5563C45.4749 34.3308 44.6282 33.7938 44.0198 33.1443C43.4205 32.5044 43.0002 31.6966 42.9834 30.9C42.9763 30.56 43.2461 30.2786 43.5861 30.2715Z" fill="#15513C"/>
<path d="M50.8802 31.5138C48.7917 30.7746 46.8082 29.3796 45.4298 27.6796L46.6103 25.7031C47.1037 25.6288 48.4456 25.675 49.8659 26.4546C51.2862 27.2341 52.1585 28.4893 52.4172 29.0195L50.8802 31.5138Z" fill="#FFC0A5"/>
<path d="M61.7909 22.6036C61.1073 27.4598 56.5569 30.8339 51.6273 30.14C46.6977 29.4461 43.2557 24.9469 43.9393 20.0907C44.6228 15.2345 49.1732 11.8604 54.1028 12.5543C59.0324 13.2482 62.4744 17.7474 61.7909 22.6036Z" fill="#FFD0BC"/>
<path fill-rule="evenodd" clip-rule="evenodd" d="M52.1233 18.6587C51.1663 17.6922 49.9465 17.4803 49.0417 17.594C48.7122 17.6354 48.4104 17.403 48.3676 17.0748C48.3248 16.7467 48.5572 16.4471 48.8867 16.4057C50.0805 16.2557 51.7035 16.5316 52.9788 17.8195C53.2125 18.0555 53.2104 18.4347 52.9742 18.6664C52.7379 18.8981 52.357 18.8947 52.1233 18.6587Z" fill="#983038"/>
<path fill-rule="evenodd" clip-rule="evenodd" d="M60.3444 22.3024C59.4942 21.2537 58.3011 20.9301 57.3869 20.959C57.054 20.9696 56.7781 20.7107 56.7707 20.3809C56.7633 20.051 57.0271 19.775 57.36 19.7644C58.5661 19.7262 60.1543 20.1508 61.2873 21.5483C61.4949 21.8044 61.4521 22.1808 61.1917 22.389C60.9314 22.5973 60.552 22.5585 60.3444 22.3024Z" fill="#983038"/>
<path fill-rule="evenodd" clip-rule="evenodd" d="M48.6461 19.4444C48.4293 19.3867 48.1841 19.359 47.8249 19.3577C47.471 19.3563 47.184 19.0724 47.1839 18.7235C47.1838 18.3746 47.4706 18.0929 47.8246 18.0943C48.247 18.0959 48.6128 18.1283 48.9752 18.2246C49.3386 18.3213 49.6669 18.4738 50.0242 18.6806C50.3978 18.8968 50.7059 19.1165 50.9835 19.3991C51.2592 19.6797 51.4829 20.0001 51.7118 20.3932C51.8884 20.6962 51.7829 21.082 51.4761 21.2548C51.1693 21.4276 50.7775 21.322 50.6009 21.0189C50.401 20.6757 50.2385 20.4531 50.0645 20.2761C49.8925 20.101 49.6875 19.9483 49.3785 19.7693C49.0812 19.5972 48.8619 19.5017 48.6461 19.4444Z" fill="white"/>
<path fill-rule="evenodd" clip-rule="evenodd" d="M50.7336 19.1675C50.82 19.2403 50.9029 19.3168 50.9834 19.3987C51.2591 19.6793 51.4827 19.9997 51.7117 20.3928C51.8883 20.6959 51.7827 21.0816 51.476 21.2544C51.1692 21.4272 50.7774 21.3216 50.6008 21.0185C50.4009 20.6753 50.2383 20.4527 50.0644 20.2757C49.8983 20.1067 49.7016 19.9585 49.4102 19.7875C49.7172 19.4092 50.1859 19.1674 50.7111 19.1674C50.7186 19.1674 50.7261 19.1674 50.7336 19.1675Z" fill="black"/>
<path fill-rule="evenodd" clip-rule="evenodd" d="M56.7124 23.0715C56.4881 23.0711 56.2442 23.1069 55.8973 23.1972C55.5555 23.2862 55.204 23.0848 55.1123 22.7475C55.0206 22.4102 55.2234 22.0645 55.5652 21.9756C55.9732 21.8693 56.3347 21.8073 56.7097 21.8081C57.0857 21.8088 57.4425 21.8725 57.8415 21.9814C58.2587 22.0952 58.6137 22.229 58.9558 22.4314C59.2955 22.6325 59.5954 22.8852 59.9195 23.2069C60.1695 23.4549 60.1689 23.8549 59.9183 24.1002C59.6677 24.3456 59.2619 24.3434 59.012 24.0953C58.7289 23.8145 58.5137 23.6407 58.2994 23.5139C58.0874 23.3885 57.8496 23.2931 57.5044 23.1989C57.1723 23.1084 56.9357 23.0719 56.7124 23.0715Z" fill="white"/>
<path fill-rule="evenodd" clip-rule="evenodd" d="M59.0931 22.5166C59.3779 22.7027 59.6397 22.929 59.9195 23.2067C60.1695 23.4547 60.1689 23.8547 59.9183 24.1C59.6677 24.3454 59.2619 24.3432 59.012 24.0951C58.7289 23.8143 58.5137 23.6405 58.2993 23.5137C58.1288 23.4128 57.9416 23.3313 57.6952 23.2543C57.9961 22.8092 58.5055 22.5166 59.0833 22.5166C59.0865 22.5166 59.0898 22.5166 59.0931 22.5166Z" fill="black"/>
<path d="M53.7541 20.6301C53.9031 20.3981 54.1933 20.2961 54.4581 20.3826C54.7228 20.4691 54.8942 20.7219 54.8736 20.9958L54.764 22.4591C54.7166 23.092 54.5905 23.7167 54.3887 24.3192L54.1725 24.9646C53.9673 25.5771 53.2967 25.9089 52.6746 25.7057C52.0526 25.5024 51.7147 24.8412 51.9199 24.2287L52.1362 23.5833C52.338 22.9808 52.6141 22.4051 52.9584 21.8691L53.7541 20.6301Z" fill="#F49B87"/>
<rect x="102.104" y="26.668" width="26.0647" height="86.4874" transform="rotate(15 102.104 26.668)" fill="#BACBF7"/>
<circle cx="100.319" cy="115.727" r="4.73903" transform="rotate(15 100.319 115.727)" fill="#BACBF7"/>
<path d="M95.7413 114.501C95.0638 117.029 96.5641 119.628 99.0923 120.305L73.9157 113.559C71.3876 112.882 69.8873 110.283 70.5647 107.755L95.7413 114.501Z" fill="#2F3F73"/>
<path fill-rule="evenodd" clip-rule="evenodd" d="M107.908 23.3164C105.38 22.639 102.782 24.1393 102.104 26.6674C101.427 29.1955 102.927 31.7941 105.455 32.4715C107.983 33.1489 110.582 31.6486 111.259 29.1205L136.436 35.8666C137.113 33.3384 135.613 30.7399 133.085 30.0625L107.926 23.3212C107.92 23.3196 107.914 23.318 107.908 23.3164Z" fill="#BACBF7"/>
<path fill-rule="evenodd" clip-rule="evenodd" d="M136.584 35.0073C136.562 35.2926 136.513 35.5799 136.436 35.8663L127.281 33.4132C127.959 30.8852 130.557 29.3851 133.085 30.0625C135.297 30.6552 136.722 32.7186 136.59 34.9188C136.589 34.9483 136.587 34.9778 136.584 35.0073Z" fill="#2F3F73"/>
<path fill-rule="evenodd" clip-rule="evenodd" d="M105.455 32.4715C105.625 31.8395 106.274 31.4644 106.906 31.6338L120.067 35.1601C120.699 35.3295 121.074 35.9791 120.905 36.6112C120.735 37.2432 120.086 37.6183 119.454 37.4489L106.293 33.9226C105.661 33.7532 105.286 33.1036 105.455 32.4715Z" fill="white"/>
<path fill-rule="evenodd" clip-rule="evenodd" d="M99.9359 53.0711C100.105 52.4391 100.755 52.064 101.387 52.2334L114.547 55.7597C115.179 55.9291 115.555 56.5787 115.385 57.2108C115.216 57.8428 114.566 58.2179 113.934 58.0485L100.774 54.5222C100.142 54.3528 99.7666 53.7032 99.9359 53.0711Z" fill="white"/>
<path fill-rule="evenodd" clip-rule="evenodd" d="M94.4165 73.6698C94.5859 73.0378 95.2355 72.6627 95.8675 72.832L109.028 76.3584C109.66 76.5277 110.035 77.1774 109.866 77.8094C109.696 78.4414 109.047 78.8165 108.415 78.6471L95.2543 75.1208C94.6222 74.9515 94.2472 74.3018 94.4165 73.6698Z" fill="white"/>
<path fill-rule="evenodd" clip-rule="evenodd" d="M88.897 94.2684C89.0663 93.6364 89.716 93.2613 90.348 93.4307L103.508 96.957C104.141 97.1264 104.516 97.776 104.346 98.408C104.177 99.0401 103.527 99.4151 102.895 99.2458L89.7347 95.7194C89.1027 95.5501 88.7276 94.9004 88.897 94.2684Z" fill="white"/>
<path fill-rule="evenodd" clip-rule="evenodd" d="M103.616 39.3377C103.785 38.7057 104.435 38.3306 105.067 38.5L118.227 42.0263C118.859 42.1957 119.234 42.8453 119.065 43.4774C118.896 44.1094 118.246 44.4845 117.614 44.3151L104.453 40.7888C103.821 40.6194 103.446 39.9698 103.616 39.3377Z" fill="white"/>
<path fill-rule="evenodd" clip-rule="evenodd" d="M98.0962 59.9374C98.2655 59.3053 98.9152 58.9303 99.5472 59.0996L112.708 62.6259C113.34 62.7953 113.715 63.4449 113.545 64.077C113.376 64.709 112.726 65.0841 112.094 64.9147L98.9339 61.3884C98.3019 61.219 97.9268 60.5694 98.0962 59.9374Z" fill="white"/>
<path fill-rule="evenodd" clip-rule="evenodd" d="M92.5767 80.536C92.746 79.904 93.3957 79.5289 94.0277 79.6982L107.188 83.2246C107.82 83.3939 108.195 84.0436 108.026 84.6756C107.857 85.3076 107.207 85.6827 106.575 85.5134L93.4144 81.987C92.7824 81.8177 92.4073 81.168 92.5767 80.536Z" fill="white"/>
<path fill-rule="evenodd" clip-rule="evenodd" d="M87.0571 101.135C87.2265 100.503 87.8761 100.128 88.5082 100.297L101.669 103.823C102.301 103.993 102.676 104.642 102.506 105.274C102.337 105.906 101.687 106.281 101.055 106.112L87.8949 102.586C87.2629 102.416 86.8878 101.767 87.0571 101.135Z" fill="white"/>
<path fill-rule="evenodd" clip-rule="evenodd" d="M101.776 46.204C101.945 45.5719 102.595 45.1969 103.227 45.3662L116.387 48.8925C117.019 49.0619 117.394 49.7115 117.225 50.3436C117.056 50.9756 116.406 51.3507 115.774 51.1813L102.614 47.655C101.981 47.4856 101.606 46.836 101.776 46.204Z" fill="white"/>
<path fill-rule="evenodd" clip-rule="evenodd" d="M96.2564 66.8036C96.4257 66.1715 97.0753 65.7965 97.7074 65.9658L110.868 69.4922C111.5 69.6615 111.875 70.3112 111.706 70.9432C111.536 71.5752 110.887 71.9503 110.255 71.7809L97.0941 68.2546C96.4621 68.0852 96.087 67.4356 96.2564 66.8036Z" fill="white"/>
<path fill-rule="evenodd" clip-rule="evenodd" d="M90.7368 87.4022C90.9062 86.7702 91.5558 86.3951 92.1878 86.5645L105.348 90.0908C105.98 90.2601 106.355 90.9098 106.186 91.5418C106.017 92.1738 105.367 92.5489 104.735 92.3796L91.5746 88.8532C90.9425 88.6839 90.5675 88.0342 90.7368 87.4022Z" fill="white"/>
<path fill-rule="evenodd" clip-rule="evenodd" d="M85.2173 108.002C85.3866 107.37 86.0363 106.995 86.6683 107.164L99.8288 110.69C100.461 110.86 100.836 111.509 100.667 112.141C100.497 112.773 99.8475 113.149 99.2155 112.979L86.055 109.453C85.423 109.283 85.0479 108.634 85.2173 108.002Z" fill="white"/>
<path d="M97.2948 29.0377C98.9722 28.0828 99.6078 26.5149 99.6212 24.5857C100.559 26.2721 101.868 27.3361 103.798 27.3625C102.121 28.3175 101.485 29.8854 101.472 31.8145C100.536 30.1293 99.2247 29.0641 97.2948 29.0377Z" fill="#D1FAE8"/>
<path d="M115.295 62.5827C116.972 61.6277 117.608 60.0598 117.621 58.1307C118.559 59.817 119.868 60.8811 121.798 60.9074C120.121 61.8624 119.485 63.4303 119.472 65.3594C118.536 63.6743 117.225 62.609 115.295 62.5827Z" fill="#D1FAE8"/>
<path d="M71.9312 70.7643C73.6086 69.8094 74.2441 68.2414 74.2576 66.3123C75.1956 67.9986 76.5046 69.0627 78.4344 69.0891C76.7571 70.044 76.1215 71.6119 76.108 73.5411C75.1723 71.8559 73.861 70.7907 71.9312 70.7643Z" fill="#D1FAE8"/>
<path d="M71.7686 39.6981L65.1265 38.0839L60.9342 54.2861C60.4775 56.1246 61.6032 57.9838 63.4439 58.4312C65.2714 58.8753 67.1144 57.7594 67.5678 55.9342L71.7686 39.6981Z" fill="#318C6E"/>
<circle cx="72.2563" cy="24.3912" r="15.2533" transform="rotate(17.2001 72.2563 24.3912)" fill="#FFD0BC"/>
<path fill-rule="evenodd" clip-rule="evenodd" d="M78.1844 22.2403C75.9107 18.5413 72.2727 16.9975 69.3775 16.6943C68.3231 16.5839 67.5536 15.6424 67.6587 14.5913C67.7637 13.5402 68.7036 12.7776 69.758 12.888C73.5779 13.288 78.4229 15.3234 81.4527 20.2525C82.0078 21.1557 81.7262 22.3328 80.8237 22.8817C79.9212 23.4306 78.7395 23.1435 78.1844 22.2403Z" fill="#983038"/>
<path fill-rule="evenodd" clip-rule="evenodd" d="M62.7097 23.9863C62.8266 23.7929 63.0781 23.731 63.2714 23.8479L77.3228 32.3438C77.5161 32.4607 77.5781 32.7122 77.4612 32.9055C77.3443 33.0988 77.0928 33.1608 76.8995 33.0439L62.8481 24.548C62.6547 24.4311 62.5928 24.1796 62.7097 23.9863Z" fill="#ED9068"/>
<path d="M73.2434 23.8393C70.3412 21.7296 65.9227 21.0368 63.3048 22.6341C62.7852 22.9511 62.8766 23.6717 63.3975 23.9866L77.4489 32.4825C77.8937 32.7514 78.4894 32.6078 78.5708 32.0945C78.9534 29.681 76.1431 25.9472 73.2434 23.8393Z" fill="white"/>
<path fill-rule="evenodd" clip-rule="evenodd" d="M67.5093 22.233C65.7725 22.0034 64.1168 22.2299 62.9133 22.9642C62.7204 23.0819 62.4686 23.021 62.351 22.8281C62.2333 22.6352 62.2942 22.3835 62.4871 22.2658C63.9015 21.4028 65.764 21.177 67.6165 21.4219C69.4741 21.6675 71.3695 22.3918 72.8793 23.4893C74.3665 24.5704 75.8274 26.0647 76.8719 27.6034C77.9022 29.1213 78.5872 30.7712 78.3703 32.1394C78.3349 32.3626 78.1253 32.5148 77.9022 32.4794C77.679 32.444 77.5268 32.2344 77.5622 32.0113C77.7279 30.966 77.199 29.5423 76.1949 28.0629C75.2049 26.6044 73.8108 25.1779 72.3983 24.1511C71.0059 23.139 69.241 22.462 67.5093 22.233Z" fill="#ED9068"/>
<path d="M74.7038 25.0455C74.574 25.031 74.4427 25.0211 74.3102 25.016C72.267 24.9375 70.4476 26.0166 69.4847 27.6676L77.4488 32.4829C77.8936 32.7519 78.4894 32.6082 78.5708 32.0949C78.8881 30.093 77.0088 27.1828 74.7038 25.0455Z" fill="#15513C"/>
<path fill-rule="evenodd" clip-rule="evenodd" d="M75.8426 31.5113C76.1229 31.0913 76.2369 30.5614 76.1162 30.0301C75.8829 29.0032 74.8614 28.3599 73.8345 28.5932C73.2789 28.7194 72.8355 29.0765 72.5826 29.5403L75.8426 31.5113Z" fill="black"/>
<rect x="71.3043" y="24.2803" width="2.85999" height="1.90666" rx="0.953331" transform="rotate(32.2001 71.3043 24.2803)" fill="white"/>
<circle opacity="0.2" cx="72.2564" cy="24.3912" r="15.2533" transform="rotate(17.2001 72.2564 24.3912)" fill="#E5ECFF"/>
<path fill-rule="evenodd" clip-rule="evenodd" d="M63.5275 14.965C58.3215 19.7858 58.0092 27.9142 62.83 33.1202C67.6508 38.3262 75.7792 38.6385 80.9852 33.8177C86.1912 28.9969 86.5035 20.8685 81.6827 15.6625C76.8619 10.4564 68.7335 10.1442 63.5275 14.965ZM84.1107 37.1928C91.1807 30.6459 91.6048 19.6071 85.0579 12.537C78.5109 5.46695 67.4721 5.04287 60.402 11.5898C53.332 18.1368 52.9079 29.1756 59.4548 36.2456C66.0018 43.3157 77.0406 43.7398 84.1107 37.1928Z" fill="#24BC85"/>
<path fill-rule="evenodd" clip-rule="evenodd" d="M60.4994 51.8316C59.3793 51.6472 58.6166 50.6949 58.7957 49.7045C59.0297 48.411 59.0998 47.6235 58.953 46.0399C58.8597 45.0342 59.7006 44.1725 60.8311 44.1153C61.9616 44.0581 62.9536 44.8271 63.0468 45.8328C63.2239 47.7429 63.1317 48.8257 62.8519 50.3724C62.6728 51.3627 61.6195 52.0161 60.4994 51.8316Z" fill="#FFD0BC"/>
<path fill-rule="evenodd" clip-rule="evenodd" d="M58.9568 46.6967C59.2809 46.7042 59.5376 46.973 59.5301 47.297L59.4692 49.9417C59.4469 50.9139 60.2169 51.7202 61.1891 51.7426C62.1614 51.7649 62.9676 50.9949 62.99 50.0227C62.9975 49.6986 63.2662 49.4419 63.5903 49.4494C63.9144 49.4569 64.1711 49.7256 64.1636 50.0497C64.1263 51.6701 62.7825 52.9534 61.1621 52.9162C59.5417 52.8789 58.2584 51.5351 58.2957 49.9147L58.3565 47.27C58.364 46.946 58.6327 46.6893 58.9568 46.6967Z" fill="#F49B87"/>
<path fill-rule="evenodd" clip-rule="evenodd" d="M60.2901 55.4624C60.7926 54.2762 62.0899 53.7017 63.1876 54.1793C64.6213 54.803 65.5129 55.1027 67.3802 55.3873C68.5661 55.5681 69.3441 56.7408 69.118 58.0067C68.8919 59.2725 67.7472 60.1522 66.5613 59.9714C64.309 59.6281 63.0821 59.2206 61.3678 58.4749C60.27 57.9973 59.7876 56.6486 60.2901 55.4624Z" fill="#FFD0BC"/>
<path fill-rule="evenodd" clip-rule="evenodd" d="M61.031 58.359C59.6714 57.7717 59.0573 56.1509 59.6594 54.7389C60.2614 53.3268 61.8517 52.6582 63.2113 53.2455C64.5732 53.8338 65.3981 54.1123 67.1634 54.3937C67.4742 54.4433 67.6813 54.7436 67.6261 55.0644C67.5708 55.3852 67.2741 55.6051 66.9633 55.5556C65.0971 55.258 64.1842 54.9511 62.7485 54.331C61.9661 53.993 61.051 54.3778 60.7045 55.1903C60.3581 56.0029 60.7114 56.9356 61.4938 57.2735C63.1295 57.98 64.2811 58.3639 66.4208 58.7051C66.7316 58.7547 66.9387 59.0549 66.8834 59.3757C66.8282 59.6966 66.5314 59.9165 66.2207 59.8669C63.9801 59.5097 62.7404 59.0974 61.031 58.359Z" fill="#F49B87"/>
<path fill-rule="evenodd" clip-rule="evenodd" d="M61.4079 52.3062C61.9104 51.12 63.2077 50.5455 64.3054 51.023C65.7391 51.6467 66.6307 51.9465 68.498 52.2311C69.6839 52.4118 70.4619 53.5845 70.2358 54.8504C70.0097 56.1163 68.865 56.9959 67.6791 56.8152C65.4268 56.4719 64.1999 56.0644 62.4856 55.3186C61.3878 54.8411 60.9054 53.4924 61.4079 52.3062Z" fill="#FFD0BC"/>
<path fill-rule="evenodd" clip-rule="evenodd" d="M62.1486 55.2027C60.789 54.6155 60.1749 52.9947 60.777 51.5826C61.3791 50.1706 62.9694 49.502 64.329 50.0893C65.6909 50.6775 66.5158 50.956 68.2811 51.2375C68.5919 51.2871 68.799 51.5873 68.7437 51.9081C68.6885 52.229 68.3918 52.4489 68.081 52.3993C66.2148 52.1018 65.3019 51.7949 63.8661 51.1747C63.0838 50.8368 62.1687 51.2215 61.8222 52.0341C61.4757 52.8466 61.8291 53.7793 62.6115 54.1173C64.2472 54.8238 65.3988 55.2077 67.5385 55.5488C67.8492 55.5984 68.0564 55.8987 68.0011 56.2195C67.9458 56.5403 67.6491 56.7602 67.3383 56.7107C65.0978 56.3534 63.8581 55.9411 62.1486 55.2027Z" fill="#F49B87"/>
<path fill-rule="evenodd" clip-rule="evenodd" d="M62.6631 48.7604C63.0941 47.7763 64.3372 47.3549 65.4396 47.8193C66.8794 48.4258 67.7702 48.7279 69.6176 49.0683C70.791 49.2844 71.6161 50.3243 71.4606 51.3908C71.305 52.4574 70.2277 53.1467 69.0543 52.9305C66.8259 52.52 65.6004 52.1085 63.8788 51.3833C62.7764 50.9189 62.2321 49.7446 62.6631 48.7604Z" fill="#FFD0BC"/>
<path fill-rule="evenodd" clip-rule="evenodd" d="M63.5029 52.1292C62.004 51.4926 61.2843 49.8344 61.8955 48.4256C62.5067 47.0168 64.2172 46.3908 65.7161 47.0274C67.2175 47.665 68.1245 47.9726 70.0555 48.3127C70.3955 48.3726 70.6305 48.6827 70.5804 49.0054C70.5303 49.3281 70.2141 49.5411 69.8742 49.4812C67.8328 49.1216 66.8291 48.7826 65.2463 48.1104C64.3837 47.744 63.3994 48.1043 63.0477 48.915C62.696 49.7257 63.1102 50.6799 63.9727 51.0462C65.776 51.812 67.042 52.2364 69.3825 52.6487C69.7225 52.7086 69.9575 53.0187 69.9074 53.3414C69.8573 53.6641 69.5411 53.8771 69.2012 53.8172C66.7503 53.3855 65.3875 52.9296 63.5029 52.1292Z" fill="#F49B87"/>
<path fill-rule="evenodd" clip-rule="evenodd" d="M63.6432 45.9927C64.1458 44.8065 65.443 44.232 66.5407 44.7096C67.9745 45.3333 68.8661 45.633 70.7333 45.9176C71.9192 46.0983 72.6973 47.2711 72.4711 48.5369C72.245 49.8028 71.1003 50.6825 69.9144 50.5017C67.6622 50.1584 66.4352 49.7509 64.7209 49.0051C63.6232 48.5276 63.1407 47.1789 63.6432 45.9927Z" fill="#FFD0BC"/>
<path fill-rule="evenodd" clip-rule="evenodd" d="M64.3822 48.8946C63.0198 48.3154 62.368 46.8011 62.9264 45.5123C63.0965 45.1197 63.3604 44.7921 63.6837 44.5438C63.9237 44.3594 64.2806 44.4018 64.4809 44.6384C64.6811 44.875 64.6489 45.2162 64.4088 45.4006C64.2237 45.5428 64.0722 45.7303 63.9738 45.9576C63.6524 46.6992 64.0275 47.5706 64.8115 47.9039C66.4506 48.6008 67.6016 48.9865 69.7301 49.3593C70.0392 49.4134 70.2524 49.6964 70.2063 49.9915C70.1602 50.2865 69.8722 50.4817 69.5631 50.4276C67.3342 50.0372 66.0952 49.6229 64.3822 48.8946Z" fill="#F49B87"/>
<path d="M77.9286 56.4551H81.6104V66.2733C81.6104 66.7251 81.9768 67.0914 82.4286 67.0914H91.4286C91.8805 67.0914 92.2501 67.459 92.2158 67.9096C91.798 73.4016 87.2095 77.7278 81.6104 77.7278C75.7361 77.7278 70.9741 72.9657 70.9741 67.0914C70.9741 62.8255 73.4855 59.1461 77.1104 57.4511V57.2733C77.1104 56.8214 77.4768 56.4551 77.9286 56.4551Z" fill="#2F3F73"/>
<path d="M83.2468 64.6365V57.2729H80.7923C80.3404 57.2729 79.9741 56.9066 79.9741 56.4547V55.6365C79.9741 55.1847 80.3404 54.8184 80.7923 54.8184H83.2468C88.8458 54.8184 93.4344 59.1445 93.8522 64.6366C93.8864 65.0871 93.5169 65.4547 93.065 65.4547H84.065C83.6131 65.4547 83.2468 65.0884 83.2468 64.6365Z" fill="#2F3F73"/>
<path d="M80.7923 54.8489C80.3417 54.8146 79.9741 55.1842 79.9741 55.6361V64.6361C79.9741 65.0879 80.3404 65.4543 80.7923 65.4543H89.7923C90.2441 65.4543 90.6137 65.0867 90.5795 64.6361C90.1822 59.4141 86.0142 55.2461 80.7923 54.8489Z" fill="#BACBF7"/>
<rect width="4.09091" height="3.27273" transform="matrix(-1 0 0 1 82.4286 74.4551)" fill="#2F3F73"/>
<path d="M78.3377 77.7273C72.4634 77.7273 67.7014 72.9653 67.7014 67.091C67.7014 61.492 72.0276 56.9034 77.5196 56.4856C77.9701 56.4513 78.3377 56.8209 78.3377 57.2728V66.2728C78.3377 66.7247 78.7041 67.091 79.1559 67.091H88.1559C88.6078 67.091 88.9774 67.4586 88.9431 67.9091C88.5253 73.4011 83.9368 77.7273 78.3377 77.7273Z" fill="#BACBF7"/>
</svg>
