<svg width="144" height="144" viewBox="0 0 144 144" fill="none" xmlns="http://www.w3.org/2000/svg">
<rect x="133.714" y="101" width="10.2857" height="29" fill="#333333"/>
<rect x="21.6982" y="66.2852" width="67.6808" height="63.3883" rx="3" fill="#89F0BE"/>
<path opacity="0.3" d="M21.7803 87.269L56.9544 96.5797C58.8576 97.0835 60.722 95.6484 60.722 93.6796V74.9141C60.722 73.2572 59.3789 71.9141 57.722 71.9141H21.7803V87.269Z" fill="#102156"/>
<rect y="14.3252" width="83.6598" height="68.5291" rx="3" fill="#E5ECFF"/>
<path d="M0 17.3252C0 15.6683 1.34315 14.3252 3 14.3252H80.6597C82.3166 14.3252 83.6598 15.6683 83.6598 17.3252V22.4164H0V17.3252Z" fill="#102156"/>
<circle cx="5.0904" cy="18.4136" r="1.08552" fill="#7085C8"/>
<circle cx="8.99769" cy="18.4127" r="1.08552" fill="#7085C8"/>
<circle cx="12.9049" cy="18.4136" r="1.08552" fill="#7085C8"/>
<rect x="7.677" y="29.6562" width="27.1343" height="46.7582" rx="2" fill="#BACBF7"/>
<path d="M9.677 76.4141H32.8113C33.9159 76.4141 34.8113 75.5187 34.8113 74.4141V47.7305C18.4375 47.7305 21.3333 60.0229 7.677 58.3185V74.4141C7.677 75.5187 8.57243 76.4141 9.677 76.4141Z" fill="#318C6E"/>
<rect x="41.0568" y="29.6562" width="33.713" height="9.32157" rx="2" fill="#BACBF7"/>
<rect x="41.0568" y="63.7979" width="33.713" height="12.6165" rx="2" fill="#BACBF7"/>
<rect x="41.0568" y="42.7969" width="33.713" height="17.181" rx="2" fill="#BACBF7"/>
<circle cx="15.654" cy="40.9382" r="4.53492" fill="white"/>
<rect x="95.4717" y="30.0352" width="46.377" height="48.2119" rx="3" fill="#7085C8"/>
<path d="M95.4717 33.0352C95.4717 31.3783 96.8148 30.0352 98.4717 30.0352H138.849C140.506 30.0352 141.849 31.3783 141.849 33.0352V38.1263H95.4717V33.0352Z" fill="#102156"/>
<circle cx="100.562" cy="34.1226" r="1.08552" fill="#7085C8"/>
<circle cx="104.469" cy="34.1226" r="1.08552" fill="#7085C8"/>
<circle cx="108.377" cy="34.1226" r="1.08552" fill="#7085C8"/>
<rect x="46.1035" y="53.1055" width="78.3019" height="57.7596" rx="3" fill="#24BC85"/>
<path d="M54.624 91.0236L64.3743 77.8349L77.1451 86.4218L89.6953 70.0186L100.259 77.8349L113.876 70.0186" stroke="#318C6E" stroke-width="2" stroke-linecap="round" stroke-linejoin="round"/>
<circle cx="54.7963" cy="90.8256" r="1.98186" fill="white"/>
<circle cx="64.2643" cy="77.8354" r="1.98186" fill="white"/>
<circle cx="77.0344" cy="86.3119" r="1.98186" fill="white"/>
<circle cx="89.6947" cy="70.019" r="1.98186" fill="white"/>
<circle cx="100.575" cy="77.7319" r="1.98186" fill="white"/>
<circle cx="113.978" cy="69.7397" r="1.98186" fill="white"/>
<path d="M46.1015 96.8838H124.403V107.865C124.403 109.522 123.06 110.865 121.403 110.865H49.1015C47.4447 110.865 46.1015 109.522 46.1015 107.865V96.8838Z" fill="#318C6E"/>
<path opacity="0.4" d="M114.101 96.8848H124.404V107.866C124.404 109.523 123.061 110.866 121.404 110.866H117.101C115.444 110.866 114.101 109.523 114.101 107.866V96.8848Z" fill="#102156"/>
<rect x="52.4773" y="100.182" width="16.1996" height="1.59525" rx="0.797626" fill="white"/>
<rect x="52.4771" y="104.908" width="39.6773" height="1.59525" rx="0.797626" fill="white"/>
<path d="M46.1006 53.7197C46.1006 52.0629 47.4437 50.7197 49.1006 50.7197H121.402C123.059 50.7197 124.402 52.0629 124.402 53.7197V58.8109H46.1006V53.7197Z" fill="#102156"/>
<circle cx="51.1908" cy="54.8082" r="1.08552" fill="#7085C8"/>
<circle cx="55.0984" cy="54.8082" r="1.08552" fill="#7085C8"/>
<circle cx="59.0054" cy="54.8082" r="1.08552" fill="#7085C8"/>
<rect x="0.0761719" y="93.0527" width="30.4049" height="28.1816" rx="3" fill="#BACBF7"/>
<path d="M0.0761719 96.0527C0.0761719 94.3959 1.41932 93.0527 3.07617 93.0527H27.4811C29.1379 93.0527 30.4811 94.3959 30.4811 96.0527V101.144H0.0761719V96.0527Z" fill="#102156"/>
<circle cx="5.16657" cy="97.1402" r="1.08552" fill="#7085C8"/>
<circle cx="9.07386" cy="97.1402" r="1.08552" fill="#7085C8"/>
<circle cx="12.981" cy="97.1402" r="1.08552" fill="#7085C8"/>
<path opacity="0.4" d="M107.7 110.849L99.6552 86.8176L113.38 110.849L107.7 110.849Z" fill="#102156"/>
<path d="M99.7002 86.877L117.756 119.746L120.287 106.08L134.503 115.841L139.285 108.06L124.405 98.6778L136.887 91.7269L99.7002 86.877Z" fill="#BACBF7"/>
<path fill-rule="evenodd" clip-rule="evenodd" d="M117.756 119.746L120.287 106.08L116.942 103.539L117.756 119.746Z" fill="#7085C8"/>
<path d="M124.405 98.6778L136.887 91.7269L121.508 96.9864L124.405 98.6778Z" fill="#7085C8"/>
</svg>
