<svg width="144" height="145" viewBox="0 0 144 145" fill="none" xmlns="http://www.w3.org/2000/svg">
<g opacity="0.3">
<path fill-rule="evenodd" clip-rule="evenodd" d="M52.141 23.1885C52.4813 23.1446 52.8391 23.1358 53.2059 23.1797C55.119 23.3992 56.6699 24.9448 56.8819 26.8504C57.1603 29.3619 55.1853 31.4915 52.711 31.4915C52.4934 31.4915 52.2794 31.4717 52.0702 31.4379C51.9523 31.4189 51.8359 31.3954 51.7213 31.3685L49.8391 40.7121L38.3514 56.519C38.3514 56.519 27.3276 54.7056 25.6884 53.0766C24.0492 51.4476 23.8415 49.0151 25.22 47.6452L25.2951 47.5706C25.4549 47.4135 25.6179 47.2604 25.7785 47.1097C26.8346 46.1179 27.7822 45.2281 26.9653 44.0008C26.8725 43.8603 26.7974 43.7154 26.7399 43.5618C26.0507 41.7308 26.2053 39.3246 29.2628 38.1874C29.7223 38.0162 30.1818 37.8845 30.6325 37.7879C31.0615 37.6956 31.1495 37.1256 31.267 36.3651C31.4906 34.9166 31.8211 32.777 34.8167 31.9305C38.0247 31.0241 37.967 29.0806 37.9174 27.409C37.8964 26.7 37.8768 26.04 38.1084 25.5288C39.5753 22.2927 44.9789 21.8361 48.1689 22.3498C49.7754 22.6085 50.4193 22.8672 50.84 23.0362C51.2547 23.2028 51.4523 23.2822 52.141 23.1885ZM28.8767 37.1642C29.2784 37.0145 29.68 36.892 30.0767 36.7942C30.0814 36.7733 30.0864 36.7501 30.0916 36.7246C30.1214 36.5782 30.1459 36.4201 30.1766 36.2211C30.1877 36.149 30.1997 36.0714 30.2131 35.9871C30.2602 35.69 30.32 35.3428 30.4118 34.9779C30.596 34.2452 30.9182 33.402 31.5767 32.6404C32.2431 31.8699 33.1927 31.2533 34.5159 30.8794C35.5184 30.5961 36.0367 30.232 36.3202 29.9089C36.5973 29.593 36.7339 29.2212 36.793 28.7533C36.844 28.3497 36.8325 27.9503 36.819 27.4789C36.8185 27.4637 36.8181 27.4478 36.8176 27.4324C36.8145 27.3238 36.8114 27.2113 36.809 27.094C36.7974 26.5294 36.7971 25.7613 37.1056 25.0802C38.0479 23.0014 40.1801 21.9538 42.2393 21.4697C44.3327 20.9775 46.6287 20.9947 48.3448 21.2711C50.0293 21.5424 50.7546 21.8232 51.2431 22.0194C51.4752 22.1127 51.5127 22.1232 51.5558 22.13C51.5921 22.1357 51.6936 22.1464 51.9918 22.1058L51.9994 22.1047C52.4177 22.0508 52.8671 22.0387 53.3347 22.0944C55.7554 22.3735 57.7065 24.3185 57.9749 26.7303C58.3258 29.8962 55.8328 32.5843 52.711 32.5843C52.6732 32.5843 52.6356 32.5838 52.5981 32.5829L50.8704 41.1595L38.8439 57.7077L38.1718 57.5971L38.3514 56.519C38.1718 57.5971 38.1718 57.5971 38.1718 57.5971L38.171 57.597L38.1693 57.5967L38.138 57.5915L38.0432 57.5756C37.9606 57.5617 37.8397 57.5411 37.6857 57.5145C37.3776 57.4611 36.9366 57.3832 36.4025 57.2846C35.3353 57.0877 33.8924 56.8075 32.3949 56.4752C30.9018 56.1439 29.3343 55.7564 28.0255 55.3432C27.372 55.1369 26.7628 54.9179 26.2509 54.6883C25.7666 54.4712 25.2626 54.199 24.9108 53.8493C22.9723 51.9229 22.515 48.7879 24.4425 46.8725L24.5218 46.7936C24.6832 46.635 24.846 46.4818 24.9978 46.3393L25.0207 46.3178C25.1666 46.1808 25.301 46.0545 25.4286 45.93C25.7023 45.6628 25.8967 45.4488 26.0247 45.2596C26.1491 45.0759 26.1709 44.9734 26.1738 44.9248C26.1756 44.8926 26.1768 44.797 26.0481 44.6037L26.0459 44.6004C25.9117 44.3972 25.798 44.1797 25.7096 43.9437" fill="white"/>
<path d="M52.141 23.1885C52.4813 23.1446 52.8391 23.1358 53.2059 23.1797C55.119 23.3992 56.6699 24.9448 56.8819 26.8504C57.1603 29.3619 55.1853 31.4915 52.711 31.4915C52.4934 31.4915 52.2794 31.4717 52.0702 31.4379C51.9523 31.4189 51.8359 31.3954 51.7213 31.3685L49.8391 40.7121L38.3514 56.519L38.1718 57.5971L38.8439 57.7077L50.8704 41.1595L52.5981 32.5829C52.6356 32.5838 52.6732 32.5843 52.711 32.5843C55.8328 32.5843 58.3258 29.8962 57.9749 26.7303C57.7065 24.3185 55.7554 22.3735 53.3347 22.0944C52.8671 22.0387 52.4177 22.0508 51.9994 22.1047L51.9918 22.1058C51.6936 22.1464 51.5921 22.1357 51.5558 22.13C51.5127 22.1232 51.4752 22.1127 51.2431 22.0194C50.7546 21.8232 50.0293 21.5424 48.3448 21.2711C46.6287 20.9947 44.3327 20.9775 42.2393 21.4697C40.1801 21.9538 38.0479 23.0014 37.1056 25.0802C36.7971 25.7613 36.7974 26.5294 36.809 27.094C36.8114 27.2113 36.8145 27.3238 36.8176 27.4324L36.819 27.4789C36.8325 27.9503 36.844 28.3497 36.793 28.7533C36.7339 29.2212 36.5973 29.593 36.3202 29.9089C36.0367 30.232 35.5184 30.5961 34.5159 30.8794C33.1927 31.2533 32.2431 31.8699 31.5767 32.6404C30.9182 33.402 30.596 34.2452 30.4118 34.9779C30.32 35.3428 30.2602 35.69 30.2131 35.9871C30.1997 36.0714 30.1877 36.149 30.1766 36.2211C30.1459 36.4201 30.1214 36.5782 30.0916 36.7246C30.0864 36.7501 30.0814 36.7733 30.0767 36.7942C29.68 36.892 29.2784 37.0145 28.8767 37.1642C28.8767 37.1642 26.6513 37.5943 25.5907 39.5437C24.5301 41.4932 25.7096 43.9437 25.7096 43.9437C25.798 44.1797 25.9117 44.3972 26.0459 44.6004L26.0481 44.6037C26.1768 44.797 26.1756 44.8926 26.1738 44.9248C26.1709 44.9734 26.1491 45.0759 26.0247 45.2596C25.8967 45.4488 25.7023 45.6628 25.4286 45.93C25.301 46.0545 25.1666 46.1808 25.0207 46.3178L24.9978 46.3393C24.846 46.4818 24.6832 46.635 24.5218 46.7936L24.4425 46.8725C22.515 48.7879 22.9723 51.9229 24.9108 53.8493C25.2626 54.199 25.7666 54.4712 26.2509 54.6883C26.7628 54.9179 27.372 55.1369 28.0255 55.3432C29.3343 55.7564 30.9018 56.1439 32.3949 56.4752C33.8924 56.8075 35.3353 57.0877 36.4025 57.2846C36.9366 57.3832 37.3776 57.4611 37.6857 57.5145C37.8397 57.5411 37.9606 57.5617 38.0432 57.5756L38.138 57.5915L38.1693 57.5967L38.171 57.597L38.1718 57.5971L38.3514 56.519C38.3514 56.519 27.3276 54.7056 25.6884 53.0766C24.0492 51.4476 23.8415 49.0151 25.22 47.6452L25.2951 47.5706C25.4549 47.4135 25.6179 47.2604 25.7785 47.1097C26.8346 46.1179 27.7822 45.2281 26.9653 44.0008C26.8725 43.8603 26.7974 43.7154 26.7399 43.5618C26.0507 41.7308 26.2053 39.3246 29.2628 38.1874C29.7223 38.0162 30.1818 37.8845 30.6325 37.7879C31.0615 37.6956 31.1495 37.1256 31.267 36.3651C31.4906 34.9166 31.8211 32.777 34.8167 31.9305C38.0247 31.0241 37.967 29.0806 37.9174 27.409C37.8964 26.7 37.8768 26.04 38.1084 25.5288C39.5753 22.2927 44.9789 21.8361 48.1689 22.3498C49.7754 22.6085 50.4193 22.8672 50.84 23.0362C51.2547 23.2028 51.4523 23.2822 52.141 23.1885Z" fill="white"/>
</g>
<path opacity="0.3" fill-rule="evenodd" clip-rule="evenodd" d="M58.5009 41.8107L58.5009 41.8107C61.4997 43.1547 63.0061 46.644 61.8996 49.7367C60.6938 53.1182 56.9326 54.8297 53.5786 53.5579L53.5779 53.5577C50.8699 52.5286 49.2773 49.8714 49.4864 47.139C49.0378 47.0735 48.5893 46.9593 48.1466 46.7927L48.142 46.7909L48.142 46.7909C44.7663 45.5032 43.1122 41.6815 44.5468 38.3427L44.5468 38.3426C45.8954 35.2049 49.6086 33.6794 52.7933 34.9323M49.664 46.0604C50.0421 46.1143 50.4202 46.1264 50.7938 46.1C50.6828 46.4659 50.6138 46.8358 50.5844 47.204C50.4028 49.4738 51.7239 51.6831 53.9706 52.5369C56.7498 53.5907 59.8647 52.1725 60.8633 49.3712C61.7779 46.8157 60.5275 43.9178 58.0488 42.8069C58.0289 42.7982 58.0079 42.7894 57.9869 42.7806C57.9659 42.7718 57.9449 42.763 57.9251 42.7542C56.7144 42.2493 55.8838 41.1648 55.6408 39.8827C55.3182 38.1615 54.1429 36.6379 52.3889 35.9485C49.7555 34.9123 46.6715 36.1812 45.5581 38.7718C44.3696 41.538 45.7392 44.7038 48.5361 45.7707C48.9091 45.9111 49.2866 46.0066 49.664 46.0604ZM52.7937 34.9325C54.9155 35.7665 56.3329 37.609 56.7216 39.6816C56.9015 40.6285 57.5049 41.3939 58.3506 41.7466L58.3612 41.751L58.3717 41.7556C58.3767 41.7578 58.3826 41.7604 58.3916 41.7642C58.3975 41.7666 58.4046 41.7696 58.4136 41.7734L58.4165 41.7746C58.4357 41.7826 58.4654 41.7951 58.4954 41.8083L58.5009 41.8107" fill="white"/>
<path d="M58.0477 42.8067C58.0079 42.7892 57.9637 42.7716 57.9239 42.7541C56.7133 42.2491 55.8827 41.1646 55.6397 39.8825C55.3171 38.1613 54.1418 36.6377 52.3877 35.9483C49.7544 34.9121 46.6704 36.181 45.557 38.7716C44.3684 41.5378 45.7381 44.7036 48.5349 45.7705C49.2816 46.0515 50.046 46.1525 50.7927 46.0998C49.9974 48.7212 51.3583 51.5444 53.9695 52.5368C56.7487 53.5905 59.8636 52.1723 60.8621 49.371C61.7767 46.8155 60.5264 43.9176 58.0477 42.8067Z" fill="black"/>
<path d="M124.218 38.2974C124.218 38.2974 123.595 36.8572 125.592 33.0197C127.589 29.1821 124.593 25.3446 124.593 25.3446L115.315 24.0273C115.315 24.0273 118.31 27.8649 116.313 31.7025C114.316 35.54 114.939 36.9802 114.939 36.9802L124.218 38.2974Z" fill="#24BC85"/>
<path d="M138.648 37.6387C139.333 39.0262 139.209 41.7045 139.068 44.4093L131.579 45.9812L128.928 42.0295L138.648 37.6387Z" fill="#FFD0BC"/>
<path d="M112.327 78.4291L111.054 69.7397C118.424 68.6772 123.726 66.091 126.815 62.0558C129.961 57.9504 131.123 51.9658 130.27 44.2687L139.054 43.3115C141.285 63.4389 132.037 75.5795 112.327 78.4291Z" fill="#FFD0BC"/>
<path fill-rule="evenodd" clip-rule="evenodd" d="M123.557 40.5806C123.874 39.5725 124.953 39.0108 125.968 39.3259C128.427 40.09 130.256 40.9628 131.84 43.1452C132.462 44.0016 132.268 45.197 131.406 45.815C130.544 46.4331 129.341 46.2398 128.719 45.3834C127.83 44.1584 126.91 43.6262 124.819 42.9765C123.805 42.6613 123.239 41.5887 123.557 40.5806Z" fill="#FFD0BC"/>
<path d="M89.9578 130.136C71.8602 121.97 63.7349 113.877 65.1046 105.403C66.8321 94.7291 82.1019 93.1001 87.1212 92.5645L88.5395 105.662C83.0651 106.246 80.2507 107.181 78.8942 107.809C80.5334 109.737 85.1153 113.482 95.4409 118.141L89.9578 130.136Z" fill="#FFD0BC"/>
<path d="M89.7714 115.392C91.4327 116.265 93.3149 117.183 95.4401 118.145C95.259 123.071 93.527 127.124 89.957 130.136C87.8229 129.174 85.8302 128.213 83.9701 127.251" fill="#E5ECFF"/>
<path d="M85.9719 126.988C85.1059 127.8 85.3798 129.232 86.4888 129.666L86.9483 129.846C86.8865 131.041 86.6877 130.663 86.7407 131.726C83.8025 133.289 82.9895 133.161 82.1986 135.813L87.399 135.853L87.3902 137.306L93.9691 137.35L93.9868 134.549L101.29 121.192L94.3623 116.867C91.1502 119.032 94.0133 121.877 92.7717 124.152C92.1797 125.236 90.5316 125.965 88.994 125.723C87.832 125.535 86.6611 126.031 85.9719 126.988Z" fill="#24BC85"/>
<path d="M81.7744 138.711C81.7833 137.693 81.9291 136.727 82.203 135.809L93.2444 135.888L101.295 121.188L103.778 122.737L94.9764 138.808L81.7744 138.711Z" fill="#E6E6E6"/>
<path fill-rule="evenodd" clip-rule="evenodd" d="M97.1476 117.989C97.4438 118.055 97.6299 118.348 97.5633 118.642C96.9644 121.287 97.3673 123.461 99.2928 125.097C99.5237 125.293 99.5508 125.638 99.3535 125.867C99.1562 126.097 98.8092 126.124 98.5783 125.928C96.2446 123.945 95.8345 121.299 96.4905 118.402C96.5571 118.108 96.8513 117.923 97.1476 117.989Z" fill="white"/>
<path fill-rule="evenodd" clip-rule="evenodd" d="M86.337 129.963C87.6076 128.825 89.3898 128.824 91.0576 129.013C91.3593 129.048 91.576 129.318 91.5416 129.618C91.5072 129.918 91.2347 130.133 90.933 130.099C89.2694 129.911 87.9499 129.989 87.0732 130.775C86.8476 130.977 86.5 130.959 86.2967 130.734C86.0934 130.51 86.1114 130.165 86.337 129.963Z" fill="white"/>
<path fill-rule="evenodd" clip-rule="evenodd" d="M86.1523 131.381C87.8089 130.955 89.387 131.767 90.7821 132.704C91.0337 132.873 91.0997 133.213 90.9296 133.463C90.7595 133.713 90.4177 133.779 90.1661 133.61C88.7777 132.677 87.5723 132.145 86.4276 132.439C86.1337 132.515 85.8337 132.339 85.7576 132.047C85.6816 131.755 85.8583 131.457 86.1523 131.381Z" fill="white"/>
<path d="M47.2237 83.0751C47.8511 95.7777 40.3179 109.617 28.9053 116.731L27.8448 117.389L30.2352 131.69L35.1749 131.615L35.9481 127.888C43.5565 123.146 49.9278 116.256 54.3682 107.967C58.7733 99.7426 60.8809 90.9083 60.4655 82.4297L47.2237 83.0751Z" fill="#D43E51"/>
<path fill-rule="evenodd" clip-rule="evenodd" d="M48.539 116.73L39.6876 106.574C36.7564 110.606 33.0917 114.121 28.905 116.73L27.8446 117.389L30.2349 131.69L35.1746 131.615L35.9479 127.887C40.6788 124.938 44.9315 121.16 48.539 116.73Z" fill="#E5ECFF"/>
<path d="M24.2922 118.188L30.1907 139.55C34.724 137.481 36.7034 134.522 36.1688 130.689C35.1481 128.309 33.4294 128.884 31.5958 129.938L28.4411 116.827L24.2922 118.188Z" fill="#102156"/>
<path d="M24.2923 118.188L21.2039 119.343L27.2084 141.231L30.1908 139.55L24.2923 118.188Z" fill="#E5ECFF"/>
<path d="M37.9494 83.9928C38.1968 89.0423 37.481 91.3782 37.0701 92.2695C35.7756 91.8392 32.02 90.0038 26.1701 82.4517L23.9609 79.0137L9.81775 82.5614L10.2993 87.4484L13.7059 87.8567C25.2643 103.896 34.1496 106.491 39.9642 105.35C40.5474 105.236 41.0953 105.086 41.6166 104.906C46.384 103.264 51.9158 98.1927 51.1912 83.3562L37.9494 83.9928Z" fill="#BD3E42"/>
<path fill-rule="evenodd" clip-rule="evenodd" d="M51.1282 88.558C51.4311 88.5794 51.6592 88.8408 51.6377 89.1418C51.2938 93.9559 50.1771 97.9574 48.0687 100.899C45.9458 103.861 42.8508 105.702 38.6689 106.238C38.3678 106.276 38.0921 106.065 38.0533 105.766C38.0144 105.466 38.2271 105.193 38.5283 105.154C42.432 104.654 45.2421 102.959 47.173 100.265C49.1185 97.5507 50.2043 93.7739 50.5408 89.0644C50.5623 88.7634 50.8253 88.5367 51.1282 88.558Z" fill="#641D2A"/>
<path d="M35.0288 91.2464C33.1024 90.0258 30.1112 87.5362 26.1745 82.4517L23.9653 79.0137L9.82214 82.5614L10.3037 87.4484L13.7103 87.8567C20.4571 97.2179 26.2938 101.999 31.1407 104.133" fill="#E5ECFF"/>
<path d="M22.8693 75.5576L1.93518 83.1669C4.38295 87.483 7.51114 89.1998 11.3153 88.3524C13.6173 87.1449 12.8971 85.4896 11.6909 83.764L24.5792 79.5532L22.8693 75.5576Z" fill="#102156"/>
<path d="M22.8694 75.5575L21.4555 72.5938L0 80.3523L1.93524 83.1668L22.8694 75.5575Z" fill="#E5ECFF"/>
<path d="M20.0651 85.5378C19.5305 85.0417 18.691 85.0636 18.1917 85.5949C17.7852 86.0252 17.4052 86.4687 17.0474 86.9209C16.6011 86.8156 16.1107 86.9385 15.7749 87.2942C15.766 87.3029 15.7616 87.3117 15.7528 87.3205C15.6865 87.1141 15.576 86.9209 15.4037 86.7629C15.0458 86.4292 14.5554 86.337 14.118 86.4643C14.2417 86.012 14.118 85.5071 13.7513 85.1646C13.6276 85.0505 13.4906 84.967 13.3448 84.91C13.5083 84.7255 13.6717 84.5411 13.8441 84.3567C14.3433 83.8254 14.3168 82.9912 13.7866 82.495C13.252 81.9989 12.4125 82.0208 11.9132 82.5521C10.3756 84.1811 9.19153 85.9769 8.39623 87.8913C8.15322 88.4753 8.3653 89.1295 8.86457 89.4764C8.68342 89.8364 8.5111 90.1965 8.36088 90.5609C8.08252 91.2327 8.40064 92.0055 9.08107 92.2821C9.24897 92.3524 9.41686 92.3831 9.58918 92.3831C9.71731 92.3831 9.84544 92.3655 9.96474 92.3304C9.79684 92.9583 10.115 93.6257 10.7335 93.8803C10.9014 93.9506 11.0693 93.9813 11.2416 93.9813C11.6172 93.9813 11.9795 93.8189 12.2314 93.5379C12.3462 93.8935 12.6069 94.2009 12.9825 94.3546C13.1504 94.4248 13.3183 94.4555 13.4906 94.4555C14.0119 94.4555 14.5024 94.1482 14.7145 93.6432C14.8647 93.2788 15.037 92.9188 15.227 92.5631C15.1651 93.4369 17.1136 93.5862 17.5952 92.5236C18.2359 91.1098 19.2565 88.6114 20.2462 86.8156C20.5865 86.1789 20.5997 86.0384 20.0651 85.5378Z" fill="#BD3E42"/>
<path d="M18.8329 88.5939C10.9417 92.6466 7.77373 91.7685 11.4807 83.7245L30.0378 56.0625L37.3899 60.9319L18.8329 88.5939Z" fill="#BD3E42"/>
<path fill-rule="evenodd" clip-rule="evenodd" d="M12.1712 85.06C12.4149 85.24 12.4657 85.5823 12.2846 85.8245L9.30661 89.8069C9.12549 90.0492 8.78108 90.0996 8.53735 89.9196C8.29361 89.7396 8.24285 89.3973 8.42397 89.1551L11.4019 85.1727C11.5831 84.9305 11.9275 84.88 12.1712 85.06Z" fill="#641D2A"/>
<path fill-rule="evenodd" clip-rule="evenodd" d="M13.4543 86.7878C13.7137 86.9447 13.7959 87.2809 13.638 87.5386L10.66 92.3993C10.5021 92.657 10.1638 92.7387 9.90448 92.5818C9.64511 92.4249 9.56286 92.0887 9.72078 91.8309L12.6987 86.9703C12.8567 86.7126 13.1949 86.6309 13.4543 86.7878Z" fill="#641D2A"/>
<path fill-rule="evenodd" clip-rule="evenodd" d="M15.6453 87.6554C15.9105 87.8025 16.0054 88.1354 15.8573 88.3988L12.8793 93.6985C12.7313 93.962 12.3964 94.0563 12.1312 93.9092C11.8661 93.7621 11.7712 93.4292 11.9192 93.1657L14.8972 87.866C15.0453 87.6026 15.3802 87.5082 15.6453 87.6554Z" fill="#641D2A"/>
<path fill-rule="evenodd" clip-rule="evenodd" d="M17.3755 88.5156C17.651 88.6425 17.7709 88.9673 17.6432 89.2411L15.9907 92.7845C15.863 93.0583 15.5362 93.1774 15.2607 93.0505C14.9851 92.9236 14.8653 92.5988 14.993 92.325L16.6455 88.7816C16.7731 88.5078 17.1 88.3887 17.3755 88.5156Z" fill="#641D2A"/>
<path d="M121.013 131.304C111.616 131.308 107.4 128.928 104.414 126.189C98.2103 120.511 98.0424 111.769 98.4533 105.692L111.677 106.579C111.328 111.725 111.92 115.159 113.392 116.503C115.535 118.465 121.769 118.689 131.922 117.174L133.893 130.202C128.741 130.97 124.517 131.304 121.013 131.304Z" fill="#FFD0BC"/>
<path d="M123.705 118.079C126.074 117.943 128.813 117.64 131.919 117.179L133.89 130.206C130.275 130.746 127.121 131.071 124.346 131.216" fill="#E5ECFF"/>
<path d="M90.9201 88.1377V92.0894L82.6136 93.2003L85.6225 107.896L98.0072 105.692L98.0249 110.821C103.106 113.113 108.116 113.323 113.016 110.522L112.57 103.058C115.972 99.2376 114.943 95.2508 112.124 91.2025V88.568L90.9201 88.1377Z" fill="#CF693F"/>
<path fill-rule="evenodd" clip-rule="evenodd" d="M107.248 89.5762C107.552 89.5744 107.8 89.8176 107.801 90.1193L107.823 93.6964C109.745 97.2449 109.667 101.036 108.716 104.865L109.157 112.246C109.175 112.547 108.944 112.806 108.641 112.824C108.337 112.842 108.077 112.612 108.059 112.311L107.613 104.847C107.609 104.791 107.615 104.736 107.628 104.682C108.573 100.926 108.613 97.3769 106.792 94.1014C106.748 94.0214 106.724 93.9317 106.724 93.8404L106.702 90.1258C106.7 89.824 106.945 89.578 107.248 89.5762Z" fill="#9E4E31"/>
<path fill-rule="evenodd" clip-rule="evenodd" d="M100.506 89.7989C100.8 89.7252 101.099 89.9026 101.173 90.1953C101.722 92.359 102.638 94.0441 103.888 95.297C105.137 96.5486 106.745 97.3964 108.724 97.8443C109.02 97.9114 109.205 98.2042 109.138 98.4985C109.071 98.7927 108.776 98.9769 108.48 98.9098C106.327 98.4226 104.523 97.4855 103.107 96.0664C101.693 94.6486 100.694 92.7771 100.107 90.4623C100.033 90.1696 100.211 89.8726 100.506 89.7989Z" fill="#9E4E31"/>
<path fill-rule="evenodd" clip-rule="evenodd" d="M97.3164 92.2992L96.7884 92.147L96.466 91.7044C96.6562 91.5676 96.9128 91.5659 97.1048 91.7002C97.2968 91.8345 97.3818 92.0751 97.3164 92.2992ZM95.6386 93.7808C95.4142 93.9806 95.1846 94.1951 94.9654 94.4163C94.4703 94.9158 94.0683 95.4098 93.8754 95.82C93.7798 96.0233 93.7571 96.1615 93.7635 96.2445C93.7681 96.304 93.7865 96.3538 93.8621 96.414M95.6386 93.7808C95.5164 94.0893 95.3803 94.4105 95.2338 94.7217C94.9262 95.3749 94.5979 95.9282 94.2882 96.241C94.1335 96.3972 94.0284 96.4469 93.9786 96.4583C93.9777 96.4585 93.9769 96.4587 93.976 96.4589C93.9592 96.463 93.932 96.4694 93.8621 96.414M96.7884 92.147C96.466 91.7044 96.4661 91.7043 96.466 91.7044L96.4613 91.7077L96.4499 91.716C96.44 91.7232 96.4258 91.7336 96.4075 91.747C96.3709 91.774 96.3181 91.8131 96.2519 91.8631C96.1194 91.9631 95.9327 92.1068 95.7139 92.2829C95.278 92.6338 94.7071 93.1195 94.1819 93.6494C93.6663 94.1697 93.1543 94.7722 92.8791 95.3574C92.7407 95.6517 92.6408 95.9859 92.667 96.3277C92.6951 96.6929 92.8644 97.0203 93.1753 97.2674C93.4872 97.5152 93.8525 97.6086 94.2254 97.5232C94.5652 97.4454 94.848 97.2337 95.0721 97.0074C95.5201 96.5549 95.9128 95.8582 96.2298 95.1848C96.5535 94.4975 96.8247 93.7761 97.0141 93.2309C97.1091 92.9573 97.1843 92.7258 97.2358 92.5622C97.2616 92.4804 97.2815 92.4154 97.2951 92.3705L97.3107 92.3186L97.3148 92.3047L97.3164 92.2992C97.3165 92.2991 97.3164 92.2992 96.7884 92.147Z" fill="white"/>
<path fill-rule="evenodd" clip-rule="evenodd" d="M97.2567 91.8748L96.78 92.147L96.2356 92.0707C96.2684 91.8396 96.4452 91.6547 96.6758 91.6105C96.9064 91.5663 97.1397 91.6725 97.2567 91.8748ZM97.1547 94.1066C97.1389 94.437 97.1306 94.7845 97.1359 95.1271C97.1471 95.8479 97.2184 96.486 97.3719 96.8972C97.4486 97.1027 97.5241 97.191 97.5651 97.2219C97.5658 97.2224 97.5664 97.2229 97.5671 97.2234C97.5811 97.2342 97.6033 97.2513 97.6901 97.2293C97.7827 97.2054 97.8196 97.1679 97.8482 97.1155C97.8881 97.0424 97.9244 96.9071 97.9209 96.6826C97.9139 96.2298 97.7509 95.6155 97.5055 94.9584C97.3971 94.6681 97.2766 94.3797 97.1547 94.1066Z" fill="white"/>
<path fill-rule="evenodd" clip-rule="evenodd" d="M90.8449 28.8138C91.6012 28.7483 92.2677 29.3043 92.3337 30.0559L93.1821 39.7157C93.2481 40.4672 92.6885 41.1297 91.9322 41.1953C91.1759 41.2608 90.5093 40.7048 90.4433 39.9532L89.595 30.2934C89.529 29.5419 90.0886 28.8794 90.8449 28.8138Z" fill="#15513C"/>
<path d="M94.8415 28.656C96.6133 26.4811 96.3923 23.3846 94.3478 21.7398C92.3034 20.095 89.2097 20.5247 87.4379 22.6996C85.6661 24.8746 85.8871 27.9711 87.9315 29.6159C89.976 31.2607 93.0697 30.8309 94.8415 28.656Z" fill="#24BC85"/>
<path d="M96.0025 26.1127C96.5062 24.0929 96.6608 22.0951 96.4664 20.1631C96.4045 19.5352 95.9053 19.0566 95.3 18.9864C95.2911 18.5868 95.269 18.1873 95.2293 17.7921C95.1586 17.0676 94.5091 16.5407 93.78 16.611C93.4619 16.6329 93.188 16.7734 92.9803 16.9798C92.8301 16.3475 92.2336 15.9084 91.5665 15.9743C90.9832 16.027 90.537 16.4485 90.4133 16.9798C90.1437 16.7207 89.7682 16.5715 89.3617 16.611C89.3529 16.611 89.344 16.611 89.3308 16.6154C88.6194 16.7032 88.1025 17.3398 88.1732 18.0512C88.319 19.5221 88.2218 21.0457 87.8904 22.5956C91.0318 23.2367 93.811 24.3168 96.0025 26.1127Z" fill="#24BC85"/>
<path fill-rule="evenodd" clip-rule="evenodd" d="M94.3327 16.5717C94.3544 16.8727 94.1265 17.1342 93.8237 17.1559C93.4166 17.1849 93.1001 17.5566 93.143 17.998C93.3223 19.8128 93.1466 21.6966 92.6319 23.6022C92.5532 23.8936 92.2516 24.0665 91.9583 23.9882C91.6651 23.91 91.4911 23.6103 91.5698 23.3189C92.0537 21.5275 92.2138 19.7759 92.0485 18.1045L92.0485 18.1038C91.9502 17.0964 92.6763 16.1422 93.7449 16.0659C94.0477 16.0443 94.3109 16.2707 94.3327 16.5717Z" fill="#15513C"/>
<path fill-rule="evenodd" clip-rule="evenodd" d="M92.1177 15.9263C92.1448 16.2268 91.9217 16.4924 91.6192 16.5194C91.1954 16.5572 90.8867 16.9298 90.9287 17.3622C91.1081 19.1726 90.9323 21.0609 90.4177 22.9664C90.339 23.2579 90.0374 23.4307 89.7441 23.3525C89.4508 23.2743 89.2769 22.9746 89.3556 22.6831C89.8394 20.8917 89.9995 19.1358 89.8343 17.4689L89.8342 17.4681C89.7351 16.4517 90.4691 15.5248 91.5208 15.4309C91.8233 15.4039 92.0905 15.6257 92.1177 15.9263ZM90.3815 17.4153L90.3814 17.4153L90.3815 17.4153Z" fill="#15513C"/>
<path fill-rule="evenodd" clip-rule="evenodd" d="M86.6565 23.5674C89.5816 21.7086 92.9095 23.0334 96.1848 25.5165C96.4262 25.6995 96.4726 26.0424 96.2884 26.2823C96.1043 26.5222 95.7592 26.5683 95.5178 26.3853C92.2716 23.9243 89.5198 23.045 87.2489 24.488C86.9931 24.6506 86.6531 24.5763 86.4895 24.3221C86.3259 24.0678 86.4007 23.73 86.6565 23.5674Z" fill="#15513C"/>
<path d="M89.6005 19.7152C89.6403 19.0654 89.194 18.499 88.5754 18.3585L88.6506 17.0807C88.6947 16.3563 88.138 15.7328 87.4046 15.6889C87.3206 15.6845 87.2367 15.6889 87.1572 15.6976C86.9848 15.2015 86.5253 14.837 85.9686 14.8107C85.3103 14.7844 84.758 15.2234 84.6166 15.8338C84.4575 15.7547 84.2808 15.702 84.0908 15.6889C83.353 15.6406 82.7344 16.1982 82.6902 16.9271L82.6504 17.5593C82.509 17.4979 82.3588 17.454 82.1953 17.4452C81.4575 17.3969 80.8389 17.9545 80.7947 18.6834C80.7947 18.6834 80.3352 25.735 80.3175 25.7438C80.2203 35.0479 78.3337 41.5287 74.8565 44.4881C72.5633 46.442 69.3556 47.0874 65.0389 46.4727L63.7797 55.1621C65.2377 55.3729 66.6383 55.4739 67.9859 55.4739C73.0008 55.4739 77.2335 54.0293 80.6047 51.1533C85.9377 46.6132 88.7213 38.9249 89.1056 27.7021C89.1101 27.6757 89.1145 27.6494 89.1189 27.623L89.6005 19.7152Z" fill="#BD3E42"/>
<path d="M53.2061 23.1797C52.8394 23.1357 52.4815 23.1445 52.1413 23.1884C50.7539 23.3772 51.3592 22.8635 48.1692 22.3498C44.9791 21.8361 39.5755 22.2927 38.1086 25.5287C37.3309 27.2455 39.3855 30.6396 34.8169 31.9305C30.2483 33.2214 31.8787 37.52 30.6327 37.7878C30.182 37.8844 29.7225 38.0162 29.263 38.1874C26.2055 39.3246 26.0509 41.7308 26.7402 43.5617C26.7976 43.7154 26.8727 43.8603 26.9655 44.0008C27.9066 45.4146 26.506 46.3806 25.2954 47.5705C25.2688 47.5969 25.2423 47.6232 25.2202 47.6452C23.8417 49.0151 24.0494 51.4476 25.6886 53.0766C27.3278 54.7056 38.3516 56.519 38.3516 56.519L49.8393 40.7121L51.7215 31.3685C52.0396 31.4431 52.371 31.4914 52.7112 31.4914C55.1855 31.4914 57.1605 29.3619 56.8821 26.8504C56.6701 24.9448 55.1192 23.3992 53.2061 23.1797Z" fill="black"/>
<path d="M54.699 29.7351C58.4457 34.8635 55.1408 41.1511 51.1643 42.0293V45.1028L45.8623 43.7856L45.4204 38.9557L42.7694 35.4431L48.9551 27.1006L54.699 29.7351Z" fill="#BD3E42"/>
<path d="M58.2256 45.4232L67.513 45.9808L67.9549 59.5923L56.4671 56.0797L38.3519 59.5923L35.2591 66.1785L27.306 57.3969L35.7009 46.859L44.5376 44.2245L45.545 41.8359L48.8367 44.387L51.1651 42.0291L52.0488 44.6636L58.2256 45.4232Z" fill="#E5ECFF"/>
<path d="M96.6465 45.095L87.8557 45.9863L90.0644 67.4985L98.8551 66.6072L96.6465 45.095Z" fill="#FFC0A5"/>
<path d="M35.2577 85.937C48.0886 91.7768 57.4157 93.1028 62.2096 88.5715L58.675 72.7646L39.1017 73.2037C39.0752 78.0775 37.6127 82.3366 35.2577 85.937Z" fill="#BACBF7"/>
<path d="M50.2803 73.6428C51.6058 77.1554 56.0109 81.6297 61.3262 79.3508L59.117 72.7646L38.8811 73.4233C37.856 75.4343 37.9089 76.2773 37.0253 78.0336C45.4201 79.3508 48.513 78.0336 50.2803 73.6428Z" fill="#E5ECFF"/>
<path fill-rule="evenodd" clip-rule="evenodd" d="M48.8216 43.841C49.066 43.8345 49.2854 43.9891 49.36 44.2205L50.6855 48.3302C50.7782 48.6176 50.6189 48.9252 50.3297 49.0173C50.0406 49.1094 49.731 48.9511 49.6383 48.6638L48.8895 46.3422L48.2018 48.9516C48.1249 49.2435 47.8244 49.4182 47.5307 49.3417C47.2369 49.2653 47.0611 48.9666 47.1381 48.6747L48.3045 44.2488C48.3665 44.0137 48.5771 43.8476 48.8216 43.841Z" fill="#BACBF7"/>
<path d="M38.3514 59.5924L38.8815 72.3257C38.9036 73.0458 39.2615 72.9843 39.9861 72.9843H58.4725C59.2413 72.9843 59.9659 73.0019 59.9262 72.2379L59.1132 56.5188L59.555 45.5418L52.0438 44.6637L48.951 50.8108L44.5326 44.2246C40.9184 44.6286 37.8477 45.4145 35.6959 46.8591L40.9979 56.0798L38.3514 59.5924Z" fill="#24BC85"/>
<path d="M35.7009 46.8594C35.7009 46.8594 33.611 49.5729 33.5491 49.5334C33.4917 49.4939 39.1649 58.6267 39.1649 58.6267L40.9985 56.0844L35.7009 46.8594Z" fill="#24DB83"/>
<path d="M59.5596 45.542L61.7157 45.6254L61.3932 57.5859L59.1089 56.9493L59.5596 45.542Z" fill="#24DB83"/>
<path d="M38.7616 70.6614L59.8283 70.3848L60.0006 73.59L38.8455 73.6427L38.7616 70.6614Z" fill="#24DB83"/>
<path fill-rule="evenodd" clip-rule="evenodd" d="M42.0176 44.2122C42.2685 44.0422 42.6106 44.1065 42.7816 44.3558L48.892 53.2619L53.4425 44.5953C53.5829 44.3278 53.9151 44.224 54.1843 44.3636C54.4535 44.5032 54.5579 44.8333 54.4174 45.1008L49.4423 54.5762C49.3529 54.7464 49.1801 54.8576 48.9872 54.8689C48.7942 54.8801 48.6095 54.7899 48.5006 54.6312L41.8731 44.9714C41.702 44.7221 41.7667 44.3822 42.0176 44.2122Z" fill="#89F0BE"/>
<path d="M48.0715 29.296C48.0185 31.6977 48.7077 32.633 46.3042 33.6868H45.341C44.8991 33.6868 44.5368 34.0424 44.5368 34.4859V35.9656C44.5368 36.4047 44.8947 36.7647 45.341 36.7647H46.3042C46.3749 38.4903 45.8093 39.5309 44.9787 40.2773L39.6766 34.1302L49.8388 25.3486C55.3309 26.4639 57.1733 27.285 54.699 29.7394C52.4103 29.757 49.2114 30.499 48.0715 29.296Z" fill="black"/>
<path d="M66.1766 40.0508L58.6528 39.8049C58.1483 39.7891 57.7523 39.3661 57.7682 38.8647C57.784 38.3634 58.2097 37.9699 58.7142 37.9856L66.238 38.2316C66.3651 38.2352 66.748 38.2501 67.0557 37.7016C67.3896 37.1071 67.412 36.2142 67.1039 35.7477C66.9772 35.5539 66.8246 35.4894 66.5691 35.5197C66.0873 35.5705 65.7586 35.8108 65.6155 35.9795C65.6925 36 65.8085 36.0258 65.9707 36.0362C66.4739 36.0755 66.8517 36.5139 66.8122 37.014C66.7726 37.514 66.3286 37.8813 65.8282 37.8502C64.2851 37.7296 63.7222 36.8713 63.7103 36.1104C63.6923 34.9483 64.8889 33.8737 66.3734 33.7127C67.3049 33.6127 68.1282 33.9893 68.6334 34.7465C69.32 35.7764 69.3303 37.3954 68.6596 38.5898C68.1108 39.5532 67.2093 40.0835 66.1766 40.0508Z" fill="#FDBF85"/>
<path d="M61.1618 39.8833L58.6562 39.799C58.1517 39.7833 57.7557 39.3602 57.7715 38.8589C57.7874 38.3575 58.2131 37.964 58.7176 37.9798L61.2078 38.06L61.1618 39.8833Z" fill="#318C6E"/>
<path fill-rule="evenodd" clip-rule="evenodd" d="M52.4429 32.0822C52.9455 32.1448 53.3989 32.3805 53.7945 32.7683C54.0107 32.9802 54.0131 33.3261 53.7999 33.541C53.5867 33.7558 53.2385 33.7582 53.0223 33.5463C52.7728 33.3018 52.5348 33.195 52.3061 33.1665C52.0705 33.1372 51.7906 33.1844 51.454 33.3406C51.1789 33.4683 50.8517 33.3502 50.7232 33.0768C50.5947 32.8033 50.7135 32.4782 50.9887 32.3505C51.4563 32.1335 51.9473 32.0205 52.4429 32.0822Z" fill="black"/>
<path d="M56.9174 37.1447C56.8202 37.8341 55.0705 37.5882 55.1677 36.8989C55.2649 36.2095 55.7377 35.7046 56.2237 35.7704C56.7053 35.8407 57.0146 36.4554 56.9174 37.1447Z" fill="#641D2A"/>
<path fill-rule="evenodd" clip-rule="evenodd" d="M87.9446 19.5906C87.9446 19.5907 87.9446 19.5906 87.9446 19.5906L87.6574 24.3673C87.6393 24.6686 87.3789 24.8982 87.0758 24.8802C86.7727 24.8622 86.5416 24.6034 86.5597 24.3022L86.8469 19.525C86.9092 18.5044 87.7835 17.7117 88.8292 17.7739C89.1324 17.792 89.3634 18.0508 89.3452 18.352C89.3271 18.6532 89.0666 18.8828 88.7635 18.8648C88.3336 18.8392 87.9708 19.1624 87.9446 19.5906Z" fill="#641D2A"/>
<path fill-rule="evenodd" clip-rule="evenodd" d="M86.6187 16.951C86.6473 16.5251 87.009 16.2045 87.4373 16.23C87.7405 16.2481 88.0009 16.0185 88.019 15.7173C88.0372 15.416 87.8062 15.1572 87.5031 15.1392C86.4573 15.0769 85.583 15.8691 85.5208 16.8897L85.5202 16.9009L85.233 24.0052C85.2208 24.3067 85.4569 24.561 85.7603 24.5731C86.0637 24.5852 86.3196 24.3506 86.3318 24.049L86.6187 16.951Z" fill="#641D2A"/>
<path fill-rule="evenodd" clip-rule="evenodd" d="M84.3339 15.499C84.6371 15.5165 84.8685 15.775 84.8509 16.0762L84.4091 23.6196C84.3914 23.9209 84.1313 24.1509 83.8282 24.1333C83.525 24.1158 83.2936 23.8574 83.3112 23.5561L83.7531 16.0127C83.7707 15.7115 84.0308 15.4815 84.3339 15.499Z" fill="#641D2A"/>
<path fill-rule="evenodd" clip-rule="evenodd" d="M82.5368 16.97C82.8398 16.99 83.0691 17.2503 83.0489 17.5514L82.6424 23.6239C82.6223 23.925 82.3603 24.1529 82.0573 24.1328C81.7543 24.1128 81.525 23.8525 81.5452 23.5514L81.9517 17.4789C81.9718 17.1778 82.2338 16.9499 82.5368 16.97Z" fill="#641D2A"/>
<path fill-rule="evenodd" clip-rule="evenodd" d="M96.0107 19.3717C96.0384 19.6722 95.8157 19.9381 95.5133 19.9656C95.0977 20.0033 94.7805 20.3803 94.8218 20.8082C94.9506 22.0887 94.8994 23.4009 94.6803 24.7345C94.6314 25.0324 94.3488 25.2344 94.0491 25.1857C93.7494 25.1371 93.5461 24.8563 93.595 24.5584C93.8 23.3106 93.8461 22.0941 93.7275 20.916L93.7274 20.9144L93.7274 20.9144C93.6278 19.8936 94.3797 18.9712 95.4131 18.8773C95.7155 18.8498 95.9831 19.0712 96.0107 19.3717Z" fill="#15513C"/>
<path d="M87.4743 49.4939L86.8646 44.3435C86.6127 42.2184 88.1636 40.2952 90.3065 40.0801L93.2491 39.7815C95.3478 39.5707 97.23 41.068 97.473 43.1492L98.096 48.4182L87.4743 49.4939Z" fill="#24DB83"/>
<path fill-rule="evenodd" clip-rule="evenodd" d="M94.2438 42.5762C93.9374 42.5762 93.689 42.823 93.689 43.1275C93.689 43.432 93.9374 43.6788 94.2438 43.6788C94.5502 43.6788 94.7985 43.432 94.7985 43.1275C94.7985 42.823 94.5502 42.5762 94.2438 42.5762ZM92.5894 43.1275C92.5894 42.2195 93.3301 41.4834 94.2438 41.4834C95.1575 41.4834 95.8982 42.2195 95.8982 43.1275C95.8982 44.0355 95.1575 44.7716 94.2438 44.7716C93.3301 44.7716 92.5894 44.0355 92.5894 43.1275Z" fill="#15513C"/>
<path d="M97.9984 64.861L98.4402 69.6908H95.7892L97.9984 75.8379C101.803 74.6129 104.489 72.7512 105.068 69.6908L103.742 64.4219L97.9984 64.861Z" fill="#FFD0BC"/>
<path d="M98.8819 60.0322L86.9524 62.6667L90.4871 72.3265L88.9848 86.5219C88.8302 87.9972 89.8066 89.354 91.2603 89.6833C98.1529 91.2596 105.218 90.9171 112.429 88.9676C113.988 88.5461 114.916 86.9522 114.505 85.3979L113.021 79.7908H117.439L116.224 68.6514L105.068 69.692C101.975 74.5219 94.9054 75.4 98.4401 69.692L98.8819 60.0322Z" fill="#FFE5B2"/>
<path d="M101.255 67.0242C105.386 67.3974 109.058 64.176 109.455 59.829C109.853 55.482 106.826 51.6555 102.695 51.2822C98.5638 50.909 94.8924 54.1304 94.4947 58.4774C94.097 62.8244 97.1237 66.651 101.255 67.0242Z" fill="#FFD0BC"/>
<path fill-rule="evenodd" clip-rule="evenodd" d="M90.9169 91.543C91.2205 91.541 91.4683 91.784 91.4704 92.0857L91.4792 93.3986C91.4812 93.7003 91.2367 93.9466 90.9331 93.9486C90.6294 93.9506 90.3816 93.7076 90.3796 93.4059L90.3707 92.093C90.3687 91.7913 90.6132 91.545 90.9169 91.543Z" fill="#9E4E31"/>
<path fill-rule="evenodd" clip-rule="evenodd" d="M109.76 85.1065C109.75 85.1243 109.737 85.1482 109.722 85.1794C109.655 85.3155 109.581 85.5193 109.499 85.787C109.373 86.1972 109.248 86.6964 109.115 87.2253C109.075 87.3859 109.034 87.5493 108.992 87.7137C108.963 87.8259 108.934 87.9388 108.905 88.0514C109.203 87.6384 109.485 87.1857 109.713 86.7439C109.902 86.377 110.049 86.0294 110.141 85.7282C110.235 85.4163 110.256 85.2006 110.239 85.0776C110.236 85.0576 110.232 85.0432 110.23 85.0333C110.179 85.0241 110.04 85.0184 109.76 85.1065ZM107.575 90.6424C107.817 90.5872 108.04 90.4653 108.222 90.3424C108.52 90.1407 108.824 89.8575 109.113 89.5392C109.692 88.9008 110.271 88.0555 110.691 87.243C110.901 86.836 111.078 86.4255 111.194 86.0435C111.306 85.6722 111.377 85.2797 111.328 84.9285C111.275 84.5488 111.068 84.1668 110.613 84.0072C110.224 83.8705 109.767 83.9438 109.305 84.1058C109.121 84.17 108.998 84.2961 108.926 84.387C108.848 84.4845 108.784 84.5957 108.732 84.7024C108.628 84.9164 108.534 85.1851 108.447 85.4688C108.312 85.9085 108.177 86.4465 108.043 86.9813C108.004 87.1372 107.965 87.2927 107.926 87.4455C107.748 88.1419 107.573 88.7795 107.392 89.2205C107.32 89.3953 107.258 89.5099 107.212 89.5779C106.974 89.5948 106.769 89.7644 106.715 90.0035C106.653 90.2782 106.811 90.5548 107.081 90.6423C107.266 90.7025 107.432 90.6907 107.575 90.6424ZM109.786 85.067C109.788 85.0646 109.789 85.0636 109.789 85.0636C109.789 85.0637 109.788 85.0649 109.786 85.067Z" fill="#FEA768"/>
<path fill-rule="evenodd" clip-rule="evenodd" d="M93.6767 86.7175C93.9757 86.7702 94.1751 87.0538 94.122 87.351C94.0311 87.8603 94.1227 88.3086 94.4023 88.726C94.6921 89.1587 95.206 89.5898 96.0117 89.9953C96.2826 90.1316 96.391 90.4604 96.2538 90.7296C96.1166 90.9988 95.7858 91.1065 95.5149 90.9702C94.6107 90.5151 93.9184 89.9758 93.4869 89.3316C93.0453 88.6722 92.9005 87.9371 93.0393 87.16C93.0923 86.8629 93.3777 86.6648 93.6767 86.7175Z" fill="#FEA768"/>
<path fill-rule="evenodd" clip-rule="evenodd" d="M76.07 107.972C76.0869 107.671 76.3465 107.44 76.6497 107.457L79.0974 107.593C79.4006 107.61 79.6326 107.868 79.6157 108.169C79.5987 108.47 79.3392 108.701 79.036 108.684L76.5882 108.548C76.285 108.531 76.053 108.273 76.07 107.972Z" fill="#F49B87"/>
<mask id="mask0_2037_92203" style="mask-type:alpha" maskUnits="userSpaceOnUse" x="50" y="33" width="4" height="3">
<path d="M53.6631 35.3973C53.3954 36.127 52.7253 35.8842 51.8987 35.5848C51.0721 35.2853 50.402 35.0425 50.6697 34.3128C50.9374 33.583 51.6075 33.8258 52.4341 34.1253C53.2607 34.4247 53.9308 34.6675 53.6631 35.3973Z" fill="white"/>
</mask>
<g mask="url(#mask0_2037_92203)">
<path d="M50.827 33.2676L54.2196 34.4967L53.5057 36.4427L50.1131 35.2136L50.827 33.2676Z" fill="white"/>
<path d="M53.909 35.2975C53.7119 35.8349 53.1035 36.108 52.5503 35.9075C51.997 35.7071 51.7084 35.109 51.9055 34.5716C52.1026 34.0343 52.7109 33.7611 53.2642 33.9616C53.8174 34.162 54.1061 34.7601 53.909 35.2975Z" fill="black"/>
</g>
<mask id="mask1_2037_92203" style="mask-type:alpha" maskUnits="userSpaceOnUse" x="98" y="55" width="4" height="3">
<path d="M98.7308 56.0995C98.4014 56.8039 99.0482 57.1026 99.8461 57.4711C100.644 57.8395 101.291 58.1383 101.62 57.4339C101.95 56.7295 101.303 56.4308 100.505 56.0623C99.707 55.6938 99.0602 55.3951 98.7308 56.0995Z" fill="white"/>
</mask>
<g mask="url(#mask1_2037_92203)">
<path d="M102.252 56.584L98.9778 55.0717L98.0994 56.95L101.374 58.4623L102.252 56.584Z" fill="white"/>
<path d="M98.628 55.8566C98.3855 56.3753 98.6218 56.9957 99.1558 57.2423C99.6898 57.489 100.319 57.2684 100.562 56.7497C100.804 56.231 100.568 55.6106 100.034 55.364C99.5001 55.1174 98.8706 55.3379 98.628 55.8566Z" fill="black"/>
</g>
<mask id="mask2_2037_92203" style="mask-type:alpha" maskUnits="userSpaceOnUse" x="94" y="54" width="3" height="2">
<path d="M95.1245 54.606C94.7951 55.3104 95.1675 55.4824 95.6269 55.6945C96.0863 55.9067 96.4588 56.0787 96.7882 55.3743C97.1176 54.6699 96.7451 54.4979 96.2857 54.2858C95.8263 54.0736 95.4539 53.9016 95.1245 54.606Z" fill="white"/>
</mask>
<g mask="url(#mask2_2037_92203)">
<path d="M97.338 54.4863L95.4525 53.6156L94.5742 55.4939L96.4596 56.3647L97.338 54.4863Z" fill="white"/>
<path d="M95.0964 54.3976C94.8538 54.9163 94.9065 55.4519 95.2139 55.5939C95.5214 55.7359 95.9673 55.4305 96.2099 54.9118C96.4524 54.3931 96.3998 53.8575 96.0923 53.7155C95.7848 53.5735 95.339 53.8789 95.0964 54.3976Z" fill="black"/>
</g>
<path fill-rule="evenodd" clip-rule="evenodd" d="M100.737 55.0677C100.525 54.9774 100.266 54.9506 99.9291 55.0369C99.635 55.1122 99.3352 54.9363 99.2595 54.6441C99.1837 54.3518 99.3607 54.0539 99.6548 53.9787C100.192 53.841 100.704 53.8647 101.17 54.0631C101.63 54.2589 101.998 54.604 102.291 55.0283C102.463 55.2771 102.399 55.6172 102.149 55.7881C101.899 55.9589 101.556 55.8957 101.384 55.647C101.174 55.3424 100.956 55.1607 100.737 55.0677Z" fill="#C8A4A0"/>
<path fill-rule="evenodd" clip-rule="evenodd" d="M97.0535 53.5201C97.0207 53.5294 96.9632 53.5521 96.8786 53.6051C96.6217 53.766 96.2822 53.6894 96.1203 53.434C95.9585 53.1787 96.0356 52.8413 96.2925 52.6805C96.6361 52.4654 97.0699 52.3191 97.4972 52.508C97.9011 52.6866 98.0987 53.0813 98.2036 53.4296C98.2907 53.7187 98.1254 54.0232 97.8345 54.1097C97.5436 54.1963 97.2372 54.032 97.1501 53.7429C97.1154 53.6276 97.0804 53.5591 97.0551 53.5225C97.0546 53.5217 97.054 53.5209 97.0535 53.5201ZM97.0349 53.4976C97.0349 53.4976 97.0351 53.4978 97.0355 53.4981L97.0349 53.4976Z" fill="#C8A4A0"/>
<path opacity="0.23" d="M103.139 66.9478C106.448 66.3694 109.119 63.5025 109.455 59.8294C109.853 55.4828 106.827 51.6559 102.695 51.2826C102.317 51.2484 101.94 51.2452 101.569 51.2691C101.745 53.0353 102.755 54.264 104.575 54.9796C104.034 55.7595 103.788 56.5089 104.375 57.166L105.594 58.052C106.085 58.4094 106.232 59.0753 105.936 59.604L105.034 61.2112C104.669 61.8615 103.806 62.0261 103.223 61.559L103.095 61.4592C101.955 63.1507 102.141 65.0016 103.139 66.9478Z" fill="#102156"/>
<path d="M103.915 60.5893C103.583 60.4403 103.437 60.0479 103.587 59.7176L103.953 58.9173C104.103 58.587 104.498 58.4419 104.83 58.591C105.163 58.7401 105.309 59.1324 105.159 59.4628L104.793 60.263C104.643 60.5933 104.248 60.7384 103.915 60.5893Z" fill="#F49B87"/>
<path d="M97.5917 58.3327C97.2161 59.0265 95.6609 58.1922 96.0364 57.4985C96.412 56.8047 97.0659 56.4315 97.4945 56.6598C97.9231 56.8925 97.9673 57.639 97.5917 58.3327Z" fill="#F49B87"/>
<path fill-rule="evenodd" clip-rule="evenodd" d="M105.365 69.2324C105.62 69.3955 105.694 69.7336 105.53 69.9874C103.482 73.1523 100.77 74.5462 98.8802 74.3518C97.9021 74.2513 97.0904 73.6989 96.8861 72.7032C96.6956 71.7744 97.0757 70.6268 97.995 69.3706C98.1736 69.1265 98.5175 69.0726 98.7631 69.2501C99.0087 69.4276 99.063 69.7693 98.8844 70.0134C98.0364 71.1721 97.8642 72.0003 97.9636 72.4849C98.0493 72.9024 98.3698 73.2007 98.9933 73.2648C100.307 73.3998 102.676 72.3788 104.605 69.3965C104.769 69.1427 105.109 69.0692 105.365 69.2324Z" fill="#B25735"/>
<path d="M127.128 131.168C127.468 132.889 129.554 132.038 129.554 132.038C135.421 134.518 134.202 140.174 140.065 139.028L135.629 116.608L127.517 117.675C126.43 121.381 130.464 121.759 130.967 124.292C131.224 125.588 130.437 126.738 129.05 127.217C126.098 128.24 127.044 130.738 127.128 131.168Z" fill="#24BC85"/>
<path d="M142.957 138.562C141.949 138.76 141.039 138.834 140.067 139.023L135.631 116.604L138.534 116.222L142.957 138.562Z" fill="#E6E6E6"/>
<path fill-rule="evenodd" clip-rule="evenodd" d="M130.38 116.775C130.65 116.639 130.981 116.746 131.119 117.015C132.354 119.433 134.06 120.848 136.593 120.887C136.897 120.892 137.139 121.14 137.134 121.442C137.13 121.744 136.88 121.985 136.576 121.98C133.507 121.932 131.492 120.159 130.138 117.51C130.001 117.241 130.109 116.912 130.38 116.775Z" fill="white"/>
<path fill-rule="evenodd" clip-rule="evenodd" d="M133.523 129.281C133.688 129.534 133.616 129.872 133.362 130.037C131.96 130.943 130.996 131.842 130.822 133.005C130.778 133.303 130.498 133.509 130.198 133.465C129.897 133.421 129.69 133.143 129.734 132.844C129.985 131.162 131.354 130.032 132.762 129.121C133.016 128.956 133.357 129.028 133.523 129.281Z" fill="white"/>
<path fill-rule="evenodd" clip-rule="evenodd" d="M135.136 131.296C135.302 131.549 135.23 131.888 134.976 132.052C133.574 132.959 132.609 133.857 132.436 135.02C132.391 135.319 132.112 135.525 131.811 135.481C131.511 135.436 131.304 135.159 131.348 134.86C131.599 133.178 132.967 132.047 134.376 131.136C134.63 130.972 134.971 131.043 135.136 131.296Z" fill="white"/>
<path fill-rule="evenodd" clip-rule="evenodd" d="M114.313 36.9998C114.424 36.2535 115.123 35.7377 115.874 35.8478L142.826 39.7995C143.577 39.9097 144.096 40.6039 143.985 41.3503C143.874 42.0966 143.176 42.6124 142.425 42.5023L115.473 38.5506C114.722 38.4404 114.203 37.7462 114.313 36.9998Z" fill="#D43E51"/>
<path fill-rule="evenodd" clip-rule="evenodd" d="M138.912 37.4339C139.465 38.1532 139.327 39.182 138.603 39.7317C138.506 39.8055 138.002 40.3352 137.829 42.0652C137.738 42.966 136.93 43.6234 136.023 43.5336C135.117 43.4437 134.455 42.6405 134.546 41.7397C134.761 39.597 135.459 37.9928 136.599 37.1269C137.323 36.5772 138.358 36.7147 138.912 37.4339Z" fill="#FFC0A5"/>
<path fill-rule="evenodd" clip-rule="evenodd" d="M136.72 37.1791C137.273 37.8983 137.135 38.9271 136.411 39.4768C136.314 39.5506 135.811 40.0803 135.637 41.8103C135.547 42.7111 134.738 43.3685 133.832 43.2787C132.925 43.1888 132.264 42.3857 132.354 41.4848C132.569 39.3421 133.268 37.7379 134.408 36.8721C135.132 36.3223 136.167 36.4598 136.72 37.1791Z" fill="#FFC0A5"/>
<path fill-rule="evenodd" clip-rule="evenodd" d="M134.524 36.9242C135.077 37.6435 134.939 38.6722 134.215 39.2219C134.118 39.2957 133.615 39.8254 133.441 41.5554C133.351 42.4563 132.543 43.1137 131.636 43.0238C130.73 42.9339 130.068 42.1308 130.159 41.2299C130.374 39.0873 131.072 37.483 132.212 36.6172C132.936 36.0674 133.971 36.2049 134.524 36.9242Z" fill="#FFC0A5"/>
<path fill-rule="evenodd" clip-rule="evenodd" d="M132.327 36.6693C132.88 37.3886 132.742 38.4173 132.018 38.9671C131.921 39.0409 131.418 39.5705 131.244 41.3005C131.154 42.2014 130.345 42.8588 129.439 42.7689C128.532 42.679 127.871 41.8759 127.961 40.9751C128.177 38.8324 128.875 37.2281 130.015 36.3623C130.739 35.8126 131.774 35.95 132.327 36.6693Z" fill="#FFC0A5"/>
<path fill-rule="evenodd" clip-rule="evenodd" d="M137.072 37.1402C137.295 37.3445 137.31 37.6901 137.104 37.9123C136.08 39.019 135.724 40.4698 135.808 42.21C135.823 42.5114 135.589 42.7675 135.285 42.782C134.982 42.7965 134.724 42.5639 134.71 42.2625C134.617 40.3496 135.003 38.5687 136.295 37.1727C136.5 36.9505 136.848 36.936 137.072 37.1402Z" fill="#F49B87"/>
<path fill-rule="evenodd" clip-rule="evenodd" d="M134.877 36.8854C135.1 37.0896 135.115 37.4352 134.909 37.6574C133.886 38.7641 133.529 40.2149 133.613 41.9551C133.628 42.2566 133.394 42.5127 133.091 42.5271C132.787 42.5416 132.53 42.309 132.515 42.0076C132.422 40.0947 132.808 38.3138 134.1 36.9178C134.305 36.6957 134.653 36.6811 134.877 36.8854Z" fill="#F49B87"/>
<path fill-rule="evenodd" clip-rule="evenodd" d="M132.684 36.6305C132.907 36.8347 132.922 37.1804 132.717 37.4025C131.693 38.5093 131.336 39.96 131.421 41.7003C131.435 42.0017 131.201 42.2578 130.898 42.2723C130.595 42.2868 130.337 42.0542 130.322 41.7527C130.23 39.8398 130.616 38.059 131.907 36.6629C132.113 36.4408 132.46 36.4262 132.684 36.6305Z" fill="#F49B87"/>
<path fill-rule="evenodd" clip-rule="evenodd" d="M129.825 45.6952C129.875 45.3975 130.157 45.1957 130.457 45.2446L131.668 45.4422C131.967 45.4911 132.17 45.7721 132.121 46.0699C132.072 46.3677 131.789 46.5695 131.49 46.5206L130.279 46.323C129.979 46.2741 129.776 45.993 129.825 45.6952Z" fill="#F49B87"/>
<path fill-rule="evenodd" clip-rule="evenodd" d="M67.5936 22.6369C67.5178 21.9735 67.9975 21.3746 68.665 21.2993L74.5758 20.6321C75.2433 20.5567 75.8459 21.0334 75.9218 21.6968C75.9976 22.3602 75.5179 22.959 74.8504 23.0344L68.9396 23.7016C68.2721 23.777 67.6695 23.3003 67.5936 22.6369Z" fill="#FFE5B2"/>
<path fill-rule="evenodd" clip-rule="evenodd" d="M67.7989 13.9966C67.9637 13.3493 68.6252 12.9573 69.2765 13.121L75.0437 14.5706C75.695 14.7343 76.0895 15.3918 75.9247 16.039C75.76 16.6863 75.0984 17.0783 74.4471 16.9146L68.68 15.465C68.0286 15.3013 67.6342 14.6438 67.7989 13.9966Z" fill="#FFE5B2"/>
<path fill-rule="evenodd" clip-rule="evenodd" d="M72.6163 6.12505C73.038 5.60534 73.8039 5.5238 74.3269 5.94292L78.9574 9.65399C79.4804 10.0731 79.5624 10.8342 79.1407 11.3539C78.7189 11.8736 77.9531 11.9551 77.4301 11.536L72.7996 7.82494C72.2766 7.40582 72.1945 6.64475 72.6163 6.12505Z" fill="#FFE5B2"/>
<path fill-rule="evenodd" clip-rule="evenodd" d="M109.42 22.6369C109.496 21.9735 109.016 21.3746 108.349 21.2993L102.438 20.6321C101.771 20.5567 101.168 21.0334 101.092 21.6968C101.016 22.3602 101.496 22.959 102.164 23.0344L108.074 23.7016C108.742 23.777 109.344 23.3003 109.42 22.6369Z" fill="#FFE5B2"/>
<path fill-rule="evenodd" clip-rule="evenodd" d="M109.215 13.9966C109.05 13.3493 108.389 12.9573 107.737 13.121L101.97 14.5706C101.319 14.7343 100.924 15.3918 101.089 16.039C101.254 16.6863 101.915 17.0783 102.567 16.9146L108.334 15.465C108.985 15.3013 109.38 14.6438 109.215 13.9966Z" fill="#FFE5B2"/>
<path fill-rule="evenodd" clip-rule="evenodd" d="M104.396 6.12505C103.975 5.60534 103.209 5.5238 102.686 5.94292L98.0553 9.65399C97.5323 10.0731 97.4503 10.8342 97.872 11.3539C98.2938 11.8736 99.0596 11.9551 99.5826 11.536L104.213 7.82494C104.736 7.40582 104.818 6.64475 104.396 6.12505Z" fill="#FFE5B2"/>
<path fill-rule="evenodd" clip-rule="evenodd" d="M44.9576 35.1543C44.9576 34.6727 45.3505 34.2822 45.8352 34.2822C46.3198 34.2822 46.7127 34.6727 46.7127 35.1543V35.3714C46.7127 35.853 46.3198 36.2434 45.8352 36.2434C45.3505 36.2434 44.9576 35.853 44.9576 35.3714V35.1543ZM46.0286 35.2628C45.9969 35.207 45.9414 35.1663 45.8758 35.1543C45.8626 35.1519 45.849 35.1506 45.8352 35.1506C45.8213 35.1506 45.8078 35.1519 45.7946 35.1543C45.729 35.1663 45.6735 35.207 45.6417 35.2628C45.6735 35.3186 45.729 35.3593 45.7946 35.3714C45.8078 35.3738 45.8213 35.375 45.8352 35.375C45.849 35.375 45.8626 35.3738 45.8758 35.3714C45.9414 35.3593 45.9969 35.3186 46.0286 35.2628Z" fill="#641D2A"/>
</svg>
