<?xml version="1.0" standalone="no"?>
<!DOCTYPE svg PUBLIC "-//W3C//DTD SVG 20010904//EN"
 "http://www.w3.org/TR/2001/REC-SVG-20010904/DTD/svg10.dtd">
<svg version="1.0" xmlns="http://www.w3.org/2000/svg"
 width="683.000000pt" height="683.000000pt" viewBox="0 0 683.000000 683.000000"
 preserveAspectRatio="xMidYMid meet">

<g transform="translate(0.000000,683.000000) scale(0.100000,-0.100000)"
fill="#000000" stroke="none">
<path d="M1831 4405 c-207 -45 -391 -153 -509 -298 -57 -71 -111 -160 -138
-229 -13 -32 -25 -48 -36 -48 -17 0 -18 20 -18 275 l0 275 -420 0 -420 0 0
-1580 0 -1580 440 0 440 0 0 998 c0 954 1 1002 19 1074 65 253 253 408 496
408 227 0 405 -134 460 -347 13 -49 15 -207 15 -1095 l0 -1038 424 0 425 0 3
1023 c4 932 5 1027 21 1082 56 194 177 319 348 360 238 56 481 -41 572 -229
57 -117 57 -101 57 -1213 l0 -1023 440 0 441 0 -4 1163 c-3 1135 -4 1164 -24
1257 -12 52 -35 134 -53 182 -111 305 -368 519 -700 582 -105 20 -330 21 -441
1 -310 -54 -561 -231 -686 -482 -59 -118 -71 -119 -108 -17 -74 202 -258 381
-471 457 -121 43 -210 57 -366 56 -81 0 -171 -7 -207 -14z"/>
<path d="M5960 2132 c-85 -22 -152 -63 -220 -132 -302 -308 -83 -831 349 -830
130 0 235 41 332 128 164 147 211 374 117 571 -36 76 -138 183 -214 223 -108
58 -240 72 -364 40z"/>
</g>
</svg>
