<svg width="373" height="373" viewBox="0 0 373 373" fill="none" xmlns="http://www.w3.org/2000/svg">
<g clip-path="url(#clip0_9738:151)">
<path d="M162.357 27.9736C173.364 8.9092 200.881 8.90917 211.888 27.9736L365.326 293.736C376.333 312.801 362.574 336.631 340.56 336.631H33.6843C11.6706 336.631 -2.08806 312.801 8.91881 293.736L162.357 27.9736Z" fill="#FEF8E3"/>
<path d="M224.206 124.268C222.752 124.268 221.329 124.7 220.119 125.508C218.91 126.316 217.967 127.465 217.41 128.809C216.853 130.154 216.708 131.633 216.991 133.06C217.275 134.487 217.976 135.797 219.005 136.826C220.034 137.855 221.344 138.556 222.771 138.84C224.198 139.123 225.677 138.978 227.022 138.421C228.366 137.864 229.515 136.921 230.323 135.711C231.131 134.502 231.563 133.079 231.563 131.624C231.563 129.673 230.788 127.802 229.408 126.423C228.029 125.043 226.158 124.268 224.206 124.268ZM224.206 65.417C222.255 65.417 220.384 66.192 219.005 67.5716C217.625 68.9512 216.85 70.8223 216.85 72.7734V102.199C216.85 104.15 217.625 106.021 219.005 107.401C220.384 108.78 222.255 109.555 224.206 109.555C226.158 109.555 228.029 108.78 229.408 107.401C230.788 106.021 231.563 104.15 231.563 102.199V72.7734C231.563 70.8223 230.788 68.9512 229.408 67.5716C228.029 66.192 226.158 65.417 224.206 65.417Z" fill="#F8B330"/>
<path d="M302.702 135.084L243.483 32.0946C241.569 28.663 238.774 25.8046 235.385 23.8148C231.997 21.825 228.139 20.7759 224.21 20.7759C220.28 20.7759 216.422 21.825 213.034 23.8148C209.645 25.8046 206.85 28.663 204.936 32.0946L146.085 135.084C144.104 138.424 143.04 142.227 143 146.11C142.959 149.993 143.944 153.817 145.854 157.198C147.765 160.578 150.533 163.395 153.88 165.363C157.227 167.332 161.034 168.382 164.917 168.409H283.502C287.416 168.447 291.27 167.444 294.668 165.502C298.067 163.56 300.888 160.749 302.842 157.358C304.796 153.966 305.813 150.116 305.788 146.202C305.764 142.288 304.699 138.451 302.702 135.084ZM289.976 149.797C289.331 150.944 288.39 151.897 287.251 152.557C286.113 153.217 284.818 153.559 283.502 153.549H164.917C163.601 153.559 162.306 153.217 161.168 152.557C160.029 151.897 159.088 150.944 158.443 149.797C157.798 148.679 157.458 147.41 157.458 146.119C157.458 144.827 157.798 143.559 158.443 142.44L217.295 39.451C217.912 38.246 218.85 37.2348 220.005 36.5287C221.16 35.8225 222.488 35.4489 223.842 35.4489C225.196 35.4489 226.523 35.8225 227.678 36.5287C228.834 37.2348 229.772 38.246 230.389 39.451L289.608 142.44C290.338 143.543 290.757 144.821 290.822 146.142C290.887 147.462 290.594 148.776 289.976 149.944V149.797Z" fill="#F8B330"/>
<path d="M331.937 122.382C330.508 120.972 328.59 120.171 326.583 120.146C324.916 120.17 323.296 120.7 321.939 121.668C321.513 121.526 321.072 121.434 320.625 121.394C319.499 121.304 318.367 121.453 317.302 121.83C316.238 122.208 315.265 122.805 314.446 123.584C313.728 124.275 313.159 125.105 312.773 126.024C312.388 126.943 312.194 127.931 312.204 128.927C312.292 130.962 313.098 132.899 314.478 134.396L314.728 134.747C313.806 134.619 312.867 134.681 311.97 134.927C309.988 135.464 308.299 136.763 307.273 138.541C306.778 139.393 306.457 140.335 306.327 141.311C306.198 142.288 306.262 143.281 306.517 144.232C307.542 147.089 308.551 149.958 309.543 152.839C309.879 153.778 310.198 154.715 310.534 155.654C305.471 162.28 299.886 165.453 296.966 167.53L289.432 172.891C282.167 177.547 279.853 170.791 279.853 170.791C279.165 168.629 278.313 166.522 277.304 164.49C275.756 161.36 269.28 154.68 268.57 153.915C267.913 153.155 267.088 152.558 266.161 152.169C265.234 151.78 264.23 151.61 263.227 151.673C261.18 151.705 259.223 152.515 257.751 153.937C256.368 155.365 255.586 157.268 255.566 159.255C255.624 161.296 256.434 163.244 257.84 164.724C258.823 165.808 263.198 170.13 264.44 174.339C265.887 179.218 266.259 189.426 266.008 193.533C265.758 197.64 265.043 201.882 264.561 206.047L264.228 208.914C264.31 210.95 265.117 212.889 266.503 214.383C267.93 215.788 269.844 216.591 271.846 216.625C273.432 216.595 274.975 216.11 276.293 215.229L290.891 222.492L301.628 222.545L334.906 176.696C337.202 174.221 338.83 171.201 339.634 167.922C340.122 165.297 340.381 162.635 340.409 159.965L340.932 150.527C341.05 148.463 341.195 146.395 341.279 144.325C341.282 142.223 340.45 140.206 338.966 138.717L338.514 138.208C337.828 137.457 337.142 136.706 336.459 135.937L334.112 133.361L334.16 127.842C334.147 125.804 333.351 123.849 331.937 122.382Z" fill="#648CFF"/>
<path fill-rule="evenodd" clip-rule="evenodd" d="M334.19 134.758C334.869 134.787 335.396 135.362 335.367 136.041L334.941 145.908L331.57 166.068C331.458 166.738 330.823 167.191 330.153 167.079C329.482 166.967 329.029 166.332 329.141 165.662L332.487 145.651L332.907 135.935C332.936 135.256 333.511 134.729 334.19 134.758Z" fill="black"/>
<path d="M311.249 217.499L264.092 191.881C261.114 190.216 257.613 189.752 254.304 190.584C250.996 191.417 248.131 193.483 246.297 196.36C244.749 198.863 244.088 201.815 244.422 204.74C244.755 207.665 246.063 210.392 248.135 212.483C248.335 212.683 248.487 212.925 248.581 213.192C248.675 213.459 248.708 213.743 248.678 214.024C248.649 214.306 248.556 214.576 248.408 214.817C248.26 215.058 248.059 215.263 247.822 215.416C245.956 216.634 244.394 218.263 243.256 220.178L204.038 286.333L269.323 334.061L299.839 248.328C300.259 246.91 300.457 245.436 300.426 243.957C300.422 243.677 300.481 243.399 300.598 243.144C300.715 242.889 300.888 242.663 301.103 242.483C301.319 242.303 301.571 242.174 301.843 242.104C302.115 242.034 302.399 242.026 302.674 242.08C305.547 242.666 308.534 242.275 311.158 240.967C313.782 239.659 315.894 237.511 317.155 234.864C318.567 231.762 318.741 228.238 317.644 225.011C316.547 221.784 314.26 219.098 311.249 217.499Z" fill="#FDCD01"/>
<path d="M98.3293 153.782C95.601 154.637 93.2112 156.334 91.4971 158.632C89.783 160.931 88.8312 163.714 88.7758 166.591C88.4893 179.43 93.8411 184.003 82.5537 192.577C76.8427 196.96 67.4128 212.076 83.7733 217.554C101.491 223.433 170.122 183.974 170.122 183.974C170.122 183.974 179.155 177.277 173.744 164.167C167.953 150.128 154.562 155.463 149.796 145.896C141.69 129.62 98.3293 153.782 98.3293 153.782Z" fill="#333132"/>
<path d="M92.8996 154.766C93.0231 153.553 93.6045 152.426 94.5289 151.607C95.4532 150.789 96.6533 150.339 97.8917 150.346C97.874 149.298 97.9128 148.249 98.0078 147.204C98.4666 142.679 100.133 138.344 102.839 134.638C105.544 130.933 109.193 127.989 113.413 126.105C117.634 124.22 122.276 123.464 126.87 123.911C131.464 124.358 135.846 125.993 139.57 128.65C143.295 131.308 146.23 134.893 148.078 139.041C149.926 143.19 150.621 147.755 150.093 152.273C149.564 156.792 147.831 161.102 145.069 164.767C142.307 168.433 138.614 171.322 134.366 173.144L145.592 192.593L127.088 198.452C127.088 198.452 126.564 183.567 126.263 175.149C124.69 175.29 123.11 175.293 121.54 175.158C116.826 174.733 112.329 173.058 108.528 170.309C104.727 167.561 101.765 163.843 99.9566 159.552C99.1647 159.925 98.287 160.08 97.4164 160.003C96.767 159.955 96.1347 159.782 95.5558 159.493C94.9768 159.203 94.4627 158.804 94.043 158.317C93.6233 157.83 93.3062 157.266 93.11 156.657C92.9137 156.047 92.8423 155.405 92.8996 154.766Z" fill="#648CFF"/>
<path d="M98.1222 150.144L97.7297 150.237C97.7163 149.198 97.7598 148.157 97.8601 147.12C98.4031 141.952 100.556 137.04 104.033 133.036C107.51 129.031 112.147 126.124 117.327 124.7C116.396 142.687 107.141 149.585 101.655 152.096C101.249 151.543 100.724 151.082 100.114 150.746C99.5049 150.409 98.8256 150.203 98.1222 150.144Z" fill="#333132"/>
<path d="M150.199 146.656C121.99 143.66 117.848 127.389 117.345 124.712C120.388 123.867 123.562 123.598 126.706 123.918C132.596 124.488 138.125 127.046 142.392 131.175C146.658 135.305 149.41 140.762 150.199 146.656Z" fill="#333132"/>
<path d="M194.037 183.463L243.452 252.88L227.162 295.993L170.471 199.194L194.037 183.463Z" fill="#FDCD01"/>
<path d="M175.801 178.755L293.942 325.557L105.752 336.733L93.4419 212.537L175.801 178.755Z" fill="#FDCD01"/>
<path d="M119.828 233.974C121.28 223.109 113.557 213.111 102.579 211.645C91.6013 210.178 81.5251 217.797 80.0734 228.663C78.6217 239.528 86.3442 249.525 97.3222 250.992C108.3 252.459 118.376 244.84 119.828 233.974Z" fill="#FDCD01"/>
<path d="M130.009 343.479C139.112 320.948 128.036 295.227 105.27 286.028C82.504 276.83 56.669 287.639 47.566 310.169C38.4629 332.7 49.539 358.421 72.3051 367.619C95.0712 376.818 120.906 366.009 130.009 343.479Z" fill="#FDCD01"/>
<path d="M80.8296 225.319L48.6514 307.471L129.268 328.356L119.715 228.066L80.8296 225.319Z" fill="#FDCD01"/>
<path d="M196.721 193.453C197.755 185.584 192.144 178.358 184.189 177.313C176.234 176.269 168.947 181.801 167.914 189.671C166.881 197.54 172.492 204.766 180.447 205.811C188.401 206.855 195.688 201.323 196.721 193.453Z" fill="#FDCD01"/>
<path d="M270.919 274.099L267.722 269.318C266.249 267.128 264.077 265.501 261.561 264.704C259.045 263.907 256.333 263.986 253.867 264.928L207.003 277.961C207.003 277.961 210.621 297.204 210.621 297.135C210.621 297.067 270.919 274.099 270.919 274.099Z" fill="#648CFF"/>
<path d="M313.792 326.059C315.584 323.819 316.781 321.164 317.273 318.339C317.765 315.513 317.537 312.61 316.608 309.896C316.608 309.896 309.656 292.042 306.762 286.899C303.868 281.756 296.936 277.415 290.306 275.45C284.313 273.67 276.95 274.374 270.683 274.139C255.038 273.543 215.058 278.705 210.912 278.481C205.358 278.187 200.89 276.916 201.398 282.157C201.481 283.038 201.661 283.907 201.936 284.748L199.638 285.53L192.374 320.554C192.374 320.554 205.084 348.909 236.373 338.056C264.826 328.171 274.232 337.782 275.132 339.034C276.109 340.522 276.641 342.259 276.667 344.04C276.667 349.701 282.533 354.453 287.794 354.013C294.002 353.485 298.353 349.056 298.402 343.258C298.422 342.505 298.369 341.752 298.246 341.009C301.502 344.421 307.818 345.125 311.602 342.534C316.687 339.063 317.537 333.402 314.848 328.161L313.792 326.059Z" fill="#648CFF"/>
<path fill-rule="evenodd" clip-rule="evenodd" d="M267.331 274.085C267.338 274.625 266.907 275.069 266.367 275.077C255.733 275.228 239.091 276.874 226.751 278.094C223.264 278.439 220.121 278.75 217.553 278.984C217.015 279.033 216.54 278.636 216.491 278.099C216.442 277.561 216.838 277.085 217.376 277.036C219.909 276.806 223.023 276.498 226.487 276.155C238.83 274.934 255.611 273.274 266.339 273.121C266.879 273.113 267.323 273.545 267.331 274.085Z" fill="black"/>
<path fill-rule="evenodd" clip-rule="evenodd" d="M284.797 290.148C278.7 287.452 273.094 287.626 269.632 288.101C269.097 288.174 268.603 287.8 268.53 287.265C268.457 286.73 268.831 286.237 269.366 286.163C273.041 285.66 279.046 285.467 285.587 288.36C292.139 291.257 299.121 297.201 304.827 308.776L312.367 321.682C312.64 322.148 312.483 322.747 312.016 323.019C311.55 323.292 310.951 323.135 310.679 322.668L303.121 309.733C303.109 309.713 303.098 309.692 303.088 309.671C297.552 298.427 290.877 292.837 284.797 290.148Z" fill="black"/>
<path fill-rule="evenodd" clip-rule="evenodd" d="M256.875 304.94C256.944 304.404 257.434 304.026 257.969 304.095C265.793 305.101 273.252 308.006 279.695 312.558L279.698 312.56C288.177 318.604 293.792 327.696 297.736 336.887L297.74 336.896L297.74 336.896L298.18 337.952C298.388 338.451 298.152 339.023 297.654 339.231C297.155 339.439 296.583 339.203 296.375 338.704L295.939 337.658C295.939 337.656 295.938 337.655 295.937 337.653C292.06 328.621 286.627 319.901 278.565 314.154C272.383 309.787 265.226 307 257.72 306.035C257.184 305.966 256.806 305.476 256.875 304.94Z" fill="black"/>
<path d="M93.706 370.761L178.234 356.818C184.214 355.182 189.396 351.428 192.814 346.254C196.232 341.081 197.653 334.841 196.811 328.698L192.636 298.153C192.15 294.601 190.923 291.192 189.035 288.145C187.147 285.098 184.64 282.482 181.677 280.466C178.713 278.45 175.359 277.079 171.832 276.442C168.304 275.805 164.683 275.917 161.201 276.769L69.917 299.15L93.706 370.761Z" fill="#FDCD01"/>
<path d="M206.985 277.979C205.481 270.885 198.513 266.352 191.421 267.856C184.329 269.359 179.799 276.329 181.303 283.424L192.594 336.682C194.098 343.777 201.067 348.309 208.159 346.806C215.251 345.302 219.78 338.332 218.276 331.237L206.985 277.979Z" fill="#FDCD01"/>
<path fill-rule="evenodd" clip-rule="evenodd" d="M191.234 266.886C193.946 266.311 196.768 266.549 199.347 267.569C201.925 268.589 204.146 270.347 205.731 272.622C206.04 273.065 205.931 273.674 205.488 273.983C205.045 274.292 204.436 274.183 204.127 273.74C202.761 271.78 200.848 270.266 198.627 269.388C196.406 268.509 193.975 268.304 191.639 268.799L191.436 267.842L191.638 268.799C189.962 269.153 188.38 269.858 186.996 270.869C185.613 271.879 184.46 273.172 183.613 274.661L183.61 274.666C182.737 276.182 181.372 277.353 179.742 277.987C178.112 278.621 176.314 278.679 174.646 278.151L174.645 278.151C170.348 276.786 165.757 276.636 161.38 277.718L161.378 277.719L85.5422 296.296C85.0177 296.425 84.4883 296.104 84.3599 295.579C84.2314 295.055 84.5524 294.525 85.0769 294.397L160.91 275.82C160.911 275.82 160.911 275.82 160.912 275.82C165.638 274.651 170.596 274.813 175.236 276.287C176.479 276.68 177.818 276.636 179.033 276.164C180.247 275.692 181.264 274.82 181.915 273.692C182.898 271.963 184.237 270.463 185.843 269.289C187.449 268.116 189.287 267.296 191.234 266.886Z" fill="black"/>
<path fill-rule="evenodd" clip-rule="evenodd" d="M184.156 289.007C184.687 288.913 185.195 289.268 185.289 289.799L193.581 336.507C193.675 337.039 193.321 337.546 192.789 337.641C192.257 337.735 191.75 337.381 191.655 336.849L183.364 290.141C183.269 289.609 183.624 289.102 184.156 289.007Z" fill="black"/>
<path d="M146.541 183.948L122.083 193.16C119.187 194.251 117.724 197.483 118.815 200.378C119.905 203.274 123.137 204.737 126.033 203.646L150.491 194.434C153.386 193.343 154.849 190.111 153.759 187.216C152.668 184.32 149.437 182.857 146.541 183.948Z" fill="#FDCD01"/>
<path fill-rule="evenodd" clip-rule="evenodd" d="M154.203 189.949C154.718 190.113 155.002 190.663 154.839 191.177C154.539 192.123 154.028 192.988 153.346 193.708C152.664 194.429 151.827 194.985 150.899 195.336L126.454 204.546C125.468 204.919 124.406 205.048 123.359 204.924C122.311 204.8 121.309 204.427 120.437 203.834C119.99 203.531 119.873 202.923 120.177 202.476C120.48 202.029 121.088 201.913 121.535 202.216C122.148 202.632 122.852 202.895 123.588 202.982C124.324 203.069 125.071 202.978 125.764 202.717L150.208 193.506C150.208 193.506 150.207 193.506 150.208 193.506C150.859 193.26 151.447 192.869 151.926 192.363C152.406 191.858 152.764 191.25 152.975 190.586C153.138 190.071 153.688 189.786 154.203 189.949Z" fill="black"/>
<path fill-rule="evenodd" clip-rule="evenodd" d="M251.773 217.783C252.022 217.304 252.613 217.117 253.092 217.366L295.38 239.366C295.859 239.615 296.046 240.206 295.796 240.685C295.547 241.164 294.957 241.35 294.478 241.101L252.189 219.101C251.71 218.852 251.524 218.262 251.773 217.783Z" fill="black"/>
</g>
<defs>
<clipPath id="clip0_9738:151">
<rect width="373" height="373" fill="white"/>
</clipPath>
</defs>
</svg>
