<svg width="35" height="44" viewBox="0 0 35 44" fill="none" xmlns="http://www.w3.org/2000/svg">
<g clip-path="url(#clip0_69_3953)">
<path d="M0.00606857 26.3295C-0.00761066 24.8202 1.17336 23.586 2.63704 23.5815C3.33726 23.5913 4.00601 23.8739 4.50105 24.3693C4.99609 24.8646 5.27834 25.5335 5.28777 26.2337C5.28739 26.9343 5.01739 27.6078 4.53376 28.1146C4.05014 28.6215 3.39 28.9227 2.69024 28.9559C1.3056 29.0061 0.0212677 27.743 0.00606857 26.3295Z" fill="#579DD5"/>
<path d="M34.8136 33.8151C34.8243 35.2757 33.6965 36.4977 32.3225 36.5159C30.836 36.5357 29.5867 35.3532 29.5456 33.9002C29.5107 32.4866 30.7372 31.1765 32.1188 31.1537C32.4716 31.1476 32.822 31.212 33.1495 31.3432C33.477 31.4744 33.775 31.6697 34.026 31.9176C34.277 32.1655 34.476 32.461 34.6113 32.7868C34.7465 33.1127 34.8153 33.4623 34.8136 33.8151Z" fill="#579DD5"/>
<path d="M2.61274 13.8844C2.26613 13.8897 1.92204 13.8248 1.60115 13.6937C1.28026 13.5625 0.989182 13.3679 0.745419 13.1214C0.501656 12.875 0.310237 12.5818 0.182662 12.2595C0.0550868 11.9372 -0.00600987 11.5924 0.00304416 11.2458C0.0136836 9.79584 1.20985 8.58143 2.63249 8.57687C4.08249 8.57687 5.29386 9.81408 5.28627 11.3021C5.28133 11.6475 5.20814 11.9885 5.0709 12.3056C4.93367 12.6226 4.73511 12.9094 4.48663 13.1493C4.23816 13.3893 3.94468 13.5778 3.62308 13.704C3.30149 13.8301 2.95812 13.8915 2.61274 13.8844Z" fill="#579DD5"/>
<path d="M10.077 21.4703C8.54344 21.4825 7.41263 20.3516 7.41111 18.8074C7.40984 18.1083 7.68421 17.4368 8.17472 16.9386C8.66524 16.4404 9.33236 16.1556 10.0314 16.146C11.4282 16.146 12.6746 17.3544 12.6822 18.7208C12.6928 20.2498 11.5468 21.4597 10.077 21.4703Z" fill="#579DD5"/>
<path d="M32.1736 21.4718C30.7692 21.4627 29.5107 20.2255 29.5517 18.888C29.5973 17.3209 30.719 16.1521 32.1842 16.1415C32.5366 16.1446 32.8849 16.2178 33.2087 16.3568C33.5326 16.4959 33.8255 16.6979 34.0705 16.9513C34.3155 17.2046 34.5077 17.5042 34.6358 17.8325C34.7639 18.1608 34.8254 18.5113 34.8167 18.8637C34.8226 19.2108 34.758 19.5555 34.6268 19.8769C34.4957 20.1983 34.3006 20.4898 34.0535 20.7336C33.8064 20.9774 33.5124 21.1686 33.1892 21.2955C32.8661 21.4224 32.5206 21.4824 32.1736 21.4718Z" fill="#579DD5"/>
<path d="M32.1583 23.6863C33.701 23.6863 34.8258 24.8065 34.8197 26.3477C34.8234 27.0473 34.5497 27.7198 34.0586 28.218C33.5674 28.7163 32.8989 28.9996 32.1994 29.006C30.7068 29.006 29.541 27.7703 29.5502 26.2018C29.5578 24.881 30.7859 23.697 32.1583 23.6863Z" fill="#579DD5"/>
<path d="M2.6492 36.4308C1.94377 36.4367 1.2649 36.1621 0.761951 35.6674C0.259 35.1727 -0.0268394 34.4985 -0.0326845 33.793C-0.0385295 33.0876 0.236098 32.4087 0.730784 31.9058C1.22547 31.4028 1.89969 31.117 2.60512 31.1111C3.31056 31.1053 3.98943 31.3799 4.49238 31.8746C4.99533 32.3693 5.28117 33.0435 5.28701 33.7489C5.29286 34.4544 5.01823 35.1332 4.52355 35.6362C4.02886 36.1391 3.35464 36.425 2.6492 36.4308Z" fill="#579DD5"/>
<path d="M32.1158 13.8905C30.7357 13.8586 29.532 12.6518 29.5563 11.3325C29.5912 9.70313 30.7722 8.5252 32.318 8.57688C33.736 8.62247 34.8532 9.86273 34.8152 11.3477C34.7772 12.8326 33.6205 13.9255 32.1158 13.8905Z" fill="#579DD5"/>
<path d="M27.4132 18.8013C27.4132 20.3441 26.3492 21.4566 24.8552 21.4703C23.3185 21.484 22.2044 20.3638 22.2075 18.8074C22.2075 17.3088 23.3474 16.1476 24.808 16.1476C25.1539 16.1489 25.496 16.2189 25.8146 16.3533C26.1333 16.4878 26.4221 16.6841 26.6643 16.9309C26.9066 17.1777 27.0975 17.4701 27.2261 17.7911C27.3546 18.1122 27.4182 18.4555 27.4132 18.8013Z" fill="#579DD5"/>
<path d="M17.4334 23.6863C18.9366 23.6863 20.0173 24.7913 20.0173 26.3249C20.0173 27.8585 18.9108 29.006 17.444 29.006C17.0921 29.0043 16.744 28.9324 16.4202 28.7944C16.0963 28.6564 15.8033 28.4552 15.5583 28.2025C15.3133 27.9499 15.1211 27.6508 14.9932 27.3229C14.8652 26.995 14.804 26.6449 14.8131 26.293C14.8252 24.7776 15.9226 23.6863 17.4334 23.6863Z" fill="#579DD5"/>
<path d="M0.00305176 18.7345C0.0145403 18.0339 0.30387 17.3665 0.807392 16.8793C1.31091 16.392 1.98738 16.1247 2.68798 16.1362C3.38858 16.1477 4.05592 16.437 4.54319 16.9405C5.03047 17.444 5.29776 18.1205 5.28627 18.8211C5.26505 19.5076 4.98335 20.1603 4.49838 20.6467C4.01341 21.1331 3.36152 21.4167 2.67506 21.4399C1.22506 21.4673 0.00305176 20.2301 0.00305176 18.7345Z" fill="#579DD5"/>
<path d="M10.0861 23.7137C11.5042 23.7137 12.7718 24.9509 12.67 26.3751C12.5621 27.9239 11.7231 28.9346 9.94631 29C8.60575 29.0486 7.43693 27.7369 7.40198 26.3477C7.36702 24.9251 8.70758 23.5465 10.0861 23.7137Z" fill="#D0E0ED"/>
<path d="M9.96911 13.8738C8.53279 13.8738 7.40198 12.6867 7.4111 11.1926C7.42022 9.79433 8.61791 8.57536 9.98583 8.57536C11.4541 8.57536 12.7703 9.82625 12.6746 11.2443C12.5636 12.9162 11.4206 13.9589 9.96911 13.8738Z" fill="#D0E0ED"/>
<path d="M19.9777 18.8789C19.9777 20.4656 18.9868 21.4475 17.3863 21.4445C15.8937 21.4445 14.8313 20.3805 14.8298 18.8849C14.8298 17.3361 15.9606 16.14 17.4137 16.1491C18.6737 16.1491 20.1176 17.1872 19.9777 18.8789Z" fill="#D0E0ED"/>
<path d="M9.93263 36.4323C8.55255 36.6208 7.33206 35.1389 7.41262 33.7573C7.50989 32.1021 8.6939 31.1126 10.0937 31.1734C11.7261 31.2449 12.6396 32.2495 12.6654 33.8531C12.6898 35.3122 11.3781 36.6497 9.93263 36.4323Z" fill="#D0E0ED"/>
<path d="M19.9778 11.3507C19.9778 12.857 18.9442 13.8723 17.4137 13.8738C15.8831 13.8753 14.8298 12.7886 14.8298 11.261C14.8298 9.76089 15.9652 8.57231 17.3954 8.57687C18.7618 8.58295 20.0841 9.57546 19.9778 11.3507Z" fill="#D0E0ED"/>
<path d="M27.3949 26.3827C27.3971 26.7274 27.3312 27.0692 27.201 27.3883C27.0707 27.7075 26.8787 27.9978 26.6359 28.2426C26.3931 28.4873 26.1044 28.6817 25.7863 28.8146C25.4682 28.9474 25.1269 29.0161 24.7822 29.0167C23.434 29.0167 22.1573 27.7293 22.2288 26.3249C22.3108 24.6849 23.2334 23.7046 24.8749 23.7137C26.3766 23.7228 27.3965 24.8035 27.3949 26.3827Z" fill="#D0E0ED"/>
<path d="M19.9778 41.3174C19.9778 42.9041 18.9579 44.0061 17.4775 44.0061C15.9211 44.0061 14.8283 42.8783 14.8298 41.2702C14.8318 40.5892 15.1039 39.9368 15.5863 39.4561C16.0687 38.9755 16.722 38.7057 17.403 38.7061C18.9366 38.7016 19.9747 39.7534 19.9778 41.3174Z" fill="#D0E0ED"/>
<path d="M27.395 11.2884C27.395 12.822 26.3113 13.8829 24.7655 13.8723C23.2197 13.8616 22.2364 12.8083 22.247 11.1273C22.2561 9.69401 23.4097 8.60271 24.8491 8.56167C26.0969 8.52672 27.664 10.0451 27.395 11.2884Z" fill="#D0E0ED"/>
<path d="M19.9777 33.8834C19.9777 35.4626 18.9822 36.4339 17.3665 36.4323C15.8466 36.4323 14.8632 35.4003 14.8207 33.8682C14.7781 32.3362 15.9363 31.2403 17.3909 31.1658C18.9062 31.0883 20.2118 32.6143 19.9777 33.8834Z" fill="#D0E0ED"/>
<path d="M19.9777 2.71153C19.9777 4.17824 18.7831 5.38962 17.3741 5.35466C15.9287 5.3197 14.848 4.13872 14.8222 2.63705C14.7979 1.25849 15.7691 0.0455974 17.4471 0.0075995C18.8682 -0.0243187 20.2027 1.31928 19.9777 2.71153Z" fill="#D0E0ED"/>
<path d="M24.7959 36.4323C23.2137 36.4323 22.2409 35.4398 22.2424 33.8272C22.2424 32.3833 23.4371 31.0777 24.8141 31.1598C26.252 31.2464 27.4375 32.2936 27.398 33.8531C27.3585 35.4125 26.3827 36.4323 24.7959 36.4323Z" fill="#D0E0ED"/>
</g>
<defs>
<clipPath id="clip0_69_3953">
<rect width="34.8197" height="44" fill="white"/>
</clipPath>
</defs>
</svg>
