<svg width="60" height="60" viewBox="0 0 60 60" fill="none" xmlns="http://www.w3.org/2000/svg">
<path d="M13.6188 12H29.3135C40.5918 12 47 18.1192 47 29.2848C47 40.7368 40.5918 47 29.3135 47H13.6188C12.7247 47 12 46.2371 12 45.2961V13.704C12 12.7629 12.7247 12 13.6188 12ZM12.3394 21.7548V37.3289H17.6565V28.2441C17.6565 27.7911 17.7271 27.4025 17.8684 27.078C18.0161 26.7468 18.2216 26.4933 18.4849 26.3175C18.7482 26.1418 19.0628 26.0539 19.4289 26.0539C19.9811 26.0539 20.421 26.25 20.7485 26.642C21.076 27.0272 21.2397 27.5613 21.2397 28.2441V37.3289H26.3257V28.2441C26.3257 27.5613 26.4831 27.0272 26.7977 26.642C27.1188 26.25 27.5523 26.0539 28.0981 26.0539C28.6504 26.0539 29.0902 26.25 29.4178 26.642C29.7453 27.0272 29.909 27.5613 29.909 28.2441V37.3289H35.2261V26.8245C35.2261 25.2293 34.783 23.9517 33.8968 22.9917C33.0171 22.0319 31.8676 21.552 30.4484 21.552C29.3503 21.552 28.3935 21.8426 27.578 22.424C26.7624 22.9986 26.2294 23.7624 25.9789 24.7155H25.8248C25.6707 23.7624 25.218 22.9986 24.4666 22.424C23.7153 21.8426 22.8195 21.552 21.7792 21.552C20.7517 21.552 19.8655 21.8359 19.1206 22.4037C18.3757 22.9715 17.8492 23.7421 17.5409 24.7155H17.3868V21.7548H12.3394Z" fill="#238662"/>
</svg>
